<svg width="64" height="65" viewBox="0 0 64 65" fill="none" xmlns="http://www.w3.org/2000/svg">
<mask id="mask0_2098_1525" style="mask-type:alpha" maskUnits="userSpaceOnUse" x="13" y="12" width="39" height="40">
<path d="M13.7046 15.0414C13.0806 14.4174 13.0806 13.403 13.7046 12.779C14.3286 12.155 15.343 12.155 15.967 12.779L35.199 32.011L15.967 51.2462C15.343 51.8702 14.3286 51.8702 13.7046 51.2462C13.0806 50.6222 13.0806 49.6078 13.7046 48.9806L30.6742 32.011L13.7046 15.0414Z" fill="#3C3C3C"/>
<path d="M29.7046 15.0414C29.0806 14.4174 29.0806 13.403 29.7046 12.779C30.3286 12.155 31.343 12.155 31.967 12.779L51.199 32.011L31.967 51.2462C31.343 51.8702 30.3286 51.8702 29.7046 51.2462C29.0806 50.6222 29.0806 49.6078 29.7046 48.9806L46.6742 32.011L29.7046 15.0414Z" fill="#3C3C3C"/>
</mask>
<g mask="url(#mask0_2098_1525)">
<rect y="64.012" width="64" height="64" transform="rotate(-90 0 64.012)" fill="#4CAFF3"/>
</g>
</svg>
