<svg width="168" height="60" viewBox="0 0 168 60" fill="none"
    xmlns="http://www.w3.org/2000/svg">
    <defs>
        <!-- moving clip rectangle -->
        <clipPath id="arrow-clip">
            <rect x="-100" y="0" width="80" height="100">
                <animate attributeName="x" from="-100" to="300" dur="1s" repeatCount="indefinite" />
            </rect>
        </clipPath>
    </defs>
    <path d="M166.828 32.8284C168.391 31.2663 168.391 28.7337 166.828 27.1716L141.373 1.71574C139.81 0.153643 137.278 0.153643 135.716 1.71574C134.154 3.27784 134.154 5.8105 135.716 7.3726L158.343 30L135.716 52.6274C134.154 54.1895 134.154 56.7222 135.716 58.2843C137.278 59.8464 139.81 59.8464 141.373 58.2843L166.828 32.8284ZM0 30L-3.49691e-07 34L5.125 34L5.125 30L5.125 26L3.49691e-07 26L0 30ZM15.375 30L15.375 34L25.625 34L25.625 30L25.625 26L15.375 26L15.375 30ZM35.875 30L35.875 34L46.125 34L46.125 30L46.125 26L35.875 26L35.875 30ZM56.375 30L56.375 34L66.625 34L66.625 30L66.625 26L56.375 26L56.375 30ZM76.875 30L76.875 34L87.125 34L87.125 30L87.125 26L76.875 26L76.875 30ZM97.375 30L97.375 34L107.625 34L107.625 30L107.625 26L97.375 26L97.375 30ZM117.875 30L117.875 34L128.125 34L128.125 30L128.125 26L117.875 26L117.875 30ZM138.375 30L138.375 34L148.625 34L148.625 30L148.625 26L138.375 26L138.375 30ZM158.875 30L158.875 34L164 34L164 30L164 26L158.875 26L158.875 30ZM166.828 32.8284C168.391 31.2663 168.391 28.7337 166.828 27.1716L141.373 1.71574C139.81 0.153643 137.278 0.153643 135.716 1.71574C134.154 3.27784 134.154 5.8105 135.716 7.3726L158.343 30L135.716 52.6274C134.154 54.1895 134.154 56.7222 135.716 58.2843C137.278 59.8464 139.81 59.8464 141.373 58.2843L166.828 32.8284ZM0 30L-3.49691e-07 34L5.125 34L5.125 30L5.125 26L3.49691e-07 26L0 30ZM15.375 30L15.375 34L25.625 34L25.625 30L25.625 26L15.375 26L15.375 30ZM35.875 30L35.875 34L46.125 34L46.125 30L46.125 26L35.875 26L35.875 30ZM56.375 30L56.375 34L66.625 34L66.625 30L66.625 26L56.375 26L56.375 30ZM76.875 30L76.875 34L87.125 34L87.125 30L87.125 26L76.875 26L76.875 30ZM97.375 30L97.375 34L107.625 34L107.625 30L107.625 26L97.375 26L97.375 30ZM117.875 30L117.875 34L128.125 34L128.125 30L128.125 26L117.875 26L117.875 30ZM138.375 30L138.375 34L148.625 34L148.625 30L148.625 26L138.375 26L138.375 30ZM158.875 30L158.875 34L164 34L164 30L164 26L158.875 26L158.875 30Z" fill="lightgrey"/>
    <path d="M166.828 32.8284C168.391 31.2663 168.391 28.7337 166.828 27.1716L141.373 1.71574C139.81 0.153643 137.278 0.153643 135.716 1.71574C134.154 3.27784 134.154 5.8105 135.716 7.3726L158.343 30L135.716 52.6274C134.154 54.1895 134.154 56.7222 135.716 58.2843C137.278 59.8464 139.81 59.8464 141.373 58.2843L166.828 32.8284ZM0 30L-3.49691e-07 34L5.125 34L5.125 30L5.125 26L3.49691e-07 26L0 30ZM15.375 30L15.375 34L25.625 34L25.625 30L25.625 26L15.375 26L15.375 30ZM35.875 30L35.875 34L46.125 34L46.125 30L46.125 26L35.875 26L35.875 30ZM56.375 30L56.375 34L66.625 34L66.625 30L66.625 26L56.375 26L56.375 30ZM76.875 30L76.875 34L87.125 34L87.125 30L87.125 26L76.875 26L76.875 30ZM97.375 30L97.375 34L107.625 34L107.625 30L107.625 26L97.375 26L97.375 30ZM117.875 30L117.875 34L128.125 34L128.125 30L128.125 26L117.875 26L117.875 30ZM138.375 30L138.375 34L148.625 34L148.625 30L148.625 26L138.375 26L138.375 30ZM158.875 30L158.875 34L164 34L164 30L164 26L158.875 26L158.875 30ZM166.828 32.8284C168.391 31.2663 168.391 28.7337 166.828 27.1716L141.373 1.71574C139.81 0.153643 137.278 0.153643 135.716 1.71574C134.154 3.27784 134.154 5.8105 135.716 7.3726L158.343 30L135.716 52.6274C134.154 54.1895 134.154 56.7222 135.716 58.2843C137.278 59.8464 139.81 59.8464 141.373 58.2843L166.828 32.8284ZM0 30L-3.49691e-07 34L5.125 34L5.125 30L5.125 26L3.49691e-07 26L0 30ZM15.375 30L15.375 34L25.625 34L25.625 30L25.625 26L15.375 26L15.375 30ZM35.875 30L35.875 34L46.125 34L46.125 30L46.125 26L35.875 26L35.875 30ZM56.375 30L56.375 34L66.625 34L66.625 30L66.625 26L56.375 26L56.375 30ZM76.875 30L76.875 34L87.125 34L87.125 30L87.125 26L76.875 26L76.875 30ZM97.375 30L97.375 34L107.625 34L107.625 30L107.625 26L97.375 26L97.375 30ZM117.875 30L117.875 34L128.125 34L128.125 30L128.125 26L117.875 26L117.875 30ZM138.375 30L138.375 34L148.625 34L148.625 30L148.625 26L138.375 26L138.375 30ZM158.875 30L158.875 34L164 34L164 30L164 26L158.875 26L158.875 30Z" fill="#4CAFF3" clip-path="url(#arrow-clip)"/>
</svg>
