<svg width="141" height="150" viewBox="0 0 141 150" fill="none" xmlns="http://www.w3.org/2000/svg">
<path d="M99.4536 132.085H55.5177C47.5767 132.085 41.1396 125.652 41.1396 117.716V85.5237C41.1396 77.588 47.5767 71.1553 55.5177 71.1553H99.4536C107.395 71.1553 113.832 77.588 113.832 85.5237V117.716C113.832 125.651 107.394 132.085 99.4536 132.085Z" fill="white"/>
<path d="M113.832 88.907V114.332C113.832 124.137 106.396 132.086 97.2236 132.086H57.7452C48.5747 132.086 41.1396 124.138 41.1396 114.335V88.907C41.1396 79.1035 48.5738 71.1562 57.7452 71.1562H97.2253C106.397 71.1562 113.832 79.1035 113.832 88.907Z" fill="white"/>
<g opacity="0.35">
<path d="M113.832 94.0696V114.332C113.832 124.137 106.396 132.085 97.2236 132.085H57.7452C48.5747 132.085 41.1396 124.138 41.1396 114.335V94.0696C41.1396 84.2661 48.5738 76.3188 57.7452 76.3188H97.2253C106.397 76.3188 113.832 84.2661 113.832 94.0696Z" fill="#371A45"/>
</g>
<path d="M99.4538 71.1551C107.394 71.1551 113.832 77.5878 113.832 85.5235V117.716C113.832 125.652 107.395 132.084 99.4538 132.084H55.5178C47.5768 132.084 41.1398 125.652 41.1398 117.716V85.5235C41.1398 77.5887 47.5768 71.1551 55.5178 71.1551H99.4538ZM99.4538 68.5H55.5178C46.1248 68.5 38.4829 76.1367 38.4829 85.5235V117.716C38.4829 127.103 46.1248 134.74 55.5178 134.74H99.453C108.846 134.74 116.488 127.103 116.488 117.716V85.5235C116.489 76.1367 108.847 68.5 99.4538 68.5Z" fill="#371A45"/>
<path d="M57.369 74.5731L56.2482 87.1429L55.4323 96.2818L47.4238 97.8902L44.2114 98.5342C44.2114 98.5342 30.941 101.599 18.071 93.308C7.87118 86.7377 4.41904 75.932 3.1458 70.6769C0.685049 60.5341 0.668567 58.0429 3.5183 55.2824C5.70133 53.1658 7.90991 53.4796 7.90991 53.4796C7.90991 53.4796 8.60957 51.3861 10.5231 51.2857C16.2613 50.9876 20.2772 59.2856 20.2772 59.2856C20.2772 59.2856 22.9621 53.0818 25.7698 55.8457C27.7031 57.7522 25.5654 64.81 25.5654 64.81C25.5654 64.81 27.1262 70.0271 31.8772 72.4797C34.6074 73.8904 39.0213 74.5253 43.4121 74.7708C46.6631 74.9552 49.9018 74.9264 52.4409 74.8391C55.3714 74.7444 57.369 74.5731 57.369 74.5731Z" fill="white"/>
<g opacity="0.35">
<path d="M3.14392 70.677C4.4188 75.9304 7.87012 86.7395 18.0692 93.3097C24.4592 97.4233 30.9465 98.7418 35.8598 99.0243C40.8456 99.3117 44.212 98.5343 44.212 98.5343L49.3461 97.3426L51.858 84.8264C51.858 84.8264 47.1746 86.0304 44.957 87.3695C41.5914 89.402 37.8978 91.3027 32.551 90.7765C17.6876 89.313 9.45156 78.2479 7.1136 73.8855C3.86995 67.8341 3.62025 64.7203 3.35654 63.3721C2.81098 60.5836 2.40141 58.3996 2.39729 56.5845C0.732608 59.0049 1.06719 62.1146 3.14392 70.677Z" fill="#371A45"/>
</g>
<path d="M38.0233 100.433C32.782 100.433 25.0306 99.3708 17.3508 94.4246C9.74191 89.5236 4.38281 81.4199 1.85365 70.9897C-0.647486 60.674 -0.82137 57.6375 2.59369 54.3277C4.26661 52.707 5.99804 52.2672 7.06195 52.1659C7.65695 51.157 8.76371 50.0469 10.4531 49.9604C15.0244 49.7216 18.5144 53.9242 20.2508 56.5925C21.0568 55.4057 22.2229 54.1473 23.6626 53.8673C24.4199 53.7199 25.5629 53.7792 26.7018 54.9009C28.8709 57.0372 27.5911 62.5566 26.959 64.7744C27.3867 65.8994 28.9821 69.49 32.4854 71.3002C39.1433 74.741 57.0756 73.2652 57.2561 73.2503C57.6459 73.2174 58.0332 73.3582 58.3101 73.6366C58.587 73.9141 58.7271 74.3004 58.6925 74.6916L56.7575 96.4003C56.7056 96.9866 56.273 97.4684 55.6953 97.5845L44.4735 99.8353C44.2535 99.8855 41.7853 100.433 38.0233 100.433ZM7.57124 54.7881C7.13529 54.7881 5.81097 54.9083 4.44297 56.2334C2.22532 58.3828 1.93524 60.0514 4.43555 70.3646C6.80071 80.1204 11.7643 87.6682 18.7897 92.1927C31.0078 100.062 43.787 97.2683 43.9148 97.2394L54.1987 95.1756L55.9071 76.0084C51.2163 76.3008 37.4333 76.8459 31.2657 73.6588C26.0764 70.9765 24.3631 65.4258 24.2922 65.1911C24.2172 64.9416 24.218 64.6756 24.293 64.4269C25.1921 61.4481 25.6371 57.5799 24.8369 56.7926C24.457 56.4187 24.2559 56.4566 24.1719 56.4739C23.3024 56.6419 22.0589 58.5229 21.496 59.815C21.2892 60.2902 20.8236 60.6031 20.3044 60.613C19.7852 60.6303 19.308 60.3314 19.0814 59.8644C19.0452 59.7911 15.3763 52.3743 10.5916 52.6114C9.62077 52.6617 9.16917 53.8986 9.16505 53.9118C8.95325 54.5072 8.34589 54.8811 7.72123 54.7947C7.71299 54.793 7.66107 54.7881 7.57124 54.7881Z" fill="#371A45"/>
<path d="M21.4303 59.7335C21.2251 60.4022 20.8641 60.7868 20.5708 61.099C20.2691 61.4111 19.9931 61.6252 19.7244 61.8402C19.1953 62.2593 18.7075 62.5962 18.2641 63.0162C17.8249 63.4321 17.4301 63.913 17.0741 64.4656C16.695 65.01 16.4223 65.6416 16.0901 66.3013L16.0844 66.3137C16.0391 66.4042 15.9286 66.4405 15.838 66.3952C15.7844 66.368 15.7498 66.3178 15.7399 66.2634C15.6072 65.5255 15.5586 64.7489 15.6888 63.969C15.8108 63.1916 16.0695 62.4002 16.4799 61.682C16.8854 60.9672 17.4194 60.3116 17.965 59.8118C18.2295 59.5614 18.5023 59.3283 18.7132 59.1521C18.9226 58.9726 19.0594 58.8317 19.1269 58.8391L20.982 59.0492C21.2737 59.0821 21.4839 59.3456 21.4509 59.638C21.446 59.6693 21.4385 59.7039 21.4303 59.7335Z" fill="#371A45"/>
<path d="M18.0688 94.3381C17.5422 94.3381 17.093 93.9371 17.0444 93.4026C16.9925 92.836 17.4103 92.3353 17.9765 92.2834C24.4151 91.6954 30.2728 77.9116 31.9861 72.65C32.1625 72.1098 32.7426 71.8141 33.2849 71.9895C33.8255 72.1658 34.1214 72.7464 33.9458 73.2874C33.6772 74.1126 27.2599 93.503 18.1643 94.3332C18.1322 94.3365 18.1009 94.3381 18.0688 94.3381Z" fill="#371A45"/>
<path d="M98.3243 64.4697C113.595 104.721 117.178 136.924 117.178 136.924H77.548H37.918C37.918 136.924 41.502 104.721 56.7717 64.4697H98.3243Z" fill="white"/>
<path d="M98.7381 64.3123C101.82 69.8424 103.931 75.7736 105.852 81.7451C106.321 83.2432 106.8 84.7371 107.236 86.2442L108.532 90.7696C108.982 92.2726 109.38 93.7903 109.79 95.304C110.199 96.8185 110.645 98.3231 111.024 99.8451C112.632 105.91 114.051 112.026 115.326 118.172C116.585 124.331 117.707 130.483 118.497 136.775C118.587 137.494 118.078 138.149 117.359 138.24C117.307 138.246 117.255 138.25 117.204 138.25H117.177H37.918H37.9023C37.1763 138.25 36.5879 137.662 36.5879 136.936C36.5879 136.884 36.592 136.826 36.5978 136.775C37.1491 132.304 37.8924 127.938 38.7066 123.555C39.5291 119.181 40.443 114.827 41.4377 110.492L42.2066 107.246C42.4596 106.163 42.7241 105.084 43.0018 104.007C43.526 101.846 44.0559 99.6869 44.6006 97.5301C45.7238 93.2287 47.0168 88.9586 49.2378 85.0006C49.3598 84.7824 49.6358 84.705 49.8542 84.8269C50.0108 84.9142 50.0949 85.0813 50.085 85.2493L50.0841 85.2625C49.9424 87.5347 49.4809 89.6998 49.0046 91.86C48.5142 94.016 47.9225 96.1407 47.3325 98.2671C46.0568 102.494 45.0374 106.792 44.027 111.087C43.0398 115.389 42.1332 119.708 41.3182 124.043C40.5122 128.371 39.7706 132.746 39.2382 137.069L37.918 135.594H117.178L115.858 137.069C115.091 130.955 113.971 124.795 112.724 118.706C111.46 112.61 110.051 106.54 108.455 100.52C106.873 94.4953 105.081 88.5262 103.121 82.6156C102.198 79.6418 101.207 76.691 100.31 73.7057C99.4179 70.7179 98.4974 67.7399 97.9098 64.6244L97.9074 64.6113C97.8612 64.3683 98.0211 64.1344 98.2642 64.0891C98.4587 64.0545 98.6466 64.1492 98.7381 64.3123Z" fill="#371A45"/>
<path d="M60.1039 114.384C55.812 116.187 49.1706 115.81 44.6422 115.241C41.926 114.9 40.0199 112.3 40.4204 109.49C40.7854 106.928 42.9594 105.064 45.4531 105.185C49.6882 105.391 56.0411 105.487 60.0644 104.562L60.1039 114.384Z" fill="white"/>
<g opacity="0.35">
<path d="M60.105 114.383C55.8131 116.186 49.1684 115.811 44.6416 115.241C41.9271 114.901 40.0201 112.3 40.419 109.489C40.5039 108.892 40.686 108.331 40.953 107.826C41.6757 109.215 43.0141 110.229 44.6416 110.434C49.1627 111.002 55.795 111.38 60.0861 109.584L60.105 114.383Z" fill="#371A45"/>
</g>
<path d="M51.5671 117.038C49.0734 117.038 46.597 116.825 44.4766 116.559C42.8432 116.354 41.3838 115.508 40.366 114.177C39.3186 112.806 38.8587 111.03 39.1043 109.304C39.5683 106.045 42.3274 103.708 45.5166 103.859C51.7344 104.161 56.7944 103.952 59.7653 103.268C60.3998 103.121 61.9804 103.092 62.9141 105.983C63.9467 109.18 63.7226 114.303 60.619 115.609C58.0709 116.679 54.805 117.038 51.5671 117.038ZM45.2216 106.507C43.4794 106.507 41.9969 107.842 41.7348 109.678C41.5865 110.719 41.8502 111.744 42.4773 112.564C43.0592 113.325 43.8865 113.808 44.8079 113.924C51.2433 114.732 56.4936 114.461 59.5889 113.16C60.1262 112.934 60.5366 112.144 60.7138 110.994C61.0327 108.925 60.4798 106.626 60.0141 105.931C55.9093 106.796 49.8266 106.727 45.3872 106.511C45.332 106.509 45.276 106.507 45.2216 106.507Z" fill="#371A45"/>
<path d="M92.9312 114.384C97.2231 116.187 103.864 115.81 108.393 115.241C111.109 114.9 113.015 112.3 112.615 109.49C112.25 106.928 110.076 105.064 107.582 105.185C103.347 105.391 96.994 105.487 92.9707 104.562L92.9312 114.384Z" fill="white"/>
<g opacity="0.35">
<path d="M108.395 115.242C103.864 115.812 97.2222 116.187 92.9312 114.384L92.9501 109.595C97.242 111.392 103.871 111.013 108.395 110.445C110.022 110.24 111.364 109.219 112.086 107.831C112.346 108.333 112.531 108.894 112.616 109.49C113.016 112.3 111.109 114.902 108.395 115.242Z" fill="#371A45"/>
</g>
<path d="M101.467 117.039C98.2296 117.039 94.9637 116.679 92.4156 115.608C89.3104 114.304 89.0879 109.18 90.1204 105.983C91.0533 103.093 92.6331 103.121 93.2693 103.267C96.2394 103.951 101.3 104.161 107.518 103.859C110.702 103.702 113.466 106.044 113.93 109.303C114.176 111.029 113.716 112.805 112.669 114.176C111.651 115.507 110.191 116.353 108.558 116.559C106.438 116.825 103.96 117.039 101.467 117.039ZM93.0204 105.932C92.5548 106.627 92.0019 108.926 92.3208 110.995C92.498 112.145 92.9084 112.935 93.4457 113.161C96.5418 114.462 101.792 114.733 108.227 113.925C109.148 113.81 109.975 113.326 110.557 112.565C111.184 111.745 111.448 110.72 111.3 109.679C111.03 107.785 109.455 106.426 107.647 106.512C103.207 106.728 97.1253 106.796 93.0204 105.932Z" fill="#371A45"/>
<path d="M94.5886 101.315V117.058C94.5886 119.979 92.2861 122.369 89.4742 122.369H61.5406C58.7255 122.369 56.4263 119.979 56.4263 117.058V101.315C56.4263 98.3976 58.7263 96.0068 61.5406 96.0068H89.4734C91.7199 96.0068 93.6425 97.5329 94.3241 99.6362C94.4946 100.164 94.5886 100.728 94.5886 101.315Z" fill="white"/>
<g opacity="0.3">
<path d="M94.5886 101.315V117.057C94.5886 119.979 92.2861 122.369 89.4742 122.369H61.5406C58.7255 122.369 56.4263 119.979 56.4263 117.057V111.759C61.2456 114.527 70.7936 118.684 80.3754 115.254C85.0563 113.577 90.4236 107.83 90.4236 107.83C90.4236 107.83 90.6304 113.86 91.4925 113.765C93.8898 113.5 93.8716 101.3 94.3249 99.6353C94.4946 100.164 94.5886 100.728 94.5886 101.315Z" fill="#371A45"/>
</g>
<path d="M89.3762 123.695H61.6371C58.0308 123.695 55.0962 120.763 55.0962 117.159V101.217C55.0962 97.6128 58.0308 94.6802 61.6371 94.6802H89.3754C92.9824 94.6802 95.9162 97.6128 95.9162 101.217V117.159C95.9171 120.763 92.9824 123.695 89.3762 123.695ZM61.6371 97.3345C59.4952 97.3345 57.7531 99.0754 57.7531 101.216V117.158C57.7531 119.298 59.4952 121.039 61.6371 121.039H89.3754C91.5172 121.039 93.2593 119.298 93.2593 117.158V101.216C93.2593 99.0754 91.5172 97.3345 89.3754 97.3345H61.6371Z" fill="#371A45"/>
<path d="M85.4021 113.765C87.8385 113.765 89.8135 111.715 89.8135 109.187C89.8135 106.659 87.8385 104.609 85.4021 104.609C82.9658 104.609 80.9907 106.659 80.9907 109.187C80.9907 111.715 82.9658 113.765 85.4021 113.765Z" fill="#22A7F0"/>
<path d="M89.8145 109.189C89.8145 109.501 89.7857 109.804 89.728 110.097C89.3209 108 87.5375 106.423 85.4015 106.423C83.2662 106.423 81.4829 108.001 81.0782 110.097C81.0205 109.803 80.9917 109.5 80.9917 109.189C80.9917 106.66 82.9654 104.609 85.4015 104.609C87.8375 104.609 89.8145 106.66 89.8145 109.189Z" fill="white"/>
<g opacity="0.35">
<path d="M89.8137 109.186C89.8137 111.716 87.8375 113.764 85.4031 113.764C82.9679 113.764 80.9917 111.716 80.9917 109.186C80.9917 108.762 81.0486 108.347 81.1516 107.959C81.6699 109.89 83.3791 111.308 85.4023 111.308C87.4254 111.308 89.1346 109.89 89.653 107.959C89.7568 108.348 89.8137 108.762 89.8137 109.186Z" fill="#371A45"/>
</g>
<path d="M85.4024 114.761C82.4208 114.761 79.9946 112.261 79.9946 109.187C79.9946 106.114 82.42 103.613 85.4024 103.613C88.3839 103.613 90.8101 106.114 90.8101 109.187C90.8101 112.261 88.3839 114.761 85.4024 114.761ZM85.4024 105.605C83.5193 105.605 81.9873 107.212 81.9873 109.188C81.9873 111.164 83.5193 112.77 85.4024 112.77C87.2854 112.77 88.8174 111.164 88.8174 109.188C88.8174 107.212 87.2854 105.605 85.4024 105.605Z" fill="#371A45"/>
<path d="M72.9023 123.695C72.1689 123.695 71.5739 123.101 71.5739 122.368V114.31C71.5739 112.731 70.8528 111.226 69.6455 110.283L68.9359 109.729C67.0899 108.287 65.9873 105.999 65.9873 103.61V96.0068C65.9873 95.2738 66.5823 94.6792 67.3158 94.6792C68.0492 94.6792 68.6442 95.2738 68.6442 96.0068V103.61C68.6442 105.188 69.3653 106.693 70.5726 107.637L71.2821 108.191C73.1281 109.633 74.2308 111.921 74.2308 114.31V122.368C74.2308 123.101 73.6358 123.695 72.9023 123.695Z" fill="#371A45"/>
<path d="M97.3408 70.5566C97.3408 70.5566 112.606 85.4167 119.292 101.624C125.015 115.498 122.076 124.243 122.076 124.243H110.159C110.159 124.243 108.57 102.822 102.201 91.3792L97.3408 70.5566Z" fill="white"/>
<path d="M97.6498 70.2397C100.041 71.5104 101.878 73.3502 103.636 75.246C105.394 77.1468 106.942 79.2262 108.524 81.2711C111.66 85.3839 114.616 89.6556 117.145 94.2074L117.625 95.0573L118.07 95.9286L118.958 97.6712C119.262 98.2485 119.502 98.8596 119.778 99.4525C120.041 100.051 120.317 100.644 120.57 101.248C121.546 103.681 122.379 106.176 123.006 108.736C123.623 111.297 124.013 113.923 124.13 116.577C124.161 117.907 124.176 119.24 124.048 120.578C123.991 121.247 123.915 121.916 123.803 122.588C123.756 122.922 123.679 123.26 123.614 123.597C123.532 123.947 123.465 124.253 123.335 124.665C123.162 125.217 122.654 125.57 122.104 125.57H122.075H110.158C109.462 125.57 108.892 125.037 108.834 124.357L108.834 124.341C108.605 121.577 108.255 118.766 107.847 115.994C107.427 113.218 106.956 110.448 106.35 107.714C106.215 107.027 106.039 106.351 105.882 105.669C105.72 104.988 105.565 104.306 105.374 103.635L104.825 101.617C104.62 100.952 104.406 100.291 104.178 99.6345C103.967 98.9708 103.671 98.3449 103.438 97.6943L102.748 95.7457C102.636 95.4213 102.527 95.0943 102.435 94.7591C102.34 94.4248 102.265 94.0797 102.163 93.7503C101.989 93.0742 101.841 92.3783 101.813 91.5951L101.811 91.5572C101.802 91.2928 102.008 91.0713 102.273 91.0614C102.391 91.0573 102.501 91.096 102.587 91.1644C103.198 91.6461 103.689 92.216 104.154 92.8049C104.391 93.0997 104.58 93.4135 104.76 93.7313C104.943 94.0492 105.11 94.3754 105.273 94.7031C105.439 95.0293 105.601 95.3603 105.74 95.6963C105.873 96.0348 105.995 96.3766 106.115 96.72C106.344 97.4085 106.585 98.0978 106.763 98.797C107.611 101.565 108.333 104.346 108.946 107.151C109.566 109.954 110.047 112.776 110.474 115.604C110.891 118.44 111.243 121.258 111.482 124.144L110.158 122.915H122.075L120.816 123.82C120.878 123.622 120.955 123.303 121.017 123.031C121.072 122.739 121.139 122.453 121.18 122.154C121.28 121.564 121.348 120.96 121.399 120.355C121.516 119.144 121.501 117.912 121.474 116.685C121.365 114.227 121.003 111.767 120.42 109.353C119.83 106.94 119.039 104.573 118.11 102.254C117.869 101.679 117.604 101.111 117.352 100.539C117.088 99.9714 116.861 99.3891 116.568 98.8324L115.712 97.1557L115.285 96.3173L114.821 95.4954C114.199 94.4017 113.592 93.299 112.908 92.2383L111.91 90.6315L110.857 89.0569C109.452 86.9585 107.963 84.9095 106.395 82.9215C104.822 80.9359 103.12 79.0582 101.513 77.1006C99.8905 75.1538 98.2712 73.2127 97.0309 70.8738L97.0251 70.8623C96.9056 70.6374 96.9914 70.3583 97.2163 70.2397C97.3572 70.1656 97.5196 70.1721 97.6498 70.2397Z" fill="#371A45"/>
<path d="M57.1737 128.175C52.581 111.492 42.26 112.029 38.4066 114.147C36.1592 115.382 33.5485 117.218 31.7479 121.625C28.7251 110.675 14.0322 111.88 13.4875 126.775C13.1669 135.54 16.3174 141.823 18.606 144.607C20.8673 147.357 22.5534 148.274 24.9622 148.58C27.1914 148.864 31.9118 148.489 34.024 147.585C37.5421 146.078 41.8018 142.116 50.7688 141.714C50.7688 141.714 62.9465 141.857 76.5409 141.769C90.1352 141.858 102.313 141.714 102.313 141.714C111.28 142.116 115.54 146.078 119.058 147.585C121.17 148.49 125.89 148.864 128.119 148.58C130.528 148.275 132.214 147.357 134.476 144.607C136.764 141.823 139.915 135.54 139.594 126.775C139.049 111.879 124.356 110.674 121.334 121.625C119.533 117.218 116.922 115.382 114.675 114.147C110.823 112.029 100.501 111.492 95.908 128.175C95.908 129.208 95.0699 130.046 94.0356 130.046H59.1104C58.0654 130.046 57.2092 129.218 57.1737 128.175Z" fill="white"/>
<g opacity="0.35">
<path d="M29.8954 118.095C29.7487 117.787 29.6523 117.567 29.6069 117.461C29.6572 117.567 29.7561 117.785 29.8954 118.095Z" fill="#371A45"/>
</g>
<g opacity="0.35">
<path d="M123.079 118.095C123.218 117.785 123.316 117.567 123.367 117.461C123.321 117.567 123.225 117.787 123.079 118.095Z" fill="#371A45"/>
</g>
<g opacity="0.35">
<path d="M134.477 144.608C132.215 147.357 130.528 148.275 128.121 148.58C125.89 148.864 121.171 148.49 119.059 147.585C115.539 146.078 111.28 142.116 102.314 141.714C102.314 141.714 90.1343 141.858 76.5408 141.77C62.9473 141.858 50.7696 141.714 50.7696 141.714C41.8018 142.116 37.5428 146.078 34.0248 147.585C31.9126 148.49 27.1913 148.864 24.963 148.58C22.5525 148.275 20.868 147.357 18.6075 144.608C16.319 141.825 13.1677 135.542 13.4891 126.775C13.5171 125.999 13.5855 125.258 13.686 124.556C14.4096 130.71 16.7813 135.158 18.6075 137.377C20.8689 140.127 22.5525 141.044 24.963 141.35C24.9861 141.352 25.0083 141.355 25.0314 141.357C31.9505 142.262 36.4979 136.902 33.8426 130.452C31.8747 125.683 31.1569 122.098 31.7486 121.626C32.8512 120.739 37.9046 134.195 45.8909 133.855C56.427 133.408 55.9919 124.555 55.9919 124.555C55.9919 124.555 56.5663 125.286 57.2157 126.481C59.9196 131.444 65.0784 134.576 70.7334 134.56C72.6173 134.558 74.5621 134.548 76.54 134.535C78.7815 134.55 80.9852 134.558 83.1014 134.562C88.3163 134.572 93.1348 131.677 95.472 127.019C96.231 125.507 96.9792 124.554 96.9792 124.554C96.9792 124.554 96.5416 133.407 107.08 133.855C115.067 134.193 116.575 123.081 122.243 119.28C121.017 120.102 120.759 124.917 119.252 129.945C117.583 135.516 121.624 141.23 127.441 141.373C127.705 141.379 127.933 141.372 128.119 141.348C130.527 141.042 132.214 140.125 134.474 137.375C136.3 135.157 138.672 130.708 139.396 124.554C139.497 125.257 139.565 125.997 139.593 126.773C139.916 135.542 136.765 141.825 134.477 144.608Z" fill="#371A45"/>
</g>
<path d="M33.0829 130.02C32.8546 128.606 32.5225 127.22 32.1195 125.871C31.9201 125.195 31.6968 124.531 31.4528 123.88C31.2155 123.227 30.9378 122.595 30.6559 121.976L30.6501 121.964C30.3642 121.336 30.6419 120.595 31.2707 120.309C31.8995 120.023 32.6403 120.301 32.9263 120.929C32.9766 121.04 33.0095 121.159 33.026 121.274C33.1299 122.019 33.2213 122.758 33.2658 123.496C33.3178 124.232 33.3433 124.965 33.3425 125.694C33.3449 127.151 33.2667 128.597 33.0829 130.02Z" fill="#371A45"/>
<path d="M28.9017 149.913C28.1682 149.913 27.5732 149.318 27.5732 148.585C27.5732 147.967 27.9968 147.447 28.5696 147.299C28.6808 147.27 28.7946 147.255 28.9091 147.255C29.6426 147.255 30.2376 147.85 30.2376 148.583C30.2376 149.201 29.814 149.721 29.2412 149.869C29.13 149.898 29.0154 149.913 28.9017 149.913Z" fill="#371A45"/>
<path d="M120.001 130.02C119.817 128.597 119.739 127.152 119.74 125.694C119.739 124.965 119.765 124.232 119.817 123.496C119.861 122.758 119.953 122.02 120.057 121.274C120.152 120.59 120.784 120.114 121.468 120.21C122.152 120.305 122.628 120.937 122.532 121.62C122.516 121.74 122.482 121.854 122.435 121.958L122.427 121.976C122.145 122.595 121.868 123.227 121.63 123.88C121.385 124.53 121.163 125.195 120.963 125.87C120.561 127.221 120.229 128.607 120.001 130.02Z" fill="#371A45"/>
<path d="M95.5122 128.066C96.0355 124.965 96.9956 121.879 98.6586 119.064C98.8671 118.713 99.0978 118.373 99.3179 118.028C99.5577 117.693 99.7959 117.356 100.049 117.029C100.578 116.39 101.128 115.76 101.757 115.198C102.37 114.619 103.053 114.105 103.779 113.653C104.5 113.191 105.284 112.818 106.093 112.512C107.715 111.896 109.486 111.668 111.226 111.805C112.097 111.881 112.962 112.054 113.806 112.334C114.228 112.479 114.647 112.642 115.058 112.855C115.275 112.962 115.452 113.063 115.627 113.163C115.805 113.261 115.983 113.372 116.161 113.477C117.588 114.332 118.945 115.454 120.011 116.788C121.084 118.12 121.892 119.615 122.512 121.144L120.107 121.286C120.458 120.092 120.947 118.919 121.631 117.843C122.312 116.768 123.188 115.791 124.233 115.016C126.312 113.452 129.09 112.778 131.665 113.303C132.948 113.559 134.17 114.084 135.238 114.81C136.308 115.535 137.226 116.454 137.972 117.473C138.722 118.495 139.279 119.624 139.711 120.777C140.154 121.932 140.422 123.129 140.604 124.324L140.723 125.223C140.753 125.523 140.767 125.822 140.789 126.121C140.843 126.725 140.834 127.308 140.845 127.898C140.856 129.075 140.786 130.254 140.678 131.429C140.442 133.779 139.932 136.103 139.176 138.352C138.387 140.591 137.376 142.762 135.933 144.741C135.748 144.985 135.556 145.235 135.365 145.468C135.172 145.696 134.982 145.926 134.777 146.149C134.377 146.6 133.947 147.04 133.474 147.457C132.546 148.293 131.377 149.033 130.103 149.417C129.471 149.614 128.838 149.734 128.217 149.81C127.569 149.887 126.97 149.902 126.367 149.905C125.168 149.907 123.995 149.824 122.817 149.689C121.635 149.537 120.469 149.359 119.24 148.965C118.594 148.752 118.028 148.478 117.502 148.206C116.963 147.932 116.461 147.643 115.962 147.362C114.968 146.797 114.005 146.249 113.025 145.753C112.048 145.256 111.049 144.83 110.034 144.453C107.998 143.725 105.871 143.243 103.704 143.05C103.166 143.02 102.652 142.96 102.095 142.949L100.392 142.952L96.984 142.96L90.1696 142.974L76.5406 143.002L62.9117 142.974L56.0973 142.96L52.6896 142.952L50.9862 142.949C50.4291 142.96 49.9157 143.02 49.3776 143.05C47.211 143.243 45.084 143.726 43.0468 144.453C42.0315 144.831 41.0336 145.257 40.0562 145.753C39.0763 146.249 38.1138 146.797 37.1191 147.362C36.6214 147.643 36.1186 147.932 35.5797 148.206C35.0531 148.478 34.4869 148.752 33.8417 148.965C32.6121 149.359 31.446 149.537 30.2643 149.689C29.0858 149.825 27.9131 149.907 26.714 149.905C26.1116 149.902 25.5125 149.887 24.8648 149.81C24.2434 149.733 23.6105 149.613 22.9784 149.417C21.7044 149.033 20.5358 148.293 19.607 147.457C19.134 147.04 18.7046 146.6 18.3041 146.149C18.0989 145.925 17.9094 145.696 17.7165 145.468C17.5254 145.235 17.3333 144.984 17.1479 144.741C15.7049 142.762 14.6946 140.591 13.9051 138.352C13.1494 136.104 12.6393 133.779 12.4036 131.429C12.2948 130.254 12.2264 129.075 12.2363 127.898C12.247 127.308 12.2379 126.725 12.2923 126.121C12.3146 125.822 12.3286 125.522 12.3583 125.223L12.4778 124.324C12.6582 123.129 12.9269 121.933 13.3703 120.777C13.8029 119.624 14.36 118.495 15.1091 117.473C15.8557 116.454 16.773 115.535 17.8435 114.81C18.9115 114.084 20.132 113.558 21.4167 113.303C23.9904 112.778 26.7726 113.449 28.8435 115.022C29.8852 115.8 30.7562 116.778 31.4328 117.854C32.1111 118.931 32.5989 120.101 32.9401 121.295L30.6038 121.157C31.2326 119.634 32.0484 118.149 33.1255 116.832C34.1977 115.513 35.5451 114.401 36.9666 113.551C37.1447 113.447 37.3202 113.335 37.4982 113.237C37.6729 113.137 37.8484 113.035 38.0619 112.928C38.469 112.717 38.8827 112.553 39.3013 112.406C40.1386 112.124 40.9973 111.95 41.8634 111.868C43.5916 111.703 45.3634 111.902 47.0009 112.484C47.8167 112.776 48.6144 113.132 49.3421 113.59C50.0772 114.037 50.7711 114.545 51.3933 115.12C52.655 116.254 53.7024 117.577 54.5414 118.987C56.2283 121.811 57.1752 124.929 57.5716 128.064C57.6004 128.292 57.4389 128.501 57.2106 128.529C57.0268 128.552 56.8554 128.451 56.7813 128.291L56.7771 128.282C56.1212 126.869 55.4998 125.472 54.8092 124.128C54.1186 122.784 53.3654 121.496 52.524 120.296C50.8494 117.905 48.6952 115.911 46.1141 114.963C44.8343 114.478 43.449 114.284 42.0859 114.385C41.4052 114.44 40.7311 114.57 40.0941 114.775C39.7785 114.882 39.467 114.999 39.1843 115.144C39.0491 115.208 38.8868 115.297 38.7236 115.388C38.5605 115.476 38.4072 115.57 38.2498 115.662C37.0087 116.408 35.9308 117.305 35.0399 118.397C34.1499 119.486 33.4502 120.747 32.894 122.091C32.6327 122.723 31.9092 123.022 31.2771 122.761C30.9145 122.611 30.659 122.302 30.5576 121.952C30.0005 119.975 28.9358 118.165 27.3643 117.001C25.8125 115.828 23.7934 115.345 21.8964 115.727C19.9935 116.1 18.2909 117.299 17.1092 118.927C16.5109 119.74 16.0527 120.668 15.6893 121.637C15.316 122.605 15.0836 123.638 14.9245 124.687L14.819 125.477C14.7927 125.743 14.7811 126.011 14.7613 126.278C14.7111 126.807 14.721 127.36 14.7102 127.906C14.7004 129.001 14.7646 130.093 14.8643 131.179C15.0819 133.351 15.5541 135.492 16.2447 137.55C16.9617 139.591 17.8987 141.58 19.1406 143.278C19.2996 143.485 19.4529 143.686 19.6219 143.893C19.7957 144.098 19.968 144.307 20.1468 144.502C20.5004 144.901 20.8671 145.275 21.247 145.609C22.0076 146.287 22.8086 146.783 23.7168 147.06C24.1701 147.202 24.6587 147.297 25.1647 147.359C25.646 147.418 26.1858 147.435 26.7198 147.436C27.7944 147.439 28.893 147.362 29.9725 147.237C31.043 147.103 32.135 146.923 33.0711 146.619C33.5054 146.477 33.9694 146.26 34.4507 146.01C34.9262 145.77 35.4099 145.493 35.9011 145.215C36.8826 144.657 37.8954 144.08 38.9445 143.549C39.9936 143.016 41.0888 142.547 42.2038 142.133C44.4462 141.33 46.7899 140.802 49.1526 140.591C49.7492 140.554 50.3681 140.491 50.9466 140.48L52.6533 140.483L56.0659 140.491L62.8911 140.505L76.5423 140.533L90.1935 140.505L97.0186 140.491L100.431 140.483L102.138 140.48C102.717 140.491 103.335 140.554 103.932 140.591C106.296 140.802 108.638 141.329 110.881 142.133C111.996 142.547 113.091 143.016 114.14 143.549C115.189 144.08 116.202 144.657 117.183 145.215C117.675 145.493 118.158 145.77 118.634 146.01C119.115 146.26 119.579 146.478 120.013 146.619C120.95 146.923 122.042 147.103 123.112 147.237C124.192 147.362 125.29 147.439 126.365 147.436C126.899 147.435 127.438 147.418 127.92 147.359C128.426 147.297 128.914 147.202 129.368 147.06C130.276 146.783 131.077 146.286 131.838 145.609C132.218 145.275 132.584 144.901 132.938 144.502C133.117 144.307 133.289 144.099 133.464 143.893C133.632 143.687 133.785 143.485 133.945 143.278C135.187 141.58 136.125 139.591 136.841 137.55C137.531 135.492 138.003 133.351 138.221 131.179C138.321 130.092 138.386 129 138.375 127.906C138.365 127.36 138.374 126.807 138.324 126.278C138.304 126.011 138.293 125.743 138.266 125.477L138.161 124.687C138.003 123.639 137.77 122.605 137.396 121.637C137.033 120.668 136.575 119.74 135.976 118.927C134.794 117.299 133.092 116.1 131.189 115.727C129.293 115.346 127.27 115.825 125.726 117.007C124.162 118.177 123.105 119.987 122.562 121.962C122.376 122.639 121.676 123.036 120.998 122.85C120.61 122.743 120.313 122.468 120.166 122.125L120.157 122.104C119.592 120.768 118.884 119.517 117.991 118.441C117.094 117.366 116.025 116.478 114.789 115.738C114.632 115.647 114.48 115.552 114.319 115.464C114.157 115.372 113.996 115.282 113.863 115.218C113.585 115.074 113.277 114.957 112.966 114.849C112.336 114.642 111.667 114.511 110.992 114.45C109.641 114.32 108.256 114.486 106.96 114.937C104.34 115.819 102.149 117.831 100.444 120.222C99.5898 121.425 98.8325 122.723 98.16 124.081C97.4892 125.44 96.8942 126.85 96.3066 128.283L96.3033 128.291C96.2168 128.502 95.9745 128.604 95.7627 128.516C95.5806 128.442 95.4809 128.252 95.5122 128.066Z" fill="#371A45"/>
<path d="M134.477 144.607C132.216 147.357 130.529 148.275 128.122 148.58C127.13 148.706 125.651 148.701 124.123 148.58C124.123 148.58 124.121 148.58 124.118 148.578C120.332 147.572 122.294 142.163 123.342 136.024C124.303 130.386 122.7 126.077 125.911 120.221C129.809 113.113 134.887 116.118 135.191 116.305C135.198 116.308 135.203 116.313 135.206 116.315C137.619 118.284 139.412 121.749 139.596 126.774C139.917 135.542 136.766 141.825 134.477 144.607Z" fill="#AFAFB2"/>
<path d="M28.9114 148.583H28.9089C27.4016 148.702 25.9422 148.704 24.964 148.58C22.5535 148.275 20.869 147.358 18.6085 144.608C16.32 141.825 13.1686 135.542 13.49 126.775C13.6746 121.72 15.4877 118.245 17.9237 116.281C17.9262 116.278 17.9286 116.279 17.9311 116.276C18.1437 116.142 23.2399 113.046 27.175 120.222C30.3865 126.078 28.7836 130.387 29.7445 136.026C30.7879 142.161 32.6923 147.572 28.9114 148.583Z" fill="#AFAFB2"/>
<g opacity="0.7">
<path d="M27.174 120.221C29.1395 123.805 29.301 126.81 29.3537 129.896C29.1411 127.775 28.6227 125.592 27.2803 123.142C23.2587 115.81 18.052 118.975 17.8345 119.111C17.832 119.114 17.8295 119.114 17.8271 119.116C15.6852 120.845 14.0131 123.718 13.4692 127.787C13.4692 127.454 13.4767 127.115 13.4898 126.774C13.6744 121.719 15.4875 118.244 17.9235 116.28C17.926 116.277 17.9284 116.277 17.9309 116.275C18.1427 116.142 23.2381 113.046 27.174 120.221Z" fill="white"/>
</g>
<path d="M29.5238 134.343C29.3746 132.797 29.3771 131.336 29.354 129.896C29.5007 131.387 29.4982 132.845 29.5238 134.343Z" fill="#AFAFB2"/>
<g opacity="0.35">
<path d="M28.9112 148.583H28.9087C27.4015 148.701 25.942 148.704 24.9638 148.58C22.5533 148.275 20.8688 147.357 18.6083 144.607C17.3335 143.058 15.7907 140.422 14.731 136.876C14.9032 137.111 15.0721 137.33 15.237 137.531C17.4983 140.28 19.1728 141.282 21.5924 141.503C25.9337 141.901 29.0406 137.848 29.5763 134.836C29.6191 135.225 29.6751 135.622 29.7435 136.023C30.7877 142.161 32.6922 147.572 28.9112 148.583Z" fill="#371A45"/>
</g>
<path d="M26.7406 150C26.0014 150 25.3356 149.965 24.7966 149.897C21.8999 149.53 19.9451 148.324 17.5816 145.45C14.7558 142.015 11.8475 135.292 12.1615 126.726C12.3437 121.739 14.0932 117.663 17.0888 115.247C17.1218 115.221 17.1556 115.196 17.191 115.172C17.2009 115.166 17.2108 115.159 17.2215 115.152C17.4679 114.997 19.7061 113.656 22.5279 114.384C24.8172 114.976 26.7728 116.725 28.3394 119.581C30.5958 123.696 30.6436 127.153 30.6897 130.497C30.7128 132.192 30.7375 133.946 31.0531 135.8C31.2303 136.841 31.4339 137.867 31.6308 138.858C32.6362 143.922 33.5856 148.706 29.255 149.864C29.1693 149.887 29.0811 149.901 28.9921 149.907C28.2059 149.969 27.4403 150 26.7406 150ZM18.6876 117.37C16.3422 119.304 14.9692 122.657 14.8168 126.823C14.4467 136.924 18.765 142.707 19.6344 143.764C21.7961 146.394 23.2341 147.023 25.1312 147.264C25.9734 147.37 27.2895 147.373 28.6723 147.27C30.2933 146.737 30.0041 144.31 29.025 139.377C28.8248 138.368 28.6179 137.325 28.4342 136.248C28.0831 134.19 28.0575 132.332 28.0328 130.535C27.9875 127.24 27.9479 124.394 26.0088 120.86C24.8114 118.676 23.4204 117.364 21.8735 116.959C20.2937 116.545 18.9562 117.22 18.6876 117.37Z" fill="#371A45"/>
<path d="M26.7382 149.496C26.022 149.496 25.3792 149.463 24.8592 149.397C22.1084 149.048 20.241 147.891 17.9706 145.13C15.2033 141.766 12.3569 135.17 12.6651 126.744C12.8422 121.905 14.5251 117.962 17.4045 115.639C17.4251 115.622 17.4473 115.606 17.4696 115.592C17.4761 115.587 17.4827 115.582 17.4893 115.578C17.7168 115.435 19.7861 114.197 22.3993 114.873C24.5486 115.428 26.3978 117.094 27.8952 119.825C30.0914 123.829 30.1384 127.222 30.1837 130.505C30.2076 132.22 30.2324 133.993 30.5546 135.885C30.7334 136.934 30.937 137.962 31.1347 138.957C32.0923 143.783 32.9972 148.342 29.1231 149.378C29.0687 149.392 29.0127 149.401 28.9567 149.405C28.1804 149.466 27.4255 149.496 26.7382 149.496ZM18.4008 116.953C15.9219 118.975 14.4698 122.471 14.3116 126.804C13.935 137.087 18.3538 143.002 19.2438 144.084C21.5126 146.843 23.0405 147.506 25.0669 147.763C25.9528 147.875 27.3315 147.877 28.7671 147.768C30.96 147.12 30.506 144.253 29.5179 139.278C29.3184 138.272 29.1116 137.232 28.9295 136.162C28.5858 134.144 28.5603 132.305 28.5355 130.527C28.491 127.305 28.449 124.261 26.4497 120.616C25.1798 118.3 23.6783 116.904 21.9864 116.467C20.138 115.99 18.6414 116.81 18.4008 116.953Z" fill="#371A45"/>
<path d="M28.9132 149.912C28.5844 149.912 28.2589 149.79 28.0084 149.559C27.4694 149.061 27.4356 148.221 27.9334 147.683C28.1749 147.422 28.4963 147.279 28.8251 147.258C30.8186 147.1 32.5656 146.766 33.501 146.365C34.2971 146.024 35.1566 145.534 36.1529 144.966C39.3068 143.167 43.6259 140.705 50.7115 140.387C50.737 140.386 50.7617 140.385 50.7864 140.386C50.9084 140.388 63.1092 140.529 76.5329 140.441C89.9756 140.528 102.178 140.388 102.299 140.386C102.324 140.386 102.349 140.386 102.374 140.387C109.456 140.704 113.775 143.166 116.929 144.964C117.926 145.532 118.787 146.023 119.582 146.364C120.517 146.765 122.252 147.098 124.223 147.254C124.954 147.313 125.5 147.952 125.441 148.683C125.383 149.414 124.748 149.959 124.012 149.901C122.935 149.816 120.244 149.537 118.535 148.804C117.6 148.405 116.634 147.854 115.611 147.271C112.535 145.518 108.71 143.337 102.291 143.041C101.523 143.05 89.6056 143.183 76.5313 143.096C63.4743 143.183 51.5595 143.05 50.7914 143.041C44.3692 143.337 40.5429 145.518 37.4682 147.272C36.4463 147.855 35.4813 148.404 34.5476 148.804C32.8656 149.527 30.2112 149.809 29.0797 149.901C29.0245 149.909 28.9685 149.912 28.9132 149.912Z" fill="#371A45"/>
<path d="M17.9308 117.603C17.4512 117.603 16.9872 117.343 16.7507 116.888C16.4367 116.284 16.632 115.551 17.1809 115.178C17.4034 115.025 17.6712 114.94 17.9415 114.94C18.675 114.94 19.27 115.535 19.27 116.267C19.27 116.762 18.9996 117.194 18.5983 117.422C18.5794 117.433 18.5612 117.444 18.5423 117.453C18.347 117.556 18.1376 117.603 17.9308 117.603Z" fill="#371A45"/>
<path d="M135.19 117.633C134.85 117.633 134.51 117.503 134.25 117.244L135.174 116.295L135.787 115.118C135.908 115.18 136.033 115.271 136.129 115.366C136.648 115.885 136.648 116.725 136.129 117.244C135.87 117.503 135.529 117.633 135.19 117.633Z" fill="#371A45"/>
<path d="M14.0421 123.579C13.6045 123.579 13.2403 123.235 13.2197 122.794C13.1983 122.339 13.5493 121.954 14.0042 121.933L28.0279 121.275C28.4861 121.253 28.8685 121.606 28.8899 122.059C28.9113 122.514 28.5603 122.899 28.1054 122.921L14.0817 123.578C14.0685 123.579 14.0553 123.579 14.0421 123.579Z" fill="#371A45"/>
<path d="M13.4788 129.746C13.0429 129.746 12.6786 129.404 12.6564 128.964C12.6333 128.51 12.9827 128.124 13.4376 128.1L29.257 127.296C29.7102 127.274 30.0984 127.622 30.1223 128.077C30.1454 128.531 29.7959 128.917 29.341 128.941L13.5217 129.745C13.5068 129.746 13.4928 129.746 13.4788 129.746Z" fill="#371A45"/>
<path d="M14.3758 136.411C13.9398 136.411 13.5756 136.069 13.5533 135.629C13.5303 135.175 13.8797 134.788 14.3346 134.765L29.5318 133.994C29.9949 133.978 30.3732 134.321 30.3971 134.774C30.4201 135.229 30.0707 135.615 29.6158 135.639L14.4186 136.41C14.4038 136.411 14.3898 136.411 14.3758 136.411Z" fill="#371A45"/>
<path d="M17.2819 143.543C16.8452 143.543 16.4809 143.199 16.4595 142.759C16.4372 142.304 16.7883 141.918 17.2432 141.897L30.8367 141.243C31.2883 141.227 31.6781 141.571 31.6995 142.026C31.7218 142.48 31.3707 142.867 30.9158 142.888L17.3223 143.542C17.3091 143.543 17.296 143.543 17.2819 143.543Z" fill="#371A45"/>
<g opacity="0.7">
<path d="M125.795 120.221C123.83 123.805 123.668 126.81 123.616 129.896C123.828 127.775 124.347 125.592 125.689 123.142C129.711 115.81 134.917 118.975 135.135 119.111C135.137 119.114 135.14 119.114 135.142 119.116C137.284 120.845 138.956 123.718 139.5 127.787C139.5 127.454 139.493 127.115 139.48 126.774C139.295 121.719 137.482 118.244 135.046 116.28C135.043 116.277 135.041 116.277 135.039 116.275C134.827 116.142 129.731 113.046 125.795 120.221Z" fill="white"/>
</g>
<g opacity="0.35">
<path d="M124.056 148.583H124.059C125.566 148.701 127.026 148.704 128.004 148.58C130.414 148.275 132.099 147.357 134.359 144.607C135.634 143.058 137.177 140.422 138.237 136.876C138.064 137.111 137.896 137.33 137.731 137.531C135.469 140.28 133.795 141.282 131.375 141.503C127.034 141.901 123.927 137.848 123.391 134.836C123.349 135.225 123.293 135.622 123.224 136.023C122.18 142.161 120.276 147.572 124.056 148.583Z" fill="#371A45"/>
</g>
<path d="M139.045 123.791C139.029 123.791 139.013 123.791 138.997 123.79L124.968 123.135C124.4 123.109 123.961 122.627 123.987 122.059C124.014 121.49 124.493 121.049 125.065 121.079L139.093 121.733C139.661 121.76 140.1 122.241 140.074 122.81C140.047 123.361 139.592 123.791 139.045 123.791Z" fill="#371A45"/>
<path d="M139.606 129.957C139.589 129.957 139.571 129.957 139.554 129.955L123.734 129.152C123.166 129.123 122.729 128.639 122.758 128.071C122.787 127.504 123.263 127.064 123.839 127.095L139.658 127.899C140.226 127.928 140.664 128.411 140.635 128.98C140.606 129.53 140.151 129.957 139.606 129.957Z" fill="#371A45"/>
<path d="M138.706 136.624C138.689 136.624 138.671 136.624 138.654 136.622L123.459 135.851C122.891 135.823 122.453 135.339 122.482 134.771C122.511 134.203 122.992 133.764 123.564 133.795L138.758 134.566C139.326 134.595 139.764 135.078 139.735 135.646C139.707 136.196 139.252 136.624 138.706 136.624Z" fill="#371A45"/>
<path d="M135.8 143.754C135.783 143.754 135.766 143.754 135.75 143.753L122.138 143.099C121.569 143.071 121.131 142.589 121.159 142.021C121.187 141.452 121.669 141.016 122.238 141.042L135.849 141.697C136.418 141.724 136.856 142.207 136.828 142.775C136.801 143.325 136.346 143.754 135.8 143.754Z" fill="#371A45"/>
<path d="M126.34 149.703C125.63 149.703 124.848 149.67 124.041 149.607C123.962 149.6 123.883 149.585 123.808 149.561C119.816 148.465 120.739 143.883 121.718 139.034C121.925 138.004 122.14 136.938 122.326 135.852C122.646 133.975 122.67 132.21 122.693 130.503C122.739 127.196 122.786 123.776 125.007 119.726C126.518 116.972 128.394 115.282 130.584 114.704C133.226 114.005 135.335 115.185 135.731 115.43C135.774 115.456 135.817 115.487 135.857 115.519C138.753 117.882 140.446 121.866 140.625 126.736C140.936 135.219 138.064 141.867 135.272 145.26C132.964 148.068 131.061 149.244 128.251 149.601C127.724 149.669 127.069 149.703 126.34 149.703ZM124.309 147.562C125.748 147.672 127.117 147.67 127.991 147.56C129.964 147.309 131.456 146.66 133.68 143.954C134.562 142.883 138.94 137.022 138.565 126.813C138.41 122.573 137.004 119.147 134.605 117.158C134.33 117.001 132.859 116.234 131.11 116.695C129.487 117.124 128.042 118.477 126.814 120.717C124.839 124.318 124.797 127.337 124.754 130.533C124.729 132.318 124.703 134.165 124.356 136.199C124.166 137.316 123.948 138.397 123.737 139.442C122.69 144.635 122.424 147.001 124.309 147.562Z" fill="#371A45"/>
<path d="M47.3448 143.094C47.133 143.094 46.9188 143.029 46.735 142.894C46.2768 142.557 46.1779 141.913 46.515 141.455C46.543 141.417 49.5427 137.152 48.6197 129.039C48.0404 123.944 45.9513 119.993 42.7373 117.915C40.6284 116.552 38.2699 116.184 36.0942 116.878C35.5512 117.052 34.9726 116.752 34.7996 116.211C34.6265 115.669 34.9257 115.09 35.4671 114.917C38.2006 114.045 41.2589 114.507 43.8564 116.187C47.5978 118.605 50.0165 123.087 50.6668 128.806C51.6878 137.782 48.3189 142.478 48.1747 142.674C47.9736 142.949 47.6613 143.094 47.3448 143.094Z" fill="#371A45"/>
<path d="M105.563 143.094C105.247 143.094 104.934 142.95 104.732 142.675C104.588 142.479 101.219 137.783 102.24 128.807C102.89 123.087 105.309 118.605 109.051 116.188C111.649 114.508 114.706 114.045 117.44 114.918C117.981 115.091 118.28 115.671 118.107 116.212C117.934 116.753 117.355 117.053 116.813 116.879C114.638 116.185 112.279 116.552 110.17 117.916C106.956 119.993 104.867 123.944 104.287 129.04C103.357 137.223 106.362 141.414 106.392 141.456C106.729 141.914 106.631 142.558 106.172 142.895C105.989 143.029 105.775 143.094 105.563 143.094Z" fill="#371A45"/>
<path d="M115.533 57.9367C115.074 57.9029 114.728 57.5035 114.761 57.0448L116.511 33.1002C116.545 32.6414 116.944 32.2964 117.404 32.3293C122.223 32.681 125.845 36.8704 125.493 41.6873L124.896 49.8528C124.545 54.6697 120.352 58.2884 115.533 57.9367Z" fill="white"/>
<path d="M116.177 58.1992C115.957 58.1992 115.737 58.1909 115.516 58.1753C114.926 58.1325 114.481 57.6178 114.524 57.0281L116.274 33.0843C116.295 32.7985 116.426 32.5383 116.642 32.3513C116.859 32.1644 117.138 32.0713 117.422 32.0936C119.817 32.2682 122 33.3643 123.569 35.1802C125.139 36.9961 125.907 39.3136 125.731 41.7068L125.135 49.8723C124.79 54.5888 120.838 58.1992 116.177 58.1992ZM115.55 57.6993C117.819 57.8673 120.014 57.1376 121.734 55.6528C123.455 54.1679 124.493 52.1016 124.659 49.8361L125.256 41.6706C125.421 39.405 124.695 37.2094 123.208 35.4907C121.722 33.7711 119.654 32.7335 117.387 32.5679C117.229 32.5589 117.075 32.6075 116.955 32.7112C116.834 32.815 116.762 32.9599 116.75 33.1181L115.001 57.0619C114.976 57.3896 115.223 57.6754 115.55 57.6993Z" fill="#371A45"/>
<g opacity="0.35">
<path d="M125.177 46.0239L124.897 49.8534C124.545 54.6679 120.352 58.2882 115.532 57.9382C115.073 57.9052 114.728 57.5033 114.761 57.0446L115.224 50.6794C115.332 50.9792 115.608 51.2007 115.945 51.2279L116.514 51.2675C120.322 51.5466 123.741 49.3428 125.177 46.0239Z" fill="#371A45"/>
</g>
<path d="M116.178 59.2881C115.932 59.2881 115.686 59.2791 115.437 59.2609C114.248 59.1745 113.351 58.1368 113.437 56.9476L115.187 33.0038C115.229 32.4281 115.493 31.9035 115.93 31.5255C116.368 31.1483 116.927 30.9639 117.502 31.0059C123.044 31.4102 127.224 36.2461 126.819 41.7845L126.222 49.9499C125.835 55.2404 121.404 59.2881 116.178 59.2881ZM116.124 56.633C116.141 56.633 116.159 56.633 116.175 56.633C120.024 56.633 123.287 53.6526 123.572 49.7564L124.169 41.5909C124.455 37.6782 121.633 34.2416 117.799 33.7063L116.124 56.633Z" fill="#371A45"/>
<path d="M38.3167 26.5578C38.7757 26.5915 39.121 26.991 39.088 27.4497L37.3385 51.3943C37.3047 51.853 36.905 52.1981 36.446 52.1651C31.6266 51.8135 28.0047 47.6241 28.3566 42.8072L28.9533 34.6417C29.3043 29.8256 33.4973 26.2061 38.3167 26.5578Z" fill="white"/>
<path d="M36.5076 52.4055C36.4812 52.4055 36.4548 52.4046 36.4276 52.4022C31.4847 52.0415 27.7565 47.7294 28.1174 42.7889L28.7141 34.6234C28.8888 32.2302 29.9856 30.0486 31.8028 28.4806C33.6199 26.9117 35.9397 26.1459 38.3338 26.3196C38.9238 26.3624 39.3688 26.8772 39.326 27.4668L37.5756 51.4115C37.555 51.6972 37.4239 51.9575 37.2072 52.1444C37.0102 52.3141 36.7647 52.4055 36.5076 52.4055ZM37.6662 26.7726C35.6258 26.7726 33.6751 27.4956 32.1159 28.8421C30.3952 30.327 29.3569 32.3933 29.1912 34.6589L28.5937 42.8243C28.2517 47.5021 31.7822 51.5852 36.4622 51.927C36.6229 51.9393 36.7746 51.8883 36.8949 51.7837C37.0152 51.6799 37.0877 51.535 37.0993 51.3769L38.8496 27.4331C38.8735 27.1061 38.6263 26.8203 38.2991 26.7965C38.0873 26.78 37.8764 26.7726 37.6662 26.7726Z" fill="#371A45"/>
<g opacity="0.35">
<path d="M37.8257 44.7517L37.3395 51.3944C37.3065 51.8531 36.9044 52.1982 36.4454 52.1653C33.9162 51.9791 31.7134 50.7381 30.2448 48.9007C28.9189 47.2421 28.1904 45.0959 28.3577 42.8089L28.609 39.3682C29.7562 42.4869 32.6512 44.8118 36.1849 45.0704L37.0593 45.1338C37.3774 45.1569 37.6617 45.0004 37.8257 44.7517Z" fill="#371A45"/>
</g>
<path d="M36.5093 53.4944C36.4557 53.4944 36.4021 53.4927 36.3477 53.4886C30.8057 53.0842 26.6259 48.2492 27.0305 42.71L27.6271 34.5445C28.0318 29.0054 32.8733 24.8259 38.4129 25.2335C39.6021 25.32 40.4987 26.3577 40.4122 27.546L38.6618 51.4907C38.6198 52.0663 38.3561 52.5909 37.9185 52.9681C37.5237 53.3107 37.0276 53.4944 36.5093 53.4944ZM37.6737 27.8623C33.8252 27.8623 30.5617 30.8427 30.2774 34.7389L29.6808 42.9044C29.3948 46.817 32.2165 50.2537 36.0502 50.789L37.7256 27.8631C37.7083 27.8623 37.691 27.8623 37.6737 27.8623Z" fill="#371A45"/>
<path d="M76.9298 83.1598C99.5401 83.1598 117.869 64.8428 117.869 42.2476C117.869 19.6525 99.5401 1.33545 76.9298 1.33545C54.3195 1.33545 35.9902 19.6525 35.9902 42.2476C35.9902 64.8428 54.3195 83.1598 76.9298 83.1598Z" fill="white"/>
<path d="M77.016 83.4053C75.0283 83.4053 73.0274 83.2621 71.0249 82.9722C60.1393 81.3967 50.5196 75.678 43.9384 66.8718C37.3563 58.0656 34.6006 47.2245 36.1779 36.3471C37.7552 25.4696 43.4769 15.8556 52.289 9.27871C61.1011 2.70104 71.9478 -0.0545511 82.8342 1.52254C93.7197 3.09881 103.339 8.8167 109.921 17.6229C116.503 26.4291 119.258 37.2702 117.681 48.1477C116.104 59.0251 110.382 68.6392 101.57 75.216C94.3798 80.5839 85.8322 83.4053 77.016 83.4053ZM76.8438 1.56619C68.1298 1.56619 59.682 4.35472 52.5741 9.66001C43.8642 16.1611 38.2085 25.6632 36.6501 36.4146C35.0909 47.1668 37.8154 57.882 44.3208 66.5861C50.8262 75.2901 60.3347 80.9421 71.0933 82.4995C81.8527 84.0568 92.5742 81.335 101.285 74.8339C109.995 68.3328 115.651 58.8307 117.209 48.0793C118.768 37.3271 116.044 26.6119 109.538 17.9078C103.033 9.20376 93.5252 3.55258 82.7658 1.99443C80.7863 1.70784 78.8085 1.56619 76.8438 1.56619Z" fill="#371A45"/>
<g opacity="0.35">
<path d="M117.87 42.4529C117.863 44.3207 117.722 46.2107 117.447 48.1148C114.201 70.4749 93.4348 85.9757 71.0589 82.7383C48.6838 79.4952 33.1726 58.7426 36.4121 36.3817C36.5053 35.7385 36.6132 35.097 36.736 34.4678C36.6099 54.573 51.3324 72.1978 71.8063 75.1633C93.5386 78.3076 113.75 63.7778 117.87 42.4529Z" fill="#371A45"/>
</g>
<path d="M77.0189 84.4951C74.9777 84.4951 72.9248 84.3477 70.8687 84.0504C59.6956 82.4321 49.8212 76.5635 43.0653 67.5234C36.3093 58.4842 33.4802 47.3564 35.0987 36.1899C36.7181 25.0243 42.5906 15.1566 51.6367 8.40511C60.6829 1.65367 71.8172 -1.17274 82.9912 0.444709C94.1643 2.06298 104.039 7.93157 110.795 16.9716C117.551 26.0109 120.38 37.1387 118.761 48.3051C117.142 59.4708 111.269 69.3385 102.223 76.09C94.8417 81.5987 86.0684 84.4951 77.0189 84.4951ZM76.8467 2.65593C68.3659 2.65593 60.1447 5.37034 53.2272 10.5332C44.7506 16.8605 39.2464 26.1073 37.7293 36.5712C36.2121 47.0352 38.8632 57.4638 45.1948 65.9348C51.5263 74.4058 60.7793 79.9063 71.2503 81.4224C81.7204 82.9386 92.156 80.2892 100.633 73.9619C109.11 67.6346 114.614 58.3878 116.131 47.9238C117.649 37.4599 114.997 27.0313 108.666 18.5603C102.334 10.0893 93.0814 4.5888 82.6105 3.07265C80.6837 2.79346 78.7586 2.65593 76.8467 2.65593Z" fill="#371A45"/>
<path d="M117.166 49.1352C116.137 57.075 112.603 64.1122 107.402 69.6399C103.502 73.784 88.872 80.0273 72.0678 78.0055C56.4858 76.1311 43.3999 66.0056 40.6862 61.0058C37.0659 54.3359 35.4416 46.6316 36.4709 38.6918C39.1937 17.6815 58.3853 11.3089 80.6698 14.1929C102.954 17.077 119.889 28.1249 117.166 49.1352Z" fill="#371A45"/>
<g opacity="0.5">
<path d="M109.424 46.1779C110.637 42.3678 109.381 38.5669 106.618 37.6885C103.855 36.81 100.632 39.1866 99.4192 42.9967C98.2061 46.8068 99.4622 50.6076 102.225 51.4861C104.988 52.3645 108.211 49.988 109.424 46.1779Z" fill="white"/>
</g>
<g opacity="0.5">
<path d="M98.7796 59.2161C99.5729 57.5609 99.0637 55.6675 97.6422 54.987C96.2207 54.3066 94.4252 55.0968 93.6318 56.752C92.8385 58.4072 93.3477 60.3006 94.7692 60.9811C96.1907 61.6615 97.9862 60.8713 98.7796 59.2161Z" fill="white"/>
</g>
<g opacity="0.35">
<path d="M111.858 28.5195C116.181 33.8611 118.257 40.6957 117.165 49.1346C116.136 57.076 112.6 64.1124 107.402 69.6409C103.502 73.785 88.8705 80.0275 72.0655 78.0073C66.132 77.2949 60.5619 75.3843 55.7871 73.0141C76.4967 75.0574 94.3285 67.3786 99.1643 62.2388C105.766 55.223 110.251 46.29 111.555 36.2156C111.905 33.5226 111.996 30.9581 111.858 28.5195Z" fill="#111A28"/>
</g>
<path d="M116.084 31.4974C115.767 31.4974 115.451 31.3772 115.21 31.1359C115.188 31.1136 115.161 31.0848 115.141 31.0609C115.082 30.9926 115.031 30.9185 114.989 30.8394C109.422 20.4265 96.9719 13.2567 80.8319 11.1682C64.603 9.06811 50.7276 13.0113 42.7619 21.9854C42.7454 22.0036 42.7289 22.0217 42.7108 22.039C42.6886 22.0612 42.6597 22.0884 42.6358 22.1082C42.1175 22.552 41.3379 22.4919 40.8929 21.9739C40.4759 21.488 40.5031 20.7715 40.9365 20.3178C49.4577 10.7407 64.1126 6.51264 81.1484 8.71728C98.0613 10.9063 111.174 18.5224 117.138 29.6173C117.429 30.0933 117.369 30.7241 116.957 31.1359C116.716 31.3764 116.399 31.4966 116.084 31.4974Z" fill="#371A45"/>
<g opacity="0.5">
<path d="M43.9117 52.3635C43.9117 52.3635 40.0863 30.794 52.334 23.9808C64.5818 17.1676 80.6599 19.2824 80.1498 20.2641C80.1498 20.2641 61.7881 22.267 52.9991 35.4314C46.2225 45.5824 43.9117 52.3635 43.9117 52.3635Z" fill="white"/>
</g>
</svg>
