<svg width="359" height="588" viewBox="0 0 359 588" fill="none" xmlns="http://www.w3.org/2000/svg">
<path d="M277.474 124.834C277.474 191.822 229.602 246.111 149.713 246.111C144.484 246.087 139.397 245.838 134.477 245.374C124.268 244.458 114.724 242.675 105.858 240.131C50.7484 224.329 21.9517 178.921 21.9517 124.834C21.9517 101.542 28.8805 79.7597 40.896 61.2828C44.0811 56.3723 47.6346 51.6996 51.5091 47.2885C53.9098 44.5419 56.4294 41.9023 59.0797 39.3817C62.9184 35.6958 67.0187 32.2596 71.3329 29.0731C92.975 13.0931 120.179 3.55743 149.713 3.55743C220.285 3.55743 277.474 57.8704 277.474 124.834Z" fill="white"/>
<g opacity="0.2">
<path d="M137.764 115.929L124.928 133.883C124.928 133.883 99.2574 117.855 100.279 116.595C101.302 115.334 67.1328 98.1177 67.1328 98.1177L42.781 64.6239L42.2343 61.2829C45.4194 56.3723 48.9729 51.6996 52.8474 47.2885C55.2481 44.5419 57.7676 41.9023 60.4179 39.3817C75.4878 46.7653 94.1231 76.0977 103.536 81.567C112.949 87.0364 118.142 81.567 118.142 81.567C130.182 99.1878 137.764 115.929 137.764 115.929Z" fill="#371A45"/>
</g>
<g opacity="0.2">
<path d="M277.474 124.834C277.474 191.822 229.602 246.111 149.713 246.111C144.484 246.087 139.397 245.838 134.477 245.374C124.268 244.458 114.724 242.675 105.858 240.131C50.7484 224.329 21.9517 178.921 21.9517 124.834C21.9517 117.26 22.6885 109.829 24.0909 102.636C31.4476 142.859 70.76 204.237 144.367 207.246C219.916 210.332 286.602 150.861 263.414 69.475C272.399 86.0733 277.474 104.895 277.474 124.834Z" fill="#371A45"/>
</g>
<path d="M105.863 238.692C50.7532 222.89 21.9564 177.495 21.9564 123.408C21.9564 93.9206 33.0449 66.8711 51.5138 45.8498C68.0931 58.8573 96.0579 86.1803 112.209 131.719C126.388 171.692 116.405 212.201 105.863 238.692Z" fill="#371A45"/>
<path d="M149.718 249.685C144.424 249.65 139.197 249.395 134.156 248.934C123.868 247.999 114.016 246.19 104.876 243.555C50.7247 228.027 18.391 183.649 18.391 124.844C18.391 95.6565 29.2037 67.2777 48.835 44.9319C54.8629 38.0357 61.7228 31.7317 69.2197 26.2006C92.4331 9.06009 120.27 0 149.715 0C222.129 0 281.042 56.0038 281.042 124.844C281.042 159.227 268.625 190.581 246.075 213.122C222.148 237.042 188.828 249.685 149.718 249.685ZM149.718 7.13155C121.805 7.13155 95.4328 15.7089 73.4555 31.9386C66.3721 37.163 59.895 43.1175 54.1998 49.6308C35.7047 70.6806 25.5242 97.3877 25.5242 124.841C25.5242 180.279 55.9255 222.096 106.847 236.697C115.558 239.208 124.964 240.934 134.805 241.828C139.649 242.273 144.674 242.516 149.741 242.551C222.842 242.551 273.913 194.148 273.913 124.841C273.913 59.9369 218.2 7.13155 149.718 7.13155Z" fill="#371A45"/>
<path d="M134.484 248.948C134.377 248.948 134.267 248.943 134.16 248.934C123.871 247.999 114.018 246.19 104.876 243.555C103.909 243.277 103.106 242.601 102.661 241.698C102.217 240.794 102.179 239.745 102.549 238.808C113.006 212.532 122.585 173.076 108.848 134.346C92.7967 89.0862 64.656 62.1318 49.3127 50.0921C48.5426 49.4881 48.0553 48.594 47.9626 47.619C47.8699 46.644 48.1837 45.6762 48.8278 44.939C54.8629 38.0358 61.7228 31.7317 69.2197 26.2006C70.5342 25.2304 72.3383 25.2779 73.6005 26.3147C92.3047 41.6883 126.138 75.6934 142.58 130.696C156.711 177.961 147.792 219.83 137.823 246.63C137.3 248.03 135.96 248.948 134.484 248.948ZM110.617 237.724C117.424 239.472 124.615 240.756 132.078 241.557C141.268 215.716 148.869 176.622 135.748 132.734C120.462 81.5955 89.6449 49.2432 71.2259 33.6199C66.0037 37.6577 61.1333 42.0973 56.6884 46.8676C73.0918 60.3816 99.9014 87.7854 115.568 131.956C129.409 170.974 120.918 210.38 110.617 237.724Z" fill="#371A45"/>
<g opacity="0.6">
<path d="M45.3148 88.9054C37.4756 109.981 27.8085 152.471 57.877 188.719C60.3657 191.717 65.0982 188.945 63.672 185.318C55.8875 165.529 48.1267 131.79 65.797 98.1201C68.4211 93.1216 67.0021 86.9555 62.4074 83.6739C56.3724 79.3602 47.9009 81.9522 45.3148 88.9054Z" fill="white"/>
</g>
<path d="M129.941 196.43C127.66 196.43 125.38 196.205 123.122 195.755C121.192 195.37 119.937 193.491 120.324 191.558C120.712 189.625 122.587 188.379 124.517 188.757C127.736 189.399 131.009 189.468 134.248 188.957C152.691 186.036 164.742 164.96 161.11 141.97C159.33 130.706 154.098 120.709 146.378 113.822C138.857 107.116 129.872 104.194 121.073 105.582C117.845 106.091 114.767 107.161 111.922 108.759C110.206 109.725 108.031 109.114 107.068 107.397C106.103 105.68 106.714 103.504 108.43 102.541C112.017 100.524 115.896 99.1784 119.961 98.5363C130.914 96.8028 141.978 100.341 151.125 108.5C160.069 116.478 166.119 127.971 168.156 140.857C172.401 167.731 157.688 192.471 135.361 196.005C133.559 196.288 131.75 196.43 129.941 196.43Z" fill="#2C0052"/>
<path d="M134.809 192.457C155.23 189.226 168.585 166.364 164.638 141.394C160.691 116.423 140.936 98.7997 120.514 102.031C100.093 105.262 86.7376 128.123 90.6849 153.094C94.6321 178.064 114.387 195.688 134.809 192.457Z" fill="white"/>
<g opacity="0.2">
<path d="M134.809 192.488C114.379 195.71 94.6269 178.089 90.6812 153.12C90.1939 150.017 89.9681 146.938 90.0038 143.941C98.3706 158.126 112.692 166.556 127.346 164.237C145.232 161.408 157.688 143.513 157.854 122.337C161.146 127.914 163.523 134.37 164.64 141.421C168.586 166.39 155.227 189.254 134.809 192.488Z" fill="#371A45"/>
</g>
<path d="M129.906 196.438C120.785 196.438 111.819 192.845 104.189 186.039C95.2426 178.058 89.1956 166.563 87.1586 153.677C82.9109 126.803 97.6243 102.065 119.956 98.5339C142.28 94.9931 163.91 113.993 168.158 140.867C172.406 167.74 157.692 192.478 135.361 196.01C133.545 196.295 131.722 196.438 129.906 196.438ZM125.359 105.24C123.937 105.24 122.506 105.349 121.071 105.577C102.623 108.495 90.5695 129.571 94.2039 152.562C95.9842 163.828 101.216 173.825 108.939 180.714C116.459 187.425 125.449 190.352 134.248 188.961C152.696 186.044 164.749 164.967 161.115 141.98C157.766 120.778 142.225 105.24 125.359 105.24Z" fill="#371A45"/>
<path d="M122.927 191.484C115.247 191.484 107.667 188.134 101.211 181.806C93.8806 174.62 88.8486 164.378 87.0445 152.966C83.2604 129.015 95.0524 107.175 113.336 104.284C122.395 102.848 131.577 106.172 139.19 113.636C146.521 120.823 151.553 131.065 153.357 142.477C157.141 166.428 145.346 188.267 127.065 191.159C125.687 191.377 124.303 191.484 122.927 191.484ZM117.429 111.094C116.433 111.094 115.437 111.171 114.448 111.327C100.051 113.606 90.9165 131.785 94.0874 151.851C95.6538 161.76 99.9561 170.589 106.2 176.71C112.164 182.555 119.176 185.183 125.95 184.113C140.348 181.834 149.482 163.655 146.311 143.589C144.745 133.68 140.443 124.851 134.198 118.73C129.107 113.741 123.25 111.094 117.429 111.094Z" fill="#371A45"/>
<path d="M273.457 563.619C246.669 551.955 262.357 514.858 262.357 514.858C228.628 488.189 222.876 446.052 222.876 446.052C214.378 456.217 203.753 461.794 203.753 461.794C203.753 461.794 233.239 494.895 237.993 516.713C242.735 538.531 189.004 588.742 161.8 577.197C136.45 566.437 152.862 535.535 152.862 535.535C152.862 535.535 126.3 500.174 122.081 471.056C117.862 441.938 132.813 386.638 132.813 386.638L123.091 345.511C123.091 345.511 102.875 354.702 79.9137 346.664C56.9523 338.615 38.2576 302.79 38.2576 302.79C22.9857 308.248 13.1689 292.553 13.1689 292.553C2.44882 292.553 2.17545 281.353 7.89202 270.985C10.7206 265.872 15.011 260.962 20.2284 257.704C36.0114 247.847 58.7113 252.627 58.7113 252.627C58.7113 252.627 60.7317 241.189 71.2854 245.802C81.8391 250.415 81.6964 265.016 81.6964 265.016C89.4691 270.771 97.8716 278.654 97.8716 278.654C131.921 236.35 150.89 230.821 192.355 217.682L221.984 212.225C243.258 208.301 264.128 220.774 270.747 241.379C281.717 275.467 297.643 324.323 305.142 344.262C308.838 354.071 309.931 362.668 309.658 369.873C309.076 386.234 301.529 395.448 301.529 395.448C301.529 395.448 301.184 404.056 301.897 414.912C302.527 424.721 304.013 436.373 307.388 445.124C313.984 462.234 340.25 476.264 347.654 496.203C348.236 497.761 348.7 499.354 349.032 500.983C353.596 523.514 300.483 575.39 273.457 563.619Z" fill="white"/>
<path d="M266.93 388.369C249.452 388.369 233.926 376.508 229.462 359.377L202.543 256.208C197.178 235.627 209.527 214.434 230.068 208.96L261.057 200.718L261.392 200.694C279.554 199.372 296.376 211.155 301.384 228.692L330.668 331.171C333.549 341.256 332.289 351.831 327.122 360.951C321.956 370.068 313.537 376.577 303.416 379.28L269.763 388.264L269.412 388.288C268.582 388.345 267.752 388.369 266.93 388.369ZM262.231 207.79L231.901 215.859C215.139 220.322 205.063 237.617 209.441 254.41L236.36 357.579C240.146 372.108 253.676 381.96 268.613 381.195L301.576 372.394C309.834 370.187 316.703 364.877 320.918 357.439C325.134 349.998 326.164 341.366 323.813 333.136L294.529 230.657C290.471 216.451 276.916 206.884 262.231 207.79Z" fill="#2C0052"/>
<path d="M170.754 582.448C166.998 582.448 163.523 581.803 160.412 580.481C152.996 577.333 148.028 572.327 145.646 565.597C141.56 554.066 146.483 540.926 148.724 535.923C143.236 528.287 122.366 497.851 118.558 471.567C114.527 443.74 127.165 394.062 129.136 386.581L120.557 350.264C113.241 352.652 96.8733 356.383 78.7372 350.026C58.1527 342.812 41.3714 315.579 36.5034 306.999C24.7969 309.537 15.5078 301.811 11.215 296.013C6.15212 295.426 2.55103 292.503 1.2033 287.797C-1.64667 277.845 6.52292 262.063 18.3435 254.679C31.6996 246.337 49.1607 247.621 56.2678 248.606C57.1877 246.482 58.8326 243.888 61.6825 242.361C63.8622 241.191 67.5441 240.276 72.7139 242.535C82.9182 246.996 84.8293 258.603 85.1858 263.18C89.9041 266.778 94.6104 270.885 97.4937 273.477C130.258 233.615 150.331 227.254 189.408 214.874L191.274 214.282C191.417 214.237 191.559 214.201 191.704 214.175L221.338 208.718C244.294 204.485 266.997 218.061 274.146 240.285C285.755 276.373 301.134 323.486 308.477 343.004C319.675 372.767 308.287 392.064 305.061 396.668C304.933 402.261 304.69 428.191 310.716 443.845C313.587 451.302 320.892 458.441 328.624 465.996C339.018 476.152 349.764 486.656 352.524 500.272C355.476 514.844 338.968 537.073 321.139 551.501C312.254 558.689 289.689 574.577 272.038 566.893C249.635 557.134 252.711 530.67 258.085 515.99C233.154 495.164 223.845 466.65 220.732 453.566C216.425 457.716 212.158 460.776 209.222 462.674C216.848 471.693 237.42 497.337 241.473 515.962C244.482 529.785 229.305 549.67 212.93 563.245C197.861 575.735 182.855 582.448 170.754 582.448ZM123.093 341.946C123.633 341.946 124.173 342.067 124.669 342.312C125.625 342.783 126.321 343.653 126.566 344.69L136.278 385.813C136.414 386.388 136.404 386.992 136.25 387.563C136.103 388.11 121.548 442.499 125.613 470.542C129.649 498.403 155.449 533.052 155.71 533.397C156.54 534.503 156.656 535.991 156.007 537.211C155.933 537.354 148.353 551.938 152.373 563.236C154.087 568.056 157.628 571.549 163.195 573.913C173.673 578.367 190.986 572.168 208.381 557.748C225.231 543.779 236.462 526.465 234.506 517.477C230.009 496.814 201.378 464.486 201.091 464.162C200.361 463.342 200.047 462.231 200.245 461.149C200.442 460.067 201.126 459.14 202.099 458.629C202.196 458.579 212.236 453.226 220.142 443.764C221.048 442.68 222.51 442.233 223.864 442.625C225.222 443.015 226.22 444.171 226.41 445.569C226.467 445.973 232.426 486.644 264.57 512.067C265.829 513.061 266.267 514.777 265.642 516.254C265.062 517.633 251.665 550.236 274.886 560.349C284.643 564.603 300.26 559.217 316.656 545.953C334.89 531.2 347.578 511.755 345.536 501.687C343.214 490.223 333.264 480.501 323.644 471.099C315.339 462.983 307.495 455.316 304.065 446.408C296.782 427.496 297.918 396.609 297.968 395.303C297.999 394.528 298.282 393.784 298.774 393.184C299.347 392.471 312.931 375.086 301.805 345.518C294.41 325.866 278.991 278.635 267.358 242.471C261.301 223.646 242.074 212.154 222.628 215.733L193.214 221.152L191.559 221.675C151.695 234.305 133.502 240.069 100.653 280.894C100.03 281.667 99.1148 282.147 98.1236 282.216C97.1419 282.287 96.1602 281.94 95.4352 281.26C95.3521 281.184 87.085 273.446 79.5762 267.889C78.6587 267.209 78.1215 266.129 78.131 264.988C78.131 264.876 78.0835 252.67 69.8545 249.072C67.8198 248.18 66.2106 248.037 65.0673 248.639C63.2846 249.581 62.3932 252.368 62.2221 253.271C62.0438 254.213 61.49 255.055 60.6937 255.585C59.895 256.118 58.9157 256.315 57.9792 256.12C57.7677 256.077 36.4654 251.773 22.1157 260.733C12.4083 266.795 6.2686 279.603 8.0537 285.833C8.47442 287.305 9.43708 288.991 13.1641 288.991C14.393 288.991 15.534 289.623 16.1852 290.665C16.5228 291.195 24.7114 303.841 37.0549 299.435C38.7259 298.84 40.5894 299.566 41.4142 301.142C41.5949 301.49 59.7429 335.813 81.0903 343.297C102.338 350.747 121.434 342.35 121.625 342.262C122.093 342.051 122.594 341.946 123.093 341.946Z" fill="#371A45"/>
<path d="M223.303 449.298C222.524 449.298 221.737 449.043 221.081 448.518C219.543 447.288 219.291 445.043 220.518 443.505C220.591 443.412 227.962 434.136 232.108 425.644C232.657 424.519 233.757 423.765 235.003 423.656C235.438 423.618 278.805 419.525 299.185 392.54C300.371 390.968 302.606 390.657 304.179 391.846C305.75 393.035 306.062 395.27 304.876 396.842C284.94 423.242 246.861 429.415 237.617 430.55C233.075 439.174 226.393 447.583 226.092 447.959C225.388 448.841 224.349 449.298 223.303 449.298Z" fill="#371A45"/>
<path d="M252.533 508.854C252.11 508.854 251.68 508.778 251.261 508.616C249.424 507.915 248.502 505.86 249.2 504.019C249.825 502.376 265.076 463.663 315.118 455.197C317.055 454.867 318.9 456.177 319.228 458.12C319.556 460.063 318.248 461.903 316.306 462.231C270.422 469.995 256.436 505.073 255.863 506.562C255.321 507.981 253.969 508.854 252.533 508.854Z" fill="#371A45"/>
<path d="M139.178 518.004C138.484 518.004 137.783 517.802 137.167 517.379C135.544 516.266 135.128 514.047 136.24 512.423C137.552 510.502 168.914 465.453 212.431 469.563C214.392 469.748 215.83 471.486 215.647 473.448C215.462 475.41 213.717 476.873 211.763 476.666C172.456 472.975 142.423 516.024 142.123 516.456C141.429 517.462 140.314 518.004 139.178 518.004Z" fill="#371A45"/>
<g opacity="0.2">
<path d="M212.344 559.056C231.642 543.355 241.747 523.813 234.915 515.407C228.082 507.001 206.898 512.915 187.6 528.616C168.302 544.316 158.196 563.859 165.029 572.264C171.862 580.67 193.045 574.756 212.344 559.056Z" fill="#2C0052"/>
</g>
<path d="M175.113 579.684C169.603 579.684 165.135 578.013 162.301 574.529C158.047 569.295 158.432 561.134 163.388 551.551C167.871 542.88 175.686 533.759 185.391 525.861C195.096 517.964 205.617 512.171 215.015 509.546C225.405 506.65 233.467 507.931 237.722 513.168C241.977 518.401 241.592 526.563 236.636 536.146C232.153 544.816 224.337 553.94 214.632 561.835C200.444 573.38 185.814 579.682 175.113 579.684ZM224.984 515.17C222.652 515.17 219.926 515.581 216.933 516.416C208.457 518.782 198.854 524.102 189.891 531.392C180.927 538.683 173.765 547.006 169.722 554.825C166.254 561.531 165.548 567.212 167.835 570.025C172.622 575.915 191.172 571.725 210.137 556.299C219.101 549.008 226.263 540.686 230.306 532.867C233.774 526.161 234.48 520.48 232.193 517.667C230.846 516.012 228.316 515.17 224.984 515.17Z" fill="#371A45"/>
<path d="M199.384 571.628C198.502 571.628 197.618 571.302 196.929 570.646L170.723 545.713C169.297 544.355 169.24 542.096 170.597 540.669C171.954 539.24 174.212 539.185 175.638 540.543L201.844 565.476C203.27 566.834 203.328 569.093 201.97 570.52C201.267 571.257 200.325 571.628 199.384 571.628Z" fill="#371A45"/>
<path d="M214.751 560.653C213.869 560.653 212.985 560.328 212.296 559.671L183.677 532.455C182.251 531.098 182.192 528.838 183.549 527.412C184.906 525.985 187.162 525.925 188.59 527.283L217.209 554.499C218.635 555.857 218.695 558.116 217.337 559.543C216.634 560.282 215.695 560.653 214.751 560.653Z" fill="#371A45"/>
<path d="M226.553 548.514C225.671 548.514 224.787 548.188 224.095 547.532L197.758 522.468C196.332 521.11 196.275 518.851 197.632 517.424C198.99 515.995 201.248 515.94 202.674 517.298L229.01 542.362C230.437 543.72 230.494 545.979 229.136 547.406C228.435 548.143 227.494 548.514 226.553 548.514Z" fill="#371A45"/>
<path d="M234.92 534.971C234.038 534.971 233.154 534.645 232.462 533.989L213.197 515.655C211.77 514.297 211.713 512.038 213.071 510.611C214.428 509.182 216.686 509.127 218.112 510.485L237.377 528.819C238.804 530.177 238.861 532.436 237.503 533.863C236.802 534.6 235.861 534.971 234.92 534.971Z" fill="#371A45"/>
<path d="M184.207 578.239C183.323 578.239 182.441 577.913 181.75 577.254L162.591 559.015C161.165 557.657 161.108 555.398 162.468 553.971C163.825 552.545 166.083 552.487 167.509 553.848L186.667 572.087C188.094 573.445 188.151 575.704 186.791 577.13C186.09 577.868 185.149 578.239 184.207 578.239Z" fill="#371A45"/>
<g opacity="0.2">
<path d="M325.68 543.797C343.772 526.718 352.413 506.484 344.98 498.604C337.547 490.724 316.855 498.181 298.763 515.26C280.671 532.34 272.03 552.574 279.463 560.454C286.896 568.334 307.588 560.877 325.68 543.797Z" fill="#2C0052"/>
</g>
<path d="M288.161 567.219C283.495 567.219 279.599 565.84 276.873 562.951C272.245 558.045 272.029 549.876 276.267 539.956C280.101 530.979 287.222 521.305 296.321 512.716C305.42 504.127 315.486 497.575 324.666 494.267C334.816 490.61 342.952 491.3 347.58 496.208C352.208 501.114 352.424 509.282 348.186 519.203C344.352 528.18 337.231 537.853 328.129 546.443C314.034 559.747 299.016 567.219 288.161 567.219ZM336.339 499.092C333.734 499.092 330.575 499.72 327.084 500.978C318.805 503.962 309.618 509.974 301.215 517.905C292.813 525.835 286.281 534.662 282.825 542.759C279.858 549.701 279.573 555.42 282.059 558.057C287.27 563.576 305.458 558.035 323.238 541.256C331.64 533.326 338.172 524.499 341.63 516.402C344.597 509.46 344.882 503.741 342.396 501.104C341.131 499.763 339.03 499.092 336.339 499.092Z" fill="#371A45"/>
<path d="M313.376 557.341C312.582 557.341 311.781 557.077 311.118 556.532L283.15 533.594C281.627 532.346 281.406 530.096 282.654 528.575C283.902 527.053 286.148 526.829 287.671 528.078L315.639 551.016C317.162 552.264 317.383 554.514 316.135 556.035C315.432 556.896 314.41 557.341 313.376 557.341Z" fill="#371A45"/>
<path d="M327.897 545.266C327.103 545.266 326.302 545.002 325.638 544.457L295.097 519.419C293.573 518.171 293.35 515.924 294.6 514.399C295.846 512.875 298.094 512.652 299.618 513.902L330.159 538.94C331.683 540.189 331.906 542.436 330.656 543.96C329.95 544.818 328.928 545.266 327.897 545.266Z" fill="#371A45"/>
<path d="M338.773 532.291C337.98 532.291 337.179 532.027 336.515 531.483L308.408 508.424C306.884 507.175 306.663 504.928 307.911 503.404C309.159 501.879 311.405 501.656 312.929 502.909L341.036 525.968C342.56 527.217 342.781 529.464 341.533 530.988C340.827 531.847 339.805 532.291 338.773 532.291Z" fill="#371A45"/>
<path d="M346.123 518.169C345.329 518.169 344.528 517.905 343.865 517.36L323.304 500.493C321.781 499.245 321.56 496.997 322.807 495.473C324.055 493.949 326.302 493.728 327.825 494.979L348.386 511.846C349.91 513.094 350.131 515.341 348.883 516.865C348.177 517.724 347.152 518.169 346.123 518.169Z" fill="#371A45"/>
<path d="M298.727 565.05C297.93 565.05 297.132 564.786 296.468 564.242L276.022 547.46C274.501 546.212 274.277 543.962 275.528 542.441C276.775 540.916 279.022 540.695 280.545 541.946L300.992 558.727C302.513 559.976 302.737 562.225 301.486 563.747C300.78 564.606 299.758 565.05 298.727 565.05Z" fill="#371A45"/>
<path d="M262.354 518.425C261.877 518.425 261.389 518.328 260.923 518.123C259.126 517.331 258.304 515.244 259.088 513.441C259.205 513.177 262.003 506.861 269.217 500.258C270.669 498.926 272.925 499.026 274.253 500.481C275.582 501.934 275.482 504.191 274.03 505.52C268.009 511.035 265.642 516.252 265.62 516.304C265.028 517.631 263.721 518.425 262.354 518.425Z" fill="#371A45"/>
<path d="M152.846 539.47C152.344 539.47 151.833 539.363 151.348 539.138C149.568 538.308 148.791 536.201 149.611 534.417C149.744 534.127 152.946 527.298 160.034 522.444C161.657 521.331 163.877 521.747 164.99 523.374C166.102 525 165.686 527.219 164.06 528.332C158.653 532.034 156.107 537.361 156.081 537.414C155.475 538.71 154.186 539.47 152.846 539.47Z" fill="#371A45"/>
<path d="M123.203 349.52C121.867 349.52 120.588 348.766 119.98 347.48C119.138 345.701 119.894 343.575 121.672 342.731C121.75 342.693 129.628 338.909 136.704 332.541C145.644 324.649 150.388 315.389 150.835 304.995C150.918 303.026 152.57 301.478 154.55 301.582C156.518 301.666 158.044 303.33 157.959 305.299C157.436 317.534 151.726 328.793 141.448 337.868C133.595 344.938 125.088 349.009 124.729 349.178C124.234 349.408 123.716 349.52 123.203 349.52Z" fill="#371A45"/>
<path d="M91.2471 295.323C90.9809 295.323 90.7099 295.293 90.4389 295.231C88.5207 294.784 87.3251 292.869 87.772 290.95C89.481 283.581 95.6064 274.996 95.8655 274.635C97.0136 273.035 99.2408 272.673 100.84 273.819C102.44 274.968 102.804 277.196 101.658 278.796C101.603 278.873 96.1032 286.591 94.7198 292.563C94.3348 294.211 92.8682 295.323 91.2471 295.323Z" fill="#371A45"/>
<path d="M45.7855 318.468C45.0771 318.468 44.3641 318.259 43.7413 317.824C42.1297 316.692 41.7375 314.471 42.8689 312.859C43.6866 311.691 63.2323 284.111 92.2906 272.06C94.1089 271.306 96.1959 272.169 96.9494 273.991C97.7029 275.81 96.84 277.898 95.0217 278.651C67.9197 289.892 48.8969 316.685 48.7067 316.954C48.015 317.94 46.9098 318.468 45.7855 318.468Z" fill="#371A45"/>
<path d="M69.2579 261.218C68.3451 261.218 67.4324 260.871 66.7359 260.175C64.4445 257.885 59.0679 256.358 57.3636 256.004C55.4359 255.604 54.1975 253.716 54.5944 251.79C54.9914 249.864 56.8716 248.62 58.8017 249.017C59.6859 249.198 67.5583 250.91 71.7774 255.133C73.1703 256.524 73.1703 258.783 71.7774 260.177C71.0834 260.869 70.1706 261.218 69.2579 261.218Z" fill="#371A45"/>
<path d="M152.66 412.313C152.09 412.313 151.51 412.175 150.973 411.885C133.795 402.627 129.426 387.684 129.247 387.052C128.715 385.154 129.818 383.185 131.715 382.652C133.607 382.122 135.57 383.218 136.107 385.106C136.155 385.263 139.965 397.85 154.353 405.605C156.086 406.539 156.734 408.703 155.8 410.437C155.159 411.633 153.93 412.313 152.66 412.313Z" fill="#371A45"/>
<path d="M255.093 205.343L192.895 221.894C174.181 226.873 163.01 246.047 167.899 264.793L194.811 367.961C199.736 386.842 219.075 398.109 237.922 393.077L302.494 375.835C321.5 370.76 332.653 351.08 327.245 332.156L297.959 229.677C292.687 211.236 273.621 200.414 255.093 205.343Z" fill="white"/>
<g opacity="0.2">
<path d="M311.988 371.74C309.111 373.523 305.926 374.914 302.492 375.83L237.922 393.082C219.073 398.111 199.736 386.84 194.816 367.959L167.897 264.79C163.012 246.052 174.184 226.873 192.89 221.891L219.797 214.734C207.045 222.652 200.354 238.216 204.347 253.507L231.254 356.675C236.187 375.556 255.523 386.816 274.372 381.787L311.988 371.74Z" fill="#371A45"/>
</g>
<path d="M228.782 397.852C222.022 397.852 215.353 396.066 209.351 392.568C200.373 387.337 193.984 378.919 191.36 368.862L164.448 265.694C159.078 245.11 171.429 223.915 191.978 218.448L254.175 201.897C274.439 196.507 295.622 208.53 301.386 228.702L330.673 331.181C333.554 341.259 332.294 351.831 327.126 360.951C321.959 370.07 313.537 376.581 303.412 379.285L238.839 396.525C235.512 397.412 232.136 397.852 228.782 397.852ZM264.037 207.738C261.38 207.738 258.684 208.078 256.008 208.789L193.81 225.34C177.043 229.801 166.967 247.093 171.348 263.889L198.26 367.058C200.402 375.264 205.614 382.134 212.94 386.402C220.266 390.671 228.809 391.817 237.002 389.629L301.574 372.389C309.834 370.182 316.706 364.87 320.923 357.429C325.139 349.988 326.169 341.361 323.818 333.138L294.531 230.659C290.586 216.864 277.807 207.738 264.037 207.738Z" fill="#371A45"/>
<path d="M211.298 281.519C208.657 274.88 206.465 268.131 204.343 261.33C204.126 260.462 203.057 257.131 202.821 256.227C201.191 250.634 200.903 244.618 202.051 238.877C205.148 222.971 217.523 211.205 233.263 207.933L260.653 200.506C260.893 200.442 261.13 200.399 261.37 200.385C279.35 198.782 296.982 211.034 301.788 228.438C304.106 236.568 319.727 290.862 322.368 300.189L330.739 329.64C332.37 334.905 333.064 340.805 332.372 346.336C330.78 361.281 319.82 374.567 305.484 379.014C304.263 379.406 301.035 380.241 299.751 380.576L270.146 388.348C269.911 388.412 269.656 388.45 269.421 388.466C256.761 389.28 243.862 383.475 236.305 373.259C232.471 368.361 230.575 362.354 229.177 356.416C227.746 350.89 226.351 345.344 225.229 339.699C225.06 338.855 225.609 338.034 226.451 337.865C227.173 337.72 227.879 338.106 228.172 338.748C230.567 344.01 232.69 349.375 234.777 354.756C236.541 359.817 238.414 364.82 241.884 368.946C249.072 378.077 259.785 381.349 268.216 381.114C270.593 380.412 299.844 372.567 301.446 372.094C304.693 371.181 307.906 369.785 310.695 367.88C320.174 361.629 325.669 349.941 324.383 338.65C324.117 334.339 315.691 307.209 314.488 302.438C313.11 297.754 296.53 239.339 295.615 236.183C295.313 235.234 294.358 231.658 294.051 230.676C289.827 215.435 275 207.457 262.642 208.002L235.184 215.167C231.036 216.199 226.66 217.452 223.078 219.854C210.865 227.48 205.716 242.549 209.596 256.289C211.412 264.386 213.054 272.533 214.167 280.768C214.407 282.506 211.923 283.12 211.298 281.519Z" fill="#371A45"/>
<path d="M207.368 345.042L129.64 369.386C126.122 370.61 122.283 368.755 121.059 365.236L115.901 350.421C115.58 349.482 115.473 348.519 115.556 347.591C117.672 347.104 119.811 346.545 122.022 345.951C122.022 345.951 130.709 342.61 139.088 335.19L197.789 317.481C201.307 316.257 205.146 318.123 206.37 321.643L211.528 336.446C212.752 339.965 210.886 343.818 207.368 345.042Z" fill="white"/>
<path d="M127.436 373.342C125.91 373.342 124.37 372.995 122.937 372.303C120.46 371.105 118.596 369.012 117.691 366.408L112.533 351.596C112.468 351.406 112.414 351.282 112.371 351.177C112.06 350.424 111.791 349.629 111.919 348.205C112.057 346.669 113.167 345.394 114.67 345.047C115.404 344.878 116.338 344.448 117.325 343.989C118.392 343.494 119.592 342.94 120.873 342.571C121.967 342.124 129.516 338.902 136.721 332.525C137.106 332.182 137.562 331.93 138.054 331.78L196.691 314.09C199.268 313.218 202.037 313.389 204.49 314.58C206.964 315.781 208.825 317.876 209.731 320.475L214.889 335.276C216.757 340.652 213.907 346.545 208.535 348.414C208.5 348.426 208.464 348.438 208.428 348.45L130.7 372.793C129.654 373.157 128.549 373.342 127.436 373.342ZM119.778 350.711L124.427 364.064C124.705 364.865 125.28 365.509 126.041 365.878C126.804 366.247 127.667 366.297 128.468 366.018L206.239 341.658C207.872 341.064 208.733 339.261 208.16 337.616L203.002 322.815C202.721 322.009 202.146 321.362 201.383 320.991C200.62 320.62 199.76 320.57 198.961 320.849C198.914 320.865 198.866 320.882 198.818 320.896L140.854 338.384C132.288 345.775 123.671 349.137 123.3 349.28C123.184 349.325 123.067 349.363 122.946 349.396C122.174 349.603 121.273 350.019 120.32 350.462C120.141 350.545 119.958 350.628 119.778 350.711Z" fill="#371A45"/>
<path d="M235.352 430.775C223.841 430.169 212.514 428.552 201.281 426.107C200.254 425.882 199.605 424.866 199.831 423.841C200.043 422.878 200.946 422.248 201.904 422.36C212.959 423.653 224.228 424.148 235.321 423.641C240.261 423.558 240.308 430.811 235.352 430.775Z" fill="#371A45"/>
<g opacity="0.2">
<path d="M273.457 562.913C246.669 551.249 262.357 514.152 262.357 514.152C236.864 493.999 227.356 465.011 224.23 452.051C224.23 452.049 224.23 452.044 224.233 452.042C227.121 446.142 222.847 439.286 216.339 439.26C205.847 439.22 189.945 437.919 175.997 431.665C169.682 428.833 162.23 431.596 159.252 437.845C155.779 445.134 153.25 455.254 157.45 466.153C165.662 487.447 183.929 501.28 181.35 513.895C178.783 526.522 154.253 539.668 157.45 556.385C160.692 573.335 175.776 526.315 210.088 513.736C223.767 508.718 232.181 510.038 237.339 513.451C237.589 514.319 237.815 515.175 237.993 516.007C242.735 537.825 189.004 588.036 161.8 576.491C136.45 565.73 152.862 534.829 152.862 534.829C152.862 534.829 126.3 499.468 122.081 470.35C117.862 441.231 132.813 385.932 132.813 385.932L123.091 344.804C123.091 344.804 102.875 353.995 79.9137 345.958C56.9523 337.908 38.2576 302.084 38.2576 302.084C22.9857 307.541 13.1689 291.847 13.1689 291.847C2.44882 291.847 2.17545 280.647 7.89202 270.279C10.2096 273.829 13.5278 277.289 17.628 277.146C20.1809 277.058 22.6482 278.038 24.5783 279.714C27.7158 282.44 32.8429 285.514 39.1157 284.187C43.418 283.277 47.8391 285.053 50.2089 288.758C57.5917 300.301 73.6148 320.899 93.6501 320.264C110.729 319.717 129.174 299.789 140.845 284.511C148.201 274.88 163.485 277.21 167.359 288.684C170.806 298.933 171.804 312.832 165.042 330.37C148.831 372.448 178.481 394.832 204.844 401.555C268.63 417.82 299.126 371.973 309.656 369.167C309.073 385.527 301.527 394.742 301.527 394.742C301.527 394.742 301.182 403.35 301.895 414.206C294.272 423.118 284.365 431.268 271.565 436.582C262.542 440.33 259.048 451.25 263.904 459.732C267.802 466.54 274.068 474.281 284.127 481.3C309.703 499.147 276.319 506.959 271.624 529.169C266.918 551.367 293.873 516.221 306.28 508.171C315.408 502.238 332.902 493.333 347.651 495.497C348.234 497.054 348.697 498.648 349.03 500.277C353.596 522.808 300.483 574.684 273.457 562.913Z" fill="#371A45"/>
</g>
</svg>
