<svg width="590" height="303" viewBox="0 0 590 303" fill="none" xmlns="http://www.w3.org/2000/svg">
    <g filter="url(#filter0_d_2580_34776)">
        <path d="M202.417 272.709C218.575 279.525 235.928 283.024 253.453 283.001C278.124 283.023 302.303 276.072 323.225 262.942C344.146 249.812 360.964 231.034 371.756 208.756H269.674C255.702 237.549 231.801 260.272 202.408 272.709H202.417Z" fill="url(#paint0_linear_2580_34776)"/>
        <path d="M268.818 92.4829H370.891C359.921 70.6668 343.134 52.3383 322.4 39.5403C301.665 26.7423 277.8 19.9775 253.462 20.0001C235.364 20.0001 218.113 23.6645 202.425 30.2921C231.198 42.464 254.728 64.505 268.818 92.4829Z" fill="url(#paint1_linear_2580_34776)"/>
        <path d="M269.683 208.756H116.634C84.5508 208.756 58.5524 182.728 58.5524 150.616C58.5524 118.503 84.5595 92.4751 116.634 92.4751H268.818C254.726 64.4991 231.196 42.4589 202.425 30.2844C186.268 23.4684 168.915 19.969 151.389 19.9923C78.8238 20.0011 20 78.878 20 151.501C20 224.124 78.8238 283.001 151.38 283.001C169.478 283.001 186.729 279.337 202.417 272.709C231.81 260.273 255.711 237.549 269.683 208.756Z" fill="url(#paint2_linear_2580_34776)"/>
        <path d="M556.468 93.0527L539.785 93.0615V111.401H527.554V123.955H539.785V166.71C539.785 181.079 546.193 188.259 559.018 188.259C562.737 188.231 566.435 187.691 570.009 186.654V173.539C568.036 174.004 566.089 174.232 564.168 174.232C561.279 174.232 559.28 173.592 558.153 172.312C557.027 171.032 556.468 168.955 556.468 166.07V123.946H569.59V111.393H556.468V93.0527Z" fill="#3FA9E0"/>
        <path d="M400.574 112.611L401.054 121.36C406.554 114.592 413.765 111.208 422.696 111.208C438.175 111.208 446.049 120.238 446.32 138.297V188.346H429.628V139.279C429.628 134.475 428.615 130.916 426.572 128.601C424.538 126.287 421.203 125.139 416.576 125.139C409.845 125.139 404.826 128.242 401.534 134.449V188.346H384.842V112.611H400.574Z" fill="#3FA9E0"/>
        <path fill-rule="evenodd" clip-rule="evenodd" d="M492.957 188.583C482.376 188.583 473.803 185.252 467.229 178.58C460.655 171.909 457.372 163.028 457.372 151.938V149.878C457.372 142.453 458.804 135.817 461.668 129.978C464.318 124.373 468.499 119.64 473.724 116.328C478.911 113.071 484.919 111.377 491.036 111.445C501.154 111.445 508.976 114.68 514.494 121.141C520.011 127.602 522.77 136.746 522.77 148.572V155.314H474.204C474.711 161.459 476.753 166.316 480.35 169.893C483.947 173.469 488.469 175.258 493.917 175.258C501.564 175.258 507.789 172.163 512.599 165.974L521.6 174.565C518.617 179.019 514.503 182.59 509.684 184.91C504.716 187.365 499.138 188.592 492.957 188.592V188.583ZM490.966 124.849C486.391 124.849 482.69 126.454 479.87 129.662C477.05 132.871 475.261 137.342 474.475 143.067H506.279V141.831C505.912 136.237 504.428 132.012 501.818 129.145C499.207 126.278 495.593 124.849 490.966 124.849Z" fill="#3FA9E0"/>
        <path d="M123.898 171.541C121.148 173.969 117.691 175.188 113.527 175.188L113.544 175.17C108.044 175.17 103.845 173.189 100.938 169.226C98.0218 165.264 96.5726 159.241 96.5726 151.176V148.493C96.6163 140.515 98.1004 134.572 101.034 130.653C103.967 126.734 108.131 124.77 113.535 124.77C117.752 124.77 121.218 126.147 123.942 128.9C126.665 131.652 128.123 135.159 128.307 139.42H144.038C143.768 131.039 140.843 124.262 135.282 119.107C129.712 113.952 122.51 111.375 113.675 111.375C103.234 111.375 94.9837 114.785 88.9425 121.588C82.8925 128.4 79.8718 137.465 79.8718 148.782V150.501C79.8718 162.371 82.9099 171.681 89.0036 178.414C95.0972 185.155 103.338 188.522 113.736 188.522C119.088 188.522 124.081 187.356 128.708 185.015C133.335 182.683 136.993 179.501 139.7 175.494C142.341 171.677 143.843 167.182 144.03 162.537H128.298C128.115 166.105 126.648 169.112 123.898 171.541Z" fill="white"/>
        <path fill-rule="evenodd" clip-rule="evenodd" d="M309.457 129.566C306.568 135.413 305.127 141.979 305.127 149.265L305.119 150.089C305.119 161.731 308.27 171.05 314.565 178.037C320.859 185.024 329.257 188.522 339.742 188.522C346.613 188.522 352.663 186.944 357.91 183.779C363.168 180.606 367.375 175.942 370.001 170.375C372.821 164.597 374.227 158.049 374.227 150.711L374.157 146.792C373.659 136.115 370.281 127.541 364.03 121.08C357.779 114.619 349.642 111.384 339.611 111.384C332.837 111.384 326.839 112.953 321.619 116.092C316.338 119.29 312.11 123.976 309.457 129.566ZM326.56 168.692C323.4 164.361 321.819 158.364 321.819 150.711C321.819 142.093 323.426 135.615 326.63 131.284C329.834 126.953 334.164 124.788 339.611 124.788C345.155 124.788 349.538 126.989 352.768 131.389C355.998 135.79 357.613 141.752 357.613 149.265C357.613 157.751 356.042 164.185 352.908 168.586C349.773 172.987 345.391 175.188 339.751 175.188C334.111 175.188 329.72 173.022 326.56 168.692Z" fill="white"/>
        <path d="M265.143 175.188C269.308 175.188 272.765 173.969 275.515 171.541C278.265 169.112 279.731 166.105 279.915 162.537H295.647C295.46 167.182 293.958 171.677 291.316 175.494C288.61 179.501 284.952 182.683 280.325 185.015C275.698 187.356 270.713 188.522 265.353 188.522C254.955 188.522 246.714 185.155 240.629 178.414C234.535 171.681 231.497 162.371 231.497 150.501V148.782C231.497 137.465 234.518 128.4 240.568 121.588C246.609 114.785 254.851 111.375 265.292 111.375C274.127 111.375 281.329 113.952 286.899 119.107C292.46 124.262 295.385 131.039 295.655 139.42H279.924C279.74 135.159 278.282 131.652 275.558 128.9C272.835 126.147 269.369 124.77 265.152 124.77C259.748 124.77 255.584 126.734 252.65 130.653C249.717 134.572 248.233 140.515 248.189 148.493V151.176C248.189 159.241 249.639 165.264 252.554 169.226C255.462 173.189 259.661 175.17 265.161 175.17L265.143 175.188Z" fill="white"/>
        <path fill-rule="evenodd" clip-rule="evenodd" d="M157.832 129.566C154.943 135.413 153.502 141.979 153.502 149.265L153.493 150.089C153.493 161.731 156.645 171.05 162.939 178.037C169.234 185.024 177.632 188.522 188.117 188.522C194.988 188.522 201.038 186.944 206.285 183.779C211.543 180.606 215.75 175.942 218.376 170.375C221.196 164.597 222.601 158.049 222.601 150.711L222.531 146.792C222.034 136.115 218.655 127.541 212.404 121.08C206.154 114.619 198.017 111.384 187.986 111.384C181.212 111.384 175.214 112.953 169.993 116.092C164.713 119.29 160.485 123.976 157.832 129.566ZM174.935 168.692C171.774 164.361 170.194 158.364 170.194 150.711C170.194 142.093 171.801 135.615 175.004 131.284C178.208 126.953 182.539 124.788 187.986 124.788C193.53 124.788 197.912 126.989 201.143 131.389C204.373 135.79 205.988 141.752 205.988 149.265C205.988 157.751 204.416 164.185 201.282 168.586C198.148 172.987 193.766 175.188 188.126 175.188C182.486 175.188 178.095 173.022 174.935 168.692Z" fill="white"/>
    </g>
    <defs>
        <filter id="filter0_d_2580_34776" x="0" y="-0.0078125" width="590.009" height="303.01" filterUnits="userSpaceOnUse" color-interpolation-filters="sRGB">
            <feFlood flood-opacity="0" result="BackgroundImageFix"/>
            <feColorMatrix in="SourceAlpha" type="matrix" values="0 0 0 0 0 0 0 0 0 0 0 0 0 0 0 0 0 0 127 0" result="hardAlpha"/>
            <feOffset/>
            <feGaussianBlur stdDeviation="10"/>
            <feComposite in2="hardAlpha" operator="out"/>
            <feColorMatrix type="matrix" values="0 0 0 0 0 0 0 0 0 0 0 0 0 0 0 0 0 0 0.5 0"/>
            <feBlend mode="normal" in2="BackgroundImageFix" result="effect1_dropShadow_2580_34776"/>
            <feBlend mode="normal" in="SourceGraphic" in2="effect1_dropShadow_2580_34776" result="shape"/>
        </filter>
        <linearGradient id="paint0_linear_2580_34776" x1="202.408" y1="245.878" x2="385.76" y2="245.878" gradientUnits="userSpaceOnUse">
            <stop stop-color="#292A45"/>
            <stop offset="1" stop-color="#2581C4"/>
        </linearGradient>
        <linearGradient id="paint1_linear_2580_34776" x1="202.425" y1="56.2414" x2="384.822" y2="56.2414" gradientUnits="userSpaceOnUse">
            <stop stop-color="#292A45"/>
            <stop offset="1" stop-color="#2581C4"/>
        </linearGradient>
        <linearGradient id="paint2_linear_2580_34776" x1="20" y1="151.501" x2="288.967" y2="151.501" gradientUnits="userSpaceOnUse">
            <stop stop-color="#075597"/>
            <stop offset="0.224" stop-color="#1468A7"/>
            <stop offset="1" stop-color="#40A9E0"/>
        </linearGradient>
    </defs>
</svg>
