<svg width="263" height="126" viewBox="0 0 263 126" fill="none" xmlns="http://www.w3.org/2000/svg">
<path d="M87.0667 120.12C94.7789 123.36 103.061 125.023 111.426 125.012C123.202 125.023 134.743 121.718 144.728 115.478C154.714 109.237 162.741 100.311 167.892 89.7222H119.169C112.5 103.408 101.092 114.209 87.0626 120.12H87.0667Z" fill="url(#paint0_linear_2069_1529)"/>
<path d="M118.761 34.4562H167.481C162.245 24.0867 154.232 15.3749 144.336 9.29184C134.439 3.20877 123.048 -0.00661214 111.432 0.00408544C102.794 0.00408544 94.5598 1.74586 87.0718 4.89606C100.805 10.6815 112.036 21.158 118.761 34.4562Z" fill="url(#paint1_linear_2069_1529)"/>
<path d="M119.174 89.7223H46.1235C30.8101 89.7223 18.4011 77.3507 18.4011 62.0872C18.4011 46.8238 30.8143 34.4522 46.1235 34.4522H118.761C112.035 21.1548 100.804 10.6787 87.0717 4.89203C79.3596 1.6523 71.077 -0.0110293 62.712 5.50361e-05C28.0766 0.00422196 0 27.9893 0 62.5081C0 97.0269 28.0766 125.012 62.7078 125.012C71.3458 125.012 79.5796 123.27 87.0676 120.12C101.097 114.209 112.505 103.408 119.174 89.7223Z" fill="url(#paint2_linear_2069_1529)"/>
<path d="M256.056 34.7271L248.093 34.7313V43.4485H242.255V49.4155H248.093V69.7376C248.093 76.5672 251.152 79.9799 257.273 79.9799C259.048 79.9666 260.813 79.71 262.519 79.2174V72.9837C261.577 73.2045 260.648 73.3128 259.732 73.3128C258.352 73.3128 257.398 73.0087 256.861 72.4003C256.323 71.7919 256.056 70.8044 256.056 69.4334V49.4114H262.319V43.4443H256.056V34.7271Z" fill="#3FA9E0"/>
<path d="M181.648 44.0235L181.877 48.182C184.502 44.9652 187.944 43.3567 192.207 43.3567C199.595 43.3567 203.353 47.6487 203.482 56.2325V80.0215H195.515V56.6992C195.515 54.4158 195.032 52.724 194.057 51.6239C193.086 50.5239 191.494 49.978 189.286 49.978C186.073 49.978 183.677 51.4531 182.106 54.4033V80.0215H174.139V44.0235H181.648Z" fill="#3FA9E0"/>
<path fill-rule="evenodd" clip-rule="evenodd" d="M225.742 80.1341C220.692 80.1341 216.6 78.5507 213.462 75.3797C210.324 72.2086 208.758 67.9875 208.758 62.7164V61.7371C208.758 58.2078 209.441 55.0534 210.808 52.2782C212.073 49.6143 214.069 47.3644 216.562 45.7903C219.038 44.2423 221.906 43.4367 224.825 43.4694C229.655 43.4694 233.388 45.0069 236.022 48.078C238.655 51.149 239.972 55.4951 239.972 61.1163V64.3206H216.792C217.033 67.2417 218.008 69.5501 219.725 71.2502C221.442 72.9503 223.6 73.8004 226.2 73.8004C229.851 73.8004 232.822 72.3295 235.118 69.3876L239.414 73.4712C237.99 75.5879 236.026 77.2855 233.726 78.3882C231.355 79.5549 228.692 80.1383 225.742 80.1383V80.1341ZM224.792 49.8406C222.609 49.8406 220.842 50.6031 219.496 52.1282C218.15 53.6533 217.296 55.7784 216.921 58.4995H232.101V57.9119C231.926 55.2534 231.217 53.245 229.971 51.8824C228.726 50.5198 227 49.8406 224.792 49.8406Z" fill="#3FA9E0"/>
<path d="M49.59 72.0334C48.2774 73.1876 46.6273 73.7668 44.6397 73.7668L44.648 73.7585C42.0229 73.7585 40.0186 72.8168 38.631 70.9333C37.2393 69.0499 36.5475 66.1872 36.5475 62.3536V61.0786C36.5684 57.2867 37.2768 54.4615 38.6768 52.5989C40.0769 50.7362 42.0645 49.8029 44.6438 49.8029C46.6565 49.8029 48.3107 50.4571 49.6108 51.7655C50.9109 53.0739 51.6068 54.7407 51.6943 56.7658H59.203C59.0739 52.7822 57.6779 49.5612 55.0236 47.111C52.3651 44.6609 48.9274 43.4358 44.7105 43.4358C39.7269 43.4358 35.7892 45.0567 32.9057 48.2903C30.018 51.528 28.5762 55.8366 28.5762 61.2161V62.0328C28.5762 67.6748 30.0263 72.1001 32.9348 75.3003C35.8433 78.5046 39.7769 80.1047 44.7397 80.1047C47.294 80.1047 49.6775 79.5505 51.8859 78.438C54.0944 77.3296 55.8403 75.817 57.1321 73.9127C58.3928 72.0982 59.1098 69.9617 59.1989 67.754H51.6901C51.6026 69.4499 50.9025 70.8792 49.59 72.0334Z" fill="white"/>
<path fill-rule="evenodd" clip-rule="evenodd" d="M138.158 52.0822C136.778 54.8615 136.091 57.9826 136.091 61.4453L136.087 61.837C136.087 67.3706 137.591 71.8001 140.595 75.1211C143.6 78.4422 147.608 80.1048 152.613 80.1048C155.892 80.1048 158.78 79.3547 161.284 77.8505C163.794 76.3423 165.802 74.1256 167.055 71.4792C168.401 68.7332 169.072 65.6205 169.072 62.1328L169.039 60.2702C168.801 55.1949 167.188 51.1196 164.205 48.0486C161.221 44.9776 157.338 43.44 152.55 43.44C149.317 43.44 146.454 44.1859 143.962 45.6776C141.442 47.1981 139.424 49.425 138.158 52.0822ZM146.321 70.6792C144.812 68.6207 144.058 65.7705 144.058 62.1328C144.058 58.0367 144.825 54.9574 146.354 52.8989C147.883 50.8404 149.95 49.8112 152.55 49.8112C155.196 49.8112 157.288 50.8571 158.83 52.9489C160.371 55.0407 161.142 57.8742 161.142 61.4453C161.142 65.4789 160.392 68.5374 158.896 70.6292C157.4 72.721 155.309 73.7669 152.617 73.7669C149.925 73.7669 147.829 72.7377 146.321 70.6792Z" fill="white"/>
<path d="M117.006 73.7668C118.994 73.7668 120.644 73.1876 121.957 72.0334C123.269 70.8792 123.969 69.4499 124.057 67.754H131.566C131.477 69.9617 130.76 72.0982 129.499 73.9127C128.207 75.817 126.461 77.3296 124.253 78.438C122.044 79.5505 119.665 80.1047 117.106 80.1047C112.144 80.1047 108.21 78.5046 105.306 75.3003C102.397 72.1001 100.947 67.6748 100.947 62.0328V61.2161C100.947 55.8366 102.389 51.528 105.277 48.2903C108.16 45.0567 112.094 43.4358 117.077 43.4358C121.294 43.4358 124.732 44.6609 127.39 47.111C130.045 49.5612 131.441 52.7822 131.57 56.7658H124.061C123.974 54.7407 123.278 53.0739 121.978 51.7655C120.677 50.4571 119.023 49.8029 117.011 49.8029C114.431 49.8029 112.444 50.7362 111.044 52.5989C109.644 54.4615 108.935 57.2867 108.914 61.0786V62.3536C108.914 66.1872 109.606 69.0499 110.998 70.9333C112.385 72.8168 114.39 73.7585 117.015 73.7585L117.006 73.7668Z" fill="white"/>
<path fill-rule="evenodd" clip-rule="evenodd" d="M65.7868 52.0822C64.4076 54.8615 63.72 57.9826 63.72 61.4453L63.7158 61.837C63.7158 67.3706 65.2201 71.8001 68.2244 75.1211C71.2288 78.4422 75.2373 80.1048 80.2418 80.1048C83.5212 80.1048 86.4088 79.3547 88.9131 77.8505C91.4231 76.3423 93.431 74.1256 94.6843 71.4792C96.0302 68.7332 96.7011 65.6205 96.7011 62.1328L96.6678 60.2702C96.4302 55.1949 94.8176 51.1196 91.8341 48.0486C88.8506 44.9776 84.9671 43.44 80.1793 43.44C76.9458 43.44 74.0831 44.1859 71.5913 45.6776C69.0711 47.1981 67.0528 49.425 65.7868 52.0822ZM73.9498 70.6792C72.4414 68.6207 71.6871 65.7705 71.6871 62.1328C71.6871 58.0367 72.4538 54.9574 73.9831 52.8989C75.5124 50.8404 77.5792 49.8112 80.1793 49.8112C82.8253 49.8112 84.9171 50.8571 86.4588 52.9489C88.0006 55.0407 88.7715 57.8742 88.7715 61.4453C88.7715 65.4789 88.0214 68.5374 86.5255 70.6292C85.0296 72.721 82.9378 73.7669 80.246 73.7669C77.5541 73.7669 75.4582 72.7376 73.9498 70.6792Z" fill="white"/>
<defs>
<linearGradient id="paint0_linear_2069_1529" x1="87.0626" y1="107.367" x2="174.576" y2="107.367" gradientUnits="userSpaceOnUse">
<stop stop-color="#292A45"/>
<stop offset="1" stop-color="#2581C4"/>
</linearGradient>
<linearGradient id="paint1_linear_2069_1529" x1="87.0718" y1="17.2301" x2="174.13" y2="17.2301" gradientUnits="userSpaceOnUse">
<stop stop-color="#292A45"/>
<stop offset="1" stop-color="#2581C4"/>
</linearGradient>
<linearGradient id="paint2_linear_2069_1529" x1="0" y1="62.5081" x2="128.378" y2="62.5081" gradientUnits="userSpaceOnUse">
<stop stop-color="#075597"/>
<stop offset="0.224" stop-color="#1468A7"/>
<stop offset="1" stop-color="#40A9E0"/>
</linearGradient>
</defs>
</svg>
