<svg xmlns="http://www.w3.org/2000/svg" width="190" height="155" viewBox="0 0 190 155" fill="none">
    <path d="M51.1729 72.7747C51.1729 72.7747 53.3131 94.8495 68.4704 91.6376C68.4704 91.6376 68.4704 105.655 79.3034 105.655C86.8968 105.655 88.076 97.3155 88.076 97.3155L91.8612 78.4966L74.6305 61.559L51.1729 72.7747Z" fill="#FFCD94"/>
    <path d="M79.305 108.371C70.2637 108.371 66.8351 100.581 65.9833 94.6701C62.843 94.7532 60.0155 93.8883 57.5218 92.0592C49.8519 86.435 48.5228 73.5807 48.4691 73.0351C48.36 71.8998 48.9708 70.8167 50.0001 70.3232L73.4593 59.1058C74.4904 58.6139 75.7201 58.8191 76.5345 59.6188L93.7637 76.5565C94.4168 77.1999 94.7035 78.1299 94.5227 79.029L90.7521 97.7761C90.1967 101.491 87.1166 108.371 79.305 108.371ZM68.4721 88.9205C69.0894 88.9205 69.6936 89.1306 70.1823 89.5264C70.8191 90.0411 71.1888 90.8164 71.1888 91.6357C71.1905 92.0901 71.3371 102.938 79.305 102.938C84.4797 102.938 85.3527 97.1784 85.3885 96.9324C85.395 96.8803 85.4048 96.8282 85.4146 96.7777L88.9099 79.4003L74.0864 64.8277L54.1551 74.3592C54.7529 77.6722 56.4696 84.5603 60.7435 87.6859C62.7502 89.1534 65.0956 89.5753 67.9101 88.9808C68.0958 88.94 68.2848 88.9205 68.4721 88.9205Z" fill="#00004C"/>
    <path d="M68.472 94.3526C66.9719 94.3526 65.7568 93.136 65.7568 91.6375C65.7568 90.139 66.9735 88.9223 68.472 88.9223C68.9069 88.9223 69.4313 88.8311 70.0242 88.1519C73.474 84.2038 73.0309 69.9683 71.9413 61.9238C71.7393 60.4383 72.7817 59.0702 74.2672 58.8682C75.7542 58.6662 77.1208 59.707 77.3227 61.1925C77.6468 63.5705 80.3034 84.6387 74.1157 91.7238C72.6123 93.4438 70.6611 94.3526 68.472 94.3526Z" fill="#00004C"/>
    <path d="M186.495 119.559L150.939 144.281L140.14 151.785L118.433 112.346C104.973 110.427 95.0602 104.679 87.9001 98.1525C75.4807 86.8553 71.3436 73.242 71.3436 73.242C50.2803 74.8806 42.6576 70.9797 40.0321 67.2498C37.9765 64.3538 38.9457 61.5556 38.9457 61.5556C38.9277 61.5556 38.9001 61.5654 38.8821 61.5654C35.3966 62.0459 32.7091 61.9905 30.6357 61.5198C25.2232 60.2884 23.9463 56.2604 23.5212 51.6266C23.4853 51.1917 23.6026 50.6216 23.8746 49.9424C27.5133 40.6454 57.9274 10.386 65.1331 5.4883C69.9933 2.18352 88.2519 2.79919 103.776 5.44269C107.252 6.04045 110.582 6.73757 113.597 7.51612C118.585 8.79308 122.712 10.2867 125.147 11.9154C135.665 18.9224 155.525 85.5083 155.525 85.5083L186.495 119.559Z" fill="#FFCD94"/>
    <g opacity="0.2">
        <path d="M113.771 50.0045C113.771 50.0045 66.3758 44.6996 38.8853 61.5639C26.3307 63.2936 24.1123 58.0425 23.5244 51.6251C23.4885 51.1902 23.6058 50.6201 23.8778 49.9409C33.7628 49.2894 52.7723 43.5138 79.6747 15.4614H91.8677L94.6078 17.8649C98.0836 18.4627 97.2953 18.9236 97.9968 21.2853V25.1298C97.9952 25.1298 101.705 37.6665 113.771 50.0045Z" fill="#00004C"/>
    </g>
    <path d="M36.983 57.1514C39.1069 55.0812 41.2129 53.2977 43.4297 51.5142C45.635 49.7503 47.9039 48.0726 50.2396 46.4911C54.9174 43.3427 59.8363 40.5184 65.0582 38.3098C70.2621 36.0849 75.782 34.4838 81.4567 33.8762C84.2956 33.6059 87.159 33.5912 90.0012 33.8583C92.8401 34.1808 95.6303 34.816 98.3259 35.7151C98.8862 35.9024 99.1891 36.5083 99.0034 37.0686C98.8226 37.611 98.2493 37.9123 97.7053 37.7625L97.6695 37.7527C95.0911 37.0361 92.4558 36.5751 89.7976 36.4041C87.1346 36.2884 84.4683 36.435 81.8313 36.8178C76.5589 37.6501 71.4495 39.4075 66.6267 41.7595C61.7908 44.0919 57.2352 47.0188 52.9205 50.2438C50.7657 51.8644 48.6776 53.5746 46.6628 55.3598C44.6643 57.1319 42.656 59.0294 40.9197 60.8992L40.8741 60.9481C39.8529 62.0475 38.1345 62.1126 37.0335 61.0914C35.9341 60.0702 35.8705 58.3518 36.8901 57.2524C36.9162 57.2182 36.952 57.1824 36.983 57.1514Z" fill="#00004C"/>
    <path d="M140.143 154.5C139.185 154.5 138.257 153.992 137.762 153.093L116.7 114.826C106.137 113.1 96.7199 108.925 88.6884 102.404C88.646 102.374 88.6053 102.343 88.5662 102.311C76.7869 92.7205 71.3077 80.8272 69.477 76.0924C52.6387 77.1592 41.9931 74.716 37.8185 68.8248C37.7827 68.7743 37.7485 68.7222 37.7159 68.6684C36.7272 67.2237 36.2712 65.8001 36.0937 64.5623C31.3393 64.8147 27.7771 63.9645 25.2639 61.9693C21.8989 59.2997 21.122 55.1708 20.819 51.8709C20.6822 50.3447 20.3157 46.3037 39.2388 26.2551C48.7574 16.1698 59.4617 6.05997 63.6069 3.23893C69.5601 -0.805311 87.1231 0.603586 94.3972 1.39517C105.89 2.64933 120.399 5.47524 126.657 9.65305C137.405 16.8131 155.183 74.9066 157.952 84.1336L188.503 117.73C189.513 118.84 189.43 120.558 188.321 121.566C187.211 122.576 185.495 122.495 184.485 121.384L153.518 87.3309C153.245 87.0296 153.041 86.6713 152.926 86.2803C145.355 60.8992 130.711 18.8784 123.644 14.1729C119.226 11.2232 107.237 8.26044 93.8093 6.79617C78.5542 5.13319 69.0405 6.11536 66.6608 7.7311C58.3003 13.4188 26.9237 45.7581 26.2347 51.4539C26.5442 54.7489 27.2657 56.6252 28.6404 57.7149C30.4434 59.1433 33.7824 59.5294 38.5743 58.8632C39.5092 58.7296 40.4457 59.0993 41.0468 59.829C41.6478 60.5587 41.8237 61.549 41.5159 62.4416C41.5142 62.453 41.0728 64.015 42.2504 65.6764C42.2765 65.7122 42.3025 65.7496 42.3253 65.7887C43.8759 67.8557 49.72 72.1963 71.1351 70.5317C72.3892 70.434 73.5734 71.2305 73.9447 72.4488C73.9887 72.5905 78.5607 87.1045 91.8971 98.0173C91.9378 98.0482 91.9785 98.0775 92.0176 98.1101C99.6354 104.324 108.652 108.209 118.817 109.657C119.663 109.777 120.402 110.287 120.814 111.036L142.521 150.475C143.244 151.79 142.765 153.44 141.451 154.163C141.034 154.392 140.586 154.5 140.143 154.5Z" fill="#00004C"/>
    <path d="M90.3009 49.2893L88.9701 76.3726L87.9017 98.1509C75.4823 86.8537 71.3452 73.2404 71.3452 73.2404C50.2819 74.879 42.6592 70.9781 40.0336 67.2482L38.9473 61.554C38.9473 61.554 38.957 61.5002 38.9929 61.3911C39.4457 59.8715 44.4248 48.1948 90.3009 49.2893Z" fill="#FFCD94"/>
    <path d="M89.0858 102.645L89.0679 102.635L88.9734 102.586C88.8285 102.511 88.6868 102.413 88.5679 102.312C86.369 100.405 84.2207 98.4376 82.3069 96.2551C80.3458 94.1165 78.5753 91.8199 76.9401 89.4403C75.295 87.0655 73.8274 84.5751 72.5179 82.0049C71.8599 80.7215 71.2524 79.4103 70.6758 78.0828C70.1106 76.7244 69.5959 75.4377 69.1187 73.9181L71.5276 75.5631L67.3433 75.7749C65.941 75.7944 64.5467 75.8726 63.1395 75.8433C60.3331 75.8579 57.5071 75.7032 54.6763 75.41C51.8455 75.0957 48.9936 74.594 46.179 73.6168C44.7734 73.1249 43.3808 72.5059 42.0403 71.6948C40.7145 70.8527 39.4375 69.7842 38.4472 68.3835L38.4326 68.3623C38.1948 68.0268 38.084 67.6392 38.0889 67.258V67.2482L38.1231 67.6131L37.1035 61.9075L37.0888 61.8309C37.053 61.6306 37.0579 61.4286 37.0954 61.2397C37.1752 60.8488 37.2517 60.6957 37.3266 60.4888C37.4016 60.2738 37.4879 60.1061 37.5758 59.9416C37.7485 59.5995 37.9309 59.2689 38.141 58.9969C38.5319 58.3893 38.9929 57.9105 39.4506 57.4218C39.905 56.9283 40.4213 56.5619 40.9067 56.1319C41.4002 55.7181 41.9393 55.4168 42.454 55.0569C42.9671 54.6871 43.5111 54.4151 44.0535 54.1333C44.5959 53.8581 45.1301 53.5454 45.6823 53.3059L47.3469 52.6202C47.9023 52.3971 48.4528 52.1479 49.0212 51.9899C53.515 50.41 58.1277 49.6217 62.7209 48.9978C65.0239 48.7405 67.3238 48.4294 69.6285 48.33C71.9332 48.1802 74.2347 48.0059 76.5361 47.9978L79.9875 47.9261L81.7124 47.8935L83.4356 47.9245L90.3253 48.0466C91.011 48.0596 91.5567 48.6248 91.5453 49.3105C91.5339 49.9865 90.9833 50.5272 90.3123 50.5305H90.2667L83.4486 50.5663L81.7449 50.5745L80.0445 50.6462L76.6452 50.796C74.3747 50.8546 72.1238 51.0794 69.8728 51.2781C67.612 51.428 65.3871 51.7847 63.1557 52.0844C62.0351 52.213 60.9357 52.4362 59.8363 52.6561C58.7401 52.8841 57.6277 53.0567 56.5478 53.3287L53.3212 54.1773C52.256 54.4835 51.2315 54.8777 50.1842 55.2214C49.6532 55.381 49.1678 55.6188 48.6694 55.8338L47.1791 56.4853C46.6888 56.7117 46.2426 56.9951 45.7718 57.2443C45.306 57.5 44.8304 57.7476 44.4248 58.062C44.0144 58.3682 43.5502 58.6353 43.1788 58.9675C42.8238 59.3079 42.4003 59.6126 42.0941 59.9709C41.7797 60.326 41.4523 60.6761 41.2373 61.0442C41.0973 61.2266 41.0142 61.401 40.9327 61.572C40.8855 61.6599 40.8399 61.7446 40.8285 61.8049C40.8057 61.8652 40.7715 61.9759 40.7943 61.8668L40.7878 61.199L41.941 66.8801C41.9621 66.9844 41.9735 67.087 41.9752 67.1896V67.2433V67.2531L41.6168 66.1277C42.2374 66.96 43.1088 67.6815 44.1121 68.2874C45.1399 68.8721 46.2735 69.3542 47.4706 69.7419C49.8666 70.5156 52.4726 70.926 55.0998 71.154C57.7368 71.3641 60.4047 71.4521 63.0906 71.3739C64.4294 71.3707 65.7781 71.2632 67.1218 71.2143L71.1595 70.9162C72.2443 70.8364 73.2102 71.5091 73.5457 72.4929L73.5685 72.5613C73.9513 73.6852 74.4888 74.9751 75.023 76.169C75.5833 77.3776 76.1713 78.578 76.8097 79.7523C78.0786 82.1043 79.4924 84.3846 81.0658 86.5427C82.6278 88.7073 84.3086 90.7857 86.1524 92.7027C87.9506 94.6654 89.9588 96.4082 91.9932 98.0988L91.4931 97.7763L91.5111 97.7845C92.8597 98.4393 93.4232 100.065 92.7668 101.413C92.1121 102.762 90.4866 103.326 89.1379 102.669C89.1265 102.666 89.1005 102.653 89.0858 102.645Z" fill="#00004C"/>
    <circle cx="26.2905" cy="58" r="23" fill="white" stroke="#00004C" stroke-width="5"/>
    <path d="M43.5623 46.8975C45.6276 50.0971 46.8269 53.9084 46.8269 58C46.8269 69.3218 37.6487 78.5 26.3269 78.5C17.5017 78.5 9.97915 72.9232 7.09058 65.1016C10.7402 70.7562 17.0962 74.5 24.3269 74.5C35.6487 74.5 44.8269 65.3218 44.8269 54C44.8269 51.503 44.3797 49.1105 43.5623 46.8975Z" fill="#DCDCDC"/>
</svg>