<svg width="562" height="598" viewBox="0 0 562 598" fill="none" xmlns="http://www.w3.org/2000/svg">
<g clip-path="url(#clip0_2069_1536)">
<path d="M351.838 545.239C352.576 550.345 349.037 555.082 343.933 555.82L112.391 589.281C107.107 590.044 102.189 586.439 101.319 581.168L75.3894 423.943C74.7488 420.085 72.9837 416.498 70.3031 413.651L55.8636 398.283C53.0827 395.318 51.2406 391.601 50.5776 387.588L33.5847 285.301C32.2977 277.546 34.9556 269.653 40.6671 264.254L122.018 187.362C124.3 185.211 126.969 183.545 129.869 182.452C131.468 181.838 133.143 181.405 134.861 181.157L281.968 159.898C289.641 158.789 296.76 164.113 297.87 171.789L303.293 209.314L273.962 241.957L323.248 347.397L366.101 367.851L371.02 396.136L336.255 437.403L351.838 545.239Z" fill="#004F91"/>
<path d="M366.928 367.926L221.501 388.942L225.592 417.247L371.019 396.231L366.928 367.926Z" fill="#4CAFF3"/>
<g opacity="0.6">
<path d="M366.93 367.927L221.498 388.944L222.453 395.55L367.885 374.533L366.93 367.927Z" fill="white"/>
</g>
<g opacity="0.2">
<path d="M369.652 386.685L224.213 407.703L225.592 417.246L371.031 396.228L369.652 386.685Z" fill="#2C0052"/>
</g>
<path d="M221.475 388.748L225.58 417.151L203.036 456.656L219.956 573.739L112.393 589.284C107.109 590.047 102.191 586.442 101.321 581.171L96.127 549.657L87.369 496.589L83.8616 475.309L75.3915 423.946C75.3033 423.393 75.1837 422.853 75.0479 422.315C74.2315 419.082 72.6035 416.099 70.3052 413.654L55.8657 398.287C53.0848 395.321 51.2427 391.604 50.5797 387.592L33.5868 285.304C32.2998 277.549 34.9577 269.656 40.6692 264.257L122.02 187.365C124.302 185.214 126.971 183.548 129.871 182.455L137.124 232.639L124.045 259.991C122.212 263.815 122.113 268.245 123.767 272.156L146.724 326.39L161.453 361.191C162.313 363.229 163.55 365.062 165.078 366.604C166.892 368.454 169.113 369.905 171.603 370.801L179.284 373.566L217.425 387.296L221.475 388.748Z" fill="#AEFF9C"/>
<path d="M165.078 366.604L83.8616 475.309L75.3915 423.946C75.3033 423.393 75.1837 422.853 75.0479 422.315L146.724 326.39L161.453 361.191C162.313 363.229 163.55 365.062 165.078 366.604Z" fill="#4CAFF3"/>
<path d="M217.425 387.296L96.1271 549.657L87.3691 496.589L179.284 373.566L217.425 387.296Z" fill="#4CAFF3"/>
<g opacity="0.2">
<path d="M225.592 417.247L361.024 397.676L338.966 437.009L204.635 456.422L225.592 417.247Z" fill="#2C0052"/>
</g>
<path d="M137.202 233.206L129.787 181.89L281.113 160.021C289.258 158.844 296.814 164.496 297.992 172.643L303.275 209.207L137.202 233.206Z" fill="#4CAFF3"/>
<g opacity="0.6">
<path d="M297.997 172.644L299.249 181.311C298.071 173.157 290.513 167.506 282.363 168.683L131.037 190.552L129.784 181.885L281.11 160.017C289.261 158.839 296.818 164.491 297.997 172.644Z" fill="white"/>
</g>
<path d="M293.611 331.698C294.841 340.958 288.478 350.077 278.586 351.506L183.586 365.235C172.244 366.874 161.23 360.658 156.763 350.11L131.886 291.331C129.16 284.889 129.922 278.027 133.117 272.584C136.185 267.359 141.505 263.447 148.14 262.488L235.772 249.824C247.049 248.194 258.063 254.128 262.921 264.444L292.071 326.449C292.877 328.17 293.389 329.934 293.611 331.698Z" fill="#73F8FF"/>
<g opacity="0.2">
<path d="M293.239 334.529C293.403 334.863 293.554 335.215 293.686 335.554C292.994 343.362 287.094 350.277 278.586 351.506L183.586 365.235C172.244 366.874 161.23 360.658 156.763 350.11L131.886 291.33C131.711 290.923 131.56 290.513 131.417 290.101C131.303 289.768 131.197 289.443 131.091 289.109C130.59 287.426 130.312 285.729 130.245 284.059C130.228 283.712 130.22 283.372 130.221 283.031C130.223 282.698 130.233 282.364 130.252 282.037C130.25 282.021 130.255 282.003 130.261 281.986C130.279 281.651 130.307 281.322 130.341 280.985C130.376 280.655 130.419 280.316 130.471 279.985C130.467 279.96 130.473 279.943 130.479 279.925C130.533 279.61 130.587 279.294 130.65 278.986C130.857 278 131.132 277.029 131.477 276.081C131.59 275.765 131.711 275.456 131.841 275.147C131.971 274.837 132.102 274.535 132.249 274.231C132.389 273.936 132.538 273.641 132.694 273.343C132.824 273.092 132.97 272.838 133.118 272.592C136.185 267.359 141.505 263.447 148.14 262.488L235.772 249.824C247.049 248.194 258.063 254.128 262.921 264.444L292.071 326.449C292.877 328.17 293.389 329.934 293.611 331.698C293.059 331.736 292.508 331.774 291.955 331.804L264.088 272.525C259.231 262.209 248.216 256.275 236.94 257.904L149.308 270.568C149.257 270.576 149.205 270.583 149.155 270.591C142.061 271.667 139.33 280.514 144.447 285.545C164.649 305.417 210.03 336.846 291.955 331.802L293.239 334.529Z" fill="#2C0052"/>
</g>
<path d="M179.028 333.48L165.551 316.811L203.138 286.399C207.739 282.677 214.485 283.39 218.207 287.993C221.928 292.596 221.216 299.345 216.615 303.068L179.028 333.48Z" fill="url(#paint0_linear_2069_1536)"/>
<path d="M211.312 305.421C217.168 304.575 221.229 299.139 220.383 293.28C219.536 287.421 214.102 283.357 208.245 284.204C202.389 285.05 198.328 290.486 199.175 296.345C200.021 302.204 205.455 306.267 211.312 305.421Z" fill="#69FFF8"/>
<path d="M211.312 305.421C217.168 304.575 221.229 299.139 220.383 293.28C219.536 287.421 214.102 283.357 208.245 284.204C202.389 285.05 198.328 290.486 199.175 296.345C200.021 302.204 205.455 306.267 211.312 305.421Z" stroke="#2C0052" stroke-width="4" stroke-miterlimit="10" stroke-linecap="round" stroke-linejoin="round"/>
<path d="M210.411 299.188C212.827 298.839 214.502 296.597 214.152 294.18C213.803 291.764 211.562 290.088 209.146 290.437C206.731 290.786 205.056 293.028 205.405 295.445C205.754 297.861 207.995 299.537 210.411 299.188Z" fill="white"/>
<path opacity="0.5" d="M129.556 283.891L260.173 32.5944C260.173 32.5944 434.745 15.8482 515.932 209.073L270.78 348.276L175.006 364.957C175.006 364.957 161.638 363.145 157.908 353.463C154.178 343.78 129.556 283.891 129.556 283.891Z" fill="url(#paint1_linear_2069_1536)"/>
<g opacity="0.2">
<path d="M293.611 331.698C293.653 331.991 293.678 332.279 293.703 332.566C293.728 332.853 293.745 333.142 293.753 333.432C293.754 333.606 293.763 333.788 293.755 333.964C293.766 334.095 293.76 334.229 293.756 334.371C293.754 334.588 293.745 334.813 293.727 335.032C293.719 335.208 293.711 335.384 293.686 335.554C293.554 335.215 293.403 334.863 293.239 334.529L291.955 331.804C292.508 331.774 293.059 331.736 293.611 331.698Z" fill="#2C0052"/>
</g>
<g opacity="0.2">
<path d="M213.72 395.282L216.775 416.419L192.175 454.692L209.595 575.237L112.388 589.284C107.104 590.048 102.186 586.443 101.316 581.172L75.3855 423.938C74.7449 420.081 72.9809 416.502 70.2991 413.647L55.8597 398.279C53.0799 395.321 51.2378 391.604 50.5749 387.592L33.582 285.305C33.4491 284.501 33.357 283.691 33.3068 282.883L124.82 196.423L129.41 228.182L115.421 259.852C113.26 264.743 113.237 270.314 115.355 275.224L154.213 365.307C156.218 369.954 159.975 373.622 164.667 375.513L213.72 395.282Z" fill="#2C0052"/>
</g>
<path d="M344.285 558.263L112.744 591.724C106.182 592.673 99.9645 588.118 98.8836 581.57L72.9539 424.344C72.39 420.948 70.8513 417.836 68.5063 415.344L54.0648 399.974C50.9338 396.633 48.8854 392.49 48.1421 387.99L31.1494 285.705C29.7249 277.124 32.65 268.434 38.9713 262.458L120.322 185.566C122.853 183.181 125.771 181.356 128.999 180.141C130.747 179.471 132.604 178.988 134.507 178.713L281.615 157.454C290.623 156.152 299.01 162.424 300.312 171.436L305.735 208.961C305.84 209.686 305.617 210.42 305.129 210.964L276.89 242.392L325.108 345.55L367.164 365.623C367.885 365.968 368.396 366.641 368.534 367.429L373.452 395.715C373.578 396.434 373.379 397.171 372.909 397.729L338.858 438.148L354.283 544.887C355.212 551.331 350.728 557.332 344.285 558.263ZM135.214 183.6C133.673 183.823 132.172 184.213 130.754 184.757C128.128 185.747 125.762 187.226 123.71 189.159L42.3626 266.048C37.2362 270.893 34.8665 277.94 36.0198 284.896L53.0125 387.182C53.5964 390.716 55.2053 393.97 57.6641 396.593L72.1017 411.959C75.1198 415.164 77.0983 419.169 77.8242 423.536L103.754 580.765C104.4 584.678 108.117 587.402 112.038 586.835L343.578 553.375C347.327 552.833 349.936 549.341 349.394 545.591L333.81 437.754C333.709 437.057 333.911 436.35 334.365 435.81L368.388 395.424L363.885 369.53L322.183 349.625C321.667 349.379 321.253 348.961 321.01 348.442L271.725 243.002C271.306 242.105 271.463 241.042 272.125 240.306L300.683 208.523L295.426 172.143C294.513 165.827 288.632 161.429 282.319 162.342L135.214 183.6Z" fill="#2C0052"/>
<path d="M220.308 576.18L112.744 591.724C106.182 592.673 99.9646 588.118 98.8837 581.57L72.9539 424.344C72.39 420.948 70.8514 417.836 68.5064 415.344L54.0648 399.974C50.934 396.634 48.8855 392.49 48.1422 387.99L31.1495 285.705C29.725 277.124 32.6501 268.434 38.9713 262.458L120.322 185.566C122.853 183.181 125.771 181.356 128.999 180.141C129.699 179.879 130.48 179.945 131.123 180.325C131.767 180.706 132.203 181.358 132.31 182.097L139.562 232.282C139.632 232.765 139.557 233.259 139.347 233.7L126.267 261.056C124.743 264.243 124.66 267.935 126.036 271.189L163.724 360.226C165.347 364.059 168.523 367.066 172.439 368.476L222.307 386.426C223.166 386.734 223.784 387.493 223.914 388.395L228.019 416.799C228.098 417.343 227.992 417.898 227.72 418.375L205.598 457.141L222.397 573.383C222.592 574.734 221.657 575.985 220.308 576.18ZM127.9 186.081C126.393 186.922 124.989 187.953 123.71 189.159L42.3627 266.048C37.2362 270.893 34.8666 277.94 36.0198 284.896L53.0125 387.182C53.5964 390.716 55.2053 393.97 57.6641 396.593L72.1017 411.959C75.1199 415.164 77.0984 419.169 77.8243 423.536L103.754 580.765C104.4 584.678 108.117 587.402 112.038 586.835L217.158 571.644L200.591 457.005C200.513 456.461 200.619 455.905 200.891 455.428L223.014 416.665L219.243 390.571L170.77 373.121C165.563 371.246 161.338 367.246 159.18 362.15L121.493 273.114C119.565 268.559 119.683 263.386 121.817 258.925L134.572 232.246L127.9 186.081Z" fill="#371A45"/>
<path d="M303.63 211.65L137.556 235.65C136.207 235.845 134.955 234.91 134.76 233.559L127.344 182.243C127.149 180.892 128.085 179.641 129.433 179.446L280.76 157.578C290.239 156.208 299.064 162.807 300.434 172.29L305.718 208.854C305.915 210.204 304.978 211.455 303.63 211.65ZM139.292 230.41L300.481 207.116L295.551 172.996C294.57 166.208 288.251 161.484 281.468 162.465L132.584 183.98L139.294 230.41L139.292 230.41Z" fill="#371A45"/>
<path d="M371.371 398.673L225.946 419.689C224.598 419.884 223.346 418.949 223.151 417.599L219.06 389.293C218.865 387.943 219.801 386.691 221.15 386.496L366.575 365.481C367.923 365.286 369.175 366.221 369.37 367.571L373.461 395.877C373.656 397.227 372.72 398.478 371.371 398.673ZM227.681 414.449L368.221 394.139L364.837 370.721L224.297 391.031L227.681 414.449Z" fill="#371A45"/>
<path d="M278.942 353.95L183.936 367.679C171.5 369.477 159.391 362.646 154.492 351.071L129.613 292.298C126.766 285.571 127.189 278.064 130.775 271.702C134.36 265.339 140.561 261.092 147.786 260.048L235.418 247.384C247.854 245.587 259.802 252.023 265.151 263.397L294.305 325.399C297.053 331.244 296.873 337.857 293.813 343.545C290.752 349.234 285.332 353.026 278.942 353.95ZM148.492 264.935C142.793 265.759 137.903 269.11 135.073 274.127C132.246 279.146 131.912 285.067 134.158 290.372L159.036 349.145C163.062 358.657 173.011 364.269 183.229 362.792L278.236 349.062C283.063 348.365 287.156 345.502 289.466 341.206C291.776 336.911 291.912 331.915 289.836 327.502L260.682 265.5C256.264 256.103 246.394 250.789 236.123 252.273L148.492 264.937L148.492 264.935Z" fill="#371A45"/>
<path d="M342.966 558.454L220.307 576.18C218.959 576.375 217.707 575.44 217.512 574.089L200.592 457.006C200.396 455.656 201.333 454.405 202.681 454.21L335.901 434.958C337.25 434.763 338.502 435.698 338.697 437.048L354.09 543.565C355.127 550.739 350.136 557.418 342.966 558.454ZM222.044 570.94L342.26 553.567C346.736 552.92 349.851 548.751 349.204 544.273L334.164 440.2L205.83 458.746L222.044 570.94Z" fill="#371A45"/>
<path d="M295.376 481.978L252.224 488.214L259.051 535.458L302.204 529.221L295.376 481.978Z" fill="#4CAFF3"/>
<path d="M302.557 531.665L259.404 537.901C258.056 538.096 256.804 537.161 256.609 535.811L249.781 488.567C249.586 487.216 250.522 485.965 251.871 485.77L295.023 479.534C296.371 479.339 297.624 480.274 297.819 481.625L304.646 528.868C304.841 530.219 303.907 531.47 302.557 531.665ZM261.141 532.661L299.408 527.131L293.287 484.774L255.02 490.305L261.141 532.661Z" fill="#371A45"/>
<path d="M264.903 520.996L261.93 500.429C261.646 498.461 263.009 496.634 264.977 496.35L266.809 496.085C268.776 495.801 270.602 497.165 270.887 499.135L273.859 519.702C274.143 521.67 272.78 523.497 270.811 523.781L268.979 524.046C267.012 524.328 265.187 522.964 264.903 520.996Z" fill="#2C0052"/>
<path d="M277.656 498.156C277.371 496.188 278.735 494.361 280.704 494.077L285.792 493.342C287.759 493.057 289.584 494.422 289.869 496.391C290.153 498.359 288.79 500.186 286.823 500.47L281.734 501.206C279.766 501.488 277.94 500.124 277.656 498.156Z" fill="#2C0052"/>
<path d="M280.628 518.724L279.863 513.429C279.578 511.461 280.942 509.634 282.911 509.35L287.999 508.614C289.967 508.33 291.791 509.694 292.076 511.664L292.841 516.959C293.125 518.927 291.762 520.753 289.795 521.038L284.706 521.773C282.739 522.056 280.912 520.691 280.628 518.724Z" fill="#2C0052"/>
<path d="M229.106 379.122C234.839 378.293 239.197 375.616 238.839 373.141C238.482 370.667 233.544 369.333 227.811 370.162C222.078 370.99 217.72 373.668 218.077 376.142C218.435 378.616 223.373 379.95 229.106 379.122Z" fill="#4CAFF3"/>
<path d="M229.459 381.565C223.087 382.486 216.292 381.04 215.635 376.495C214.978 371.95 221.086 368.639 227.458 367.718C233.83 366.797 240.625 368.243 241.282 372.788C241.939 377.334 235.831 380.644 229.459 381.565ZM220.595 375.778C221.292 376.381 224.224 377.332 228.753 376.678C233.281 376.024 235.824 374.281 236.322 373.505C235.625 372.904 232.693 371.951 228.164 372.605C223.636 373.26 221.093 375.004 220.595 375.778Z" fill="#371A45"/>
<path d="M44.2124 282.724C46.1235 282.448 47.4488 280.674 47.1725 278.762C46.8962 276.851 45.1229 275.525 43.2119 275.801C41.3008 276.077 39.9755 277.851 40.2518 279.763C40.5281 281.674 42.3013 283.001 44.2124 282.724Z" fill="#2C0052"/>
<path d="M112.797 272.813C114.708 272.537 116.033 270.763 115.757 268.851C115.481 266.939 113.707 265.613 111.796 265.889C109.885 266.165 108.56 267.939 108.836 269.851C109.113 271.763 110.886 273.089 112.797 272.813Z" fill="#2C0052"/>
<path d="M153.881 373.062C155.792 372.786 157.117 371.012 156.841 369.1C156.565 367.188 154.792 365.862 152.88 366.139C150.969 366.415 149.644 368.189 149.92 370.1C150.197 372.012 151.97 373.338 153.881 373.062Z" fill="#2C0052"/>
<path d="M210.756 399.243C212.668 398.967 213.993 397.193 213.717 395.281C213.44 393.369 211.667 392.043 209.756 392.319C207.845 392.595 206.52 394.369 206.796 396.281C207.072 398.193 208.845 399.519 210.756 399.243Z" fill="#2C0052"/>
<path d="M213.811 420.382C215.722 420.106 217.048 418.332 216.771 416.42C216.495 414.508 214.722 413.182 212.811 413.458C210.9 413.734 209.574 415.508 209.851 417.42C210.127 419.332 211.9 420.658 213.811 420.382Z" fill="#2C0052"/>
<path d="M193.171 461.613C195.083 461.337 196.408 459.563 196.132 457.651C195.855 455.739 194.082 454.413 192.171 454.689C190.26 454.965 188.935 456.739 189.211 458.651C189.487 460.563 191.26 461.889 193.171 461.613Z" fill="#2C0052"/>
<path d="M208.729 569.266C210.64 568.99 211.965 567.216 211.689 565.305C211.413 563.393 209.639 562.067 207.728 562.343C205.817 562.619 204.492 564.393 204.768 566.305C205.045 568.217 206.818 569.543 208.729 569.266Z" fill="#2C0052"/>
<path d="M111.436 583.327C113.347 583.05 114.672 581.277 114.396 579.365C114.12 577.453 112.346 576.127 110.435 576.403C108.524 576.679 107.199 578.453 107.475 580.365C107.752 582.277 109.525 583.603 111.436 583.327Z" fill="#2C0052"/>
<path d="M61.5676 386.403C63.4787 386.127 64.804 384.353 64.5277 382.441C64.2514 380.529 62.4782 379.203 60.5671 379.479C58.656 379.755 57.3307 381.529 57.607 383.441C57.8833 385.353 59.6566 386.679 61.5676 386.403Z" fill="#2C0052"/>
<path d="M140.293 192.752C142.204 192.476 143.53 190.702 143.253 188.79C142.977 186.878 141.204 185.552 139.293 185.828C137.382 186.104 136.056 187.878 136.333 189.79C136.609 191.702 138.382 193.028 140.293 192.752Z" fill="#2C0052"/>
<path d="M145.086 225.915C146.997 225.639 148.322 223.865 148.046 221.953C147.77 220.041 145.996 218.715 144.085 218.992C142.174 219.268 140.849 221.042 141.125 222.954C141.402 224.865 143.175 226.191 145.086 225.915Z" fill="#2C0052"/>
<path opacity="0.2" d="M131.091 289.109C130.582 287.428 130.305 285.738 130.245 284.059C130.312 285.729 130.59 287.427 131.091 289.109Z" fill="#2C0052"/>
<path opacity="0.2" d="M130.65 278.986C130.856 277.992 131.132 277.029 131.477 276.081C131.132 277.029 130.857 278 130.65 278.986Z" fill="#2C0052"/>
<path opacity="0.2" d="M293.611 331.698C293.653 331.991 293.678 332.279 293.703 332.566C293.728 332.853 293.745 333.142 293.753 333.432C293.754 333.606 293.763 333.788 293.755 333.964C293.766 334.095 293.76 334.229 293.756 334.371C293.754 334.588 293.745 334.813 293.727 335.032C293.719 335.208 293.711 335.384 293.686 335.554C293.554 335.215 293.403 334.863 293.239 334.529L291.955 331.804C292.508 331.774 293.059 331.736 293.611 331.698Z" fill="#2C0052"/>
</g>
<defs>
<linearGradient id="paint0_linear_2069_1536" x1="216.45" y1="289.595" x2="170.542" y2="326.494" gradientUnits="userSpaceOnUse">
<stop stop-color="#FF75C3"/>
<stop offset="1" stop-color="#FF19FF" stop-opacity="0"/>
</linearGradient>
<linearGradient id="paint1_linear_2069_1536" x1="231.453" y1="366.476" x2="393.301" y2="112.839" gradientUnits="userSpaceOnUse">
<stop stop-color="#ACFF7E"/>
<stop offset="0.8874" stop-color="#F5FFA4" stop-opacity="0.1126"/>
<stop offset="1" stop-color="#FFFFA9" stop-opacity="0"/>
</linearGradient>
<clipPath id="clip0_2069_1536">
<rect width="490.763" height="532.295" fill="white" transform="translate(0 70.193) rotate(-8.22311)"/>
</clipPath>
</defs>
</svg>
