<svg xmlns="http://www.w3.org/2000/svg" width="121" height="121" viewBox="0 0 121 121" fill="none">
    <mask id="mask0_2347_10187" style="mask-type:alpha" maskUnits="userSpaceOnUse" x="6" y="6" width="109" height="103">
        <path fill-rule="evenodd" clip-rule="evenodd" d="M84.5 72.5H105.5C110.471 72.5 114.5 76.5294 114.5 81.5V99.5C114.5 104.471 110.471 108.5 105.5 108.5H75.5C70.5294 108.5 66.5 104.471 66.5 99.5V81.5C66.5 76.5294 70.5294 72.5 75.5 72.5H78.5V60.5H36.5V72.5H45.5C50.4706 72.5 54.5 76.5294 54.5 81.5V99.5C54.5 104.471 50.4706 108.5 45.5 108.5H15.5C10.5294 108.5 6.5 104.471 6.5 99.5V81.5C6.5 76.5294 10.5294 72.5 15.5 72.5H30.5V54.5H54.5V42.5H39.5C34.5294 42.5 30.5 38.4706 30.5 33.5V15.5C30.5 10.5294 34.5294 6.5 39.5 6.5H75.5C80.4706 6.5 84.5 10.5294 84.5 15.5V33.5C84.5 38.4706 80.4706 42.5 75.5 42.5H60.5V54.5H84.5V72.5ZM36.5 33.5C36.5226 35.1474 37.8526 36.4774 39.5 36.5H75.5C77.1474 36.4774 78.4774 35.1474 78.5 33.5V15.5C78.4774 13.8526 77.1474 12.5226 75.5 12.5H39.5C37.8526 12.5226 36.5226 13.8526 36.5 15.5V33.5ZM45.5 78.5C47.1474 78.5226 48.4774 79.8526 48.5 81.5V99.5C48.4774 101.147 47.1474 102.477 45.5 102.5H15.5C13.8526 102.477 12.5226 101.147 12.5 99.5V81.5C12.5226 79.8526 13.8526 78.5226 15.5 78.5H45.5ZM105.5 102.5C107.147 102.477 108.477 101.147 108.5 99.5V81.5C108.477 79.8526 107.147 78.5226 105.5 78.5H75.5C73.8526 78.5226 72.5226 79.8526 72.5 81.5V99.5C72.5226 101.147 73.8526 102.477 75.5 102.5H105.5Z" fill="#3C3C3C"/>
    </mask>
    <g mask="url(#mask0_2347_10187)">
        <rect x="0.5" y="0.5" width="120" height="120" fill="white"/>
    </g>
</svg>