<svg xmlns="http://www.w3.org/2000/svg" width="171" height="159" viewBox="0 0 171 159" fill="none">
    <path d="M30.6594 3.02491C11.9517 19.7753 0.46553 44.3731 1.24245 71.4595C2.64198 120.23 43.2378 158.637 91.9174 157.231C104.281 156.878 115.981 153.987 126.525 149.075C138.745 143.383 149.424 134.978 157.806 124.65C162.352 119.061 166.227 112.908 169.302 106.314C171.281 102.073 166.908 97.6347 162.651 99.5564C157.935 101.684 152.988 103.407 147.861 104.683C141.951 106.155 135.799 107.033 129.467 107.243C129.323 107.255 129.175 107.255 129.028 107.261C126.813 107.327 124.618 107.304 122.441 107.203C121.118 107.148 119.801 107.056 118.491 106.936C117.88 106.883 117.274 106.818 116.668 106.749C113.704 106.424 110.783 105.947 107.915 105.331C104.863 104.672 101.858 103.854 98.9272 102.888C96.7168 102.163 94.544 101.345 92.4081 100.45C90.4676 99.6328 88.558 98.7507 86.6889 97.7953C86.5534 97.7268 86.4215 97.6595 86.2859 97.591C85.0044 96.9309 83.7313 96.2355 82.486 95.5147C82.0098 95.2431 81.5385 94.9619 81.0702 94.6788C80.6345 94.4193 80.1995 94.1538 79.7717 93.8834C78.3407 92.9868 76.9375 92.0454 75.5603 91.0687C75.3026 90.8869 75.0436 90.702 74.7864 90.5128C74.6624 90.428 74.548 90.3413 74.4295 90.2534C74.2588 90.1315 74.093 90.0067 73.9236 89.8806C73.131 89.2901 72.3462 88.6881 71.5747 88.0655C70.1473 86.9234 68.7502 85.7413 67.3954 84.5095C67.0741 84.2203 66.7601 83.9312 66.4473 83.6377C65.0931 82.3817 63.7807 81.0753 62.5052 79.7289C62.2971 79.51 62.0859 79.2863 61.8783 79.0566C59.9548 76.9845 58.1275 74.8161 56.4115 72.5616C56.0999 72.1609 55.7991 71.7547 55.4978 71.3485C54.9563 70.6174 54.4335 69.876 53.9143 69.1298C53.1816 68.064 52.4706 66.9874 51.7845 65.8871C51.2665 65.0645 50.7643 64.2334 50.2742 63.3925C49.5681 62.1825 48.8898 60.9543 48.246 59.708C47.8073 58.8671 47.3789 58.0142 46.9681 57.1546C46.6443 56.4793 46.3285 55.7991 46.0247 55.1165C45.5256 54.0059 45.05 52.8826 44.5986 51.7465C43.5839 49.2113 42.6871 46.6204 41.9072 43.9669C41.5895 42.883 41.2937 41.7949 41.0123 40.6952C39.4554 34.5324 38.5418 28.1035 38.3542 21.48C38.2659 18.3525 38.3403 15.2481 38.5714 12.1879C38.6906 10.5905 38.8564 9.00281 39.0573 7.43029C39.6672 2.7703 34.155 -0.107408 30.6594 3.02491Z" fill="#FFD243"/>
    <g opacity="0.6">
        <path d="M160.073 106.196C155.351 108.314 150.39 110.011 145.242 111.245C139.308 112.671 133.119 113.482 126.741 113.604C126.596 113.614 126.447 113.612 126.298 113.616C124.066 113.651 121.854 113.595 119.658 113.458C118.323 113.382 116.995 113.268 115.672 113.125C115.056 113.062 114.444 112.986 113.833 112.906C110.841 112.528 107.889 111.994 104.99 111.318C101.904 110.596 98.8626 109.711 95.8947 108.673C93.6565 107.895 91.454 107.022 89.2878 106.07C87.3201 105.201 85.3821 104.266 83.4839 103.257C83.346 103.184 83.2129 103.113 83.0749 103.041C81.7734 102.343 80.4803 101.609 79.2145 100.85C78.7305 100.564 78.2512 100.267 77.775 99.9698C77.3321 99.697 76.8892 99.417 76.4548 99.1332C74.9996 98.1906 73.571 97.2012 72.1684 96.1773C71.9064 95.9864 71.6426 95.7924 71.38 95.5942C71.2541 95.505 71.1374 95.4141 71.0163 95.322C70.8427 95.1941 70.6739 95.0631 70.5008 94.9316C69.693 94.3126 68.8931 93.6821 68.1065 93.0311C66.6513 91.8362 65.2252 90.6001 63.8414 89.3138C63.5134 89.0119 63.1927 88.71 62.8726 88.4038C61.4888 87.092 60.1474 85.7298 58.8416 84.327C58.6286 84.0991 58.412 83.8657 58.2002 83.6268C56.2307 81.4681 54.3568 79.2124 52.5942 76.8687C52.2741 76.4523 51.9649 76.0303 51.6557 75.6084C51.0991 74.8488 50.5611 74.0789 50.0269 73.3042C49.2729 72.1978 48.5402 71.0806 47.8322 69.9391C47.298 69.0855 46.7794 68.2241 46.273 67.3524C45.5432 66.0981 44.8413 64.8256 44.1746 63.5344C43.7201 62.6633 43.2754 61.78 42.8488 60.8907C42.5124 60.1917 42.1844 59.4879 41.868 58.7817C41.3482 57.6329 40.8521 56.4708 40.3807 55.2965C39.3206 52.6752 38.3779 49.9988 37.5532 47.2593C37.2174 46.1402 36.9027 45.0175 36.6032 43.8827C34.9429 37.5247 33.927 30.9024 33.6396 24.0909C33.504 20.875 33.5331 17.685 33.7206 14.5424C33.8175 12.902 33.9609 11.2725 34.14 9.65874C34.4873 6.60644 32.3326 4.26705 29.8246 3.79481C30.1029 3.53898 30.3782 3.27892 30.6602 3.02673C34.1551 -0.105591 39.6673 2.77212 39.0586 7.43392C38.8577 9.00645 38.692 10.5941 38.5728 12.1915C38.3416 15.2523 38.2672 18.3561 38.3555 21.4836C38.5431 28.1071 39.4568 34.536 41.0136 40.6988C41.295 41.7985 41.5909 42.8867 41.9085 43.9706C42.6879 46.624 43.5852 49.215 44.5999 51.7502C45.0513 52.8862 45.5269 54.0095 46.0261 55.1201C46.3298 55.8027 46.6457 56.4823 46.9688 57.1582C47.3796 58.0172 47.808 58.8708 48.2467 59.7116C48.8905 60.958 49.5688 62.1862 50.2749 63.3962C50.765 64.237 51.2673 65.0681 51.7852 65.8908C52.4714 66.9911 53.1823 68.0683 53.9151 69.1334C54.4342 69.8803 54.957 70.6211 55.4986 71.3522C55.7993 71.7583 56.1006 72.1645 56.4122 72.5652C58.1276 74.8203 59.9549 76.9882 61.8791 79.0602C62.0866 79.29 62.2978 79.5137 62.506 79.7325C63.7814 81.0789 65.0933 82.3853 66.448 83.6414C66.7608 83.9348 67.0755 84.224 67.3962 84.5131C68.7515 85.745 70.1487 86.9271 71.5754 88.0692C72.3469 88.6918 73.1317 89.2931 73.9243 89.8842C74.0938 90.0103 74.2596 90.1352 74.4302 90.257C74.5488 90.3449 74.6631 90.4316 74.7872 90.5165C75.0449 90.7056 75.3039 90.8905 75.5611 91.0724C76.9382 92.049 78.342 92.9905 79.7724 93.887C80.2002 94.1574 80.6352 94.4229 81.0709 94.6824C81.5392 94.9649 82.0106 95.2462 82.4868 95.5184C83.732 96.2392 85.0051 96.9345 86.2867 97.5947C86.4222 97.6632 86.5541 97.7305 86.6896 97.799C88.5587 98.7538 90.4683 99.6358 92.4088 100.454C94.5447 101.349 96.7182 102.166 98.9279 102.892C101.859 103.859 104.864 104.676 107.916 105.334C110.784 105.95 113.705 106.428 116.669 106.752C117.274 106.821 117.881 106.887 118.491 106.939C119.802 107.059 121.118 107.152 122.442 107.206C124.619 107.307 126.813 107.331 129.029 107.264C129.176 107.258 129.323 107.258 129.468 107.247C135.799 107.036 141.952 106.158 147.862 104.686C152.988 103.411 157.936 101.688 162.652 99.56C166.909 97.6389 171.282 102.076 169.303 106.318C168.664 107.687 167.989 109.036 167.282 110.367C166.811 107.167 163.379 104.713 160.073 106.196Z" fill="white"/>
    </g>
    <path d="M32.6847 2.78242C14.3443 19.2079 3.08499 43.3231 3.84436 69.8869C5.21486 117.705 45.0246 155.363 92.7524 153.99C104.88 153.644 116.351 150.807 126.693 145.987C135.504 141.887 143.5 136.342 150.384 129.667C146.98 131.889 143.408 133.874 139.691 135.606C129.347 140.426 117.878 143.262 105.748 143.609C77.2776 144.429 51.6224 131.356 35.2684 110.523C36.6449 110.334 37.9537 109.846 39.13 109.039C44.707 105.209 45.24 95.6239 40.3184 87.6279C35.3997 79.6337 26.8869 76.2552 21.3093 80.0853C20.9009 80.3654 20.5209 80.6752 20.1687 81.014C18.2034 74.1632 17.0544 66.9571 16.842 59.5055C16.2139 37.5283 23.8107 17.228 36.8386 1.57302C35.4493 1.3269 33.9366 1.66153 32.6847 2.78242Z" fill="#FF9D33"/>
    <path d="M121.822 134.12C116.426 133.133 112.733 128.594 113.573 123.982C114.414 119.371 119.47 116.432 124.866 117.419C130.262 118.406 133.956 122.945 133.115 127.557C132.275 132.169 127.219 135.107 121.822 134.12Z" fill="#FF9D33"/>
    <path d="M71.765 110.285C65.6512 108.031 61.8307 103.112 63.2317 99.2967C64.6326 95.4818 70.7245 94.2162 76.8383 96.4699C82.952 98.7236 86.7725 103.643 85.3715 107.458C83.9706 111.273 77.8787 112.538 71.765 110.285Z" fill="#FF9D33"/>
    <path d="M72.0251 109.99C66.6897 108.023 63.0801 104.48 63.9627 102.077C64.8453 99.6734 69.886 99.3194 75.2213 101.286C80.5567 103.253 84.1663 106.795 83.2837 109.199C82.4011 111.602 77.3604 111.956 72.0251 109.99Z" fill="#FFD243"/>
    <path d="M117.371 129.903C117.006 126.591 120.031 123.538 124.129 123.084C128.226 122.631 131.843 124.948 132.209 128.261C132.574 131.573 129.548 134.626 125.451 135.079C121.354 135.533 117.736 133.215 117.371 129.903Z" fill="#FFD243"/>
    <path d="M81.8423 136.668C81.6862 137.479 81.4248 138.275 81.0533 139.039C78.4284 144.451 71.3279 146.293 65.1924 143.152C60.5854 140.791 57.8304 136.292 57.8583 131.91L81.8423 136.668Z" fill="#FFD243"/>
    <path d="M81.3711 136.577C79.053 143.549 70.8185 145.035 64.9287 141.594C61.3951 139.565 58.7799 136.095 58.2457 131.913C58.2233 131.696 58.0248 131.539 57.8088 131.566C57.6279 131.589 57.4923 131.734 57.4718 131.907C57.2933 133.415 57.4651 134.989 57.9443 136.465C60.332 144.116 70.2183 148.482 77.3056 144.413C80.1216 142.841 82.1286 139.852 82.3138 136.759C82.341 136.196 81.549 136.049 81.3711 136.577Z" fill="#371A45"/>
    <path d="M29.4209 75.934C26.4597 74.9282 23.4313 74.8252 20.6322 75.8194C15.5605 77.6217 12.6882 82.4962 11.9754 88.7033C11.5077 92.7752 12.0922 97.3692 13.8802 101.925C18.3922 113.425 28.8588 120.327 37.2585 117.343C40.3837 116.232 42.7829 113.909 44.3306 110.837C46.9421 105.653 46.8441 98.4579 44.0112 91.2373L29.4209 75.934Z" fill="#FFD243"/>
    <path d="M121.579 133.983C117.937 132.906 114.557 129.924 114.2 126.087C113.838 122.313 116.807 119.243 120.356 118.429C125.647 117.008 132.579 120.467 132.867 126.381C132.986 128.334 132.191 130.227 130.922 131.691C130.764 131.862 130.775 132.138 130.967 132.278C131.117 132.39 131.322 132.375 131.455 132.253C132.303 131.539 133.059 130.698 133.573 129.696C134.112 128.695 134.408 127.562 134.484 126.408C134.795 117.522 123.541 112.889 116.503 117.24C110.765 120.622 110.289 128.067 115.345 132.316C117.089 133.775 119.221 134.676 121.385 134.925C121.968 134.985 122.131 134.153 121.579 133.983Z" fill="#371A45"/>
    <path d="M136.378 123.386C137.678 127.929 136.017 132.565 132.194 135.243C123.344 141.664 107.836 135.49 108.997 123.635C109.061 123.173 108.379 123.018 108.241 123.471C107.621 125.514 107.669 127.782 108.29 129.883C111.009 138.581 121.892 142.575 130.033 139.245C133.374 137.924 136.359 135.286 137.624 131.851C138.739 129.048 138.603 125.687 137.276 123.042C137.01 122.526 136.231 122.828 136.378 123.386Z" fill="#371A45"/>
    <path d="M62.1338 132.71C62.0902 135.293 63.8316 137.929 66.7735 139.294C70.692 141.109 75.2579 139.982 76.9739 136.777C77.2165 136.325 77.389 135.854 77.4936 135.375C78.7855 130.067 74.6625 126.777 70.8699 125.955C66.5847 125.025 62.4623 127.036 62.1338 132.71Z" fill="#FF9D33"/>
    <path d="M62.4968 133.093C62.4533 135.676 64.1947 138.312 67.1366 139.676C71.055 141.491 75.6209 140.364 77.3369 137.159C77.5796 136.707 77.752 136.237 77.8567 135.758C77.0949 133.857 75.4842 132.15 73.2387 131.108C69.2592 129.263 64.6715 130.173 62.4968 133.093Z" fill="#FFD243"/>
    <path d="M72.8292 127.073C75.255 128.691 77.0412 131.586 76.565 134.467C76.1644 137.228 73.522 138.997 70.804 138.914C64.7787 138.909 60.0536 131.234 65.5665 126.945C65.7414 126.817 65.7795 126.571 65.6506 126.397C65.5405 126.248 65.3438 126.201 65.1811 126.272C64.3866 126.623 63.646 127.147 63.0421 127.819C61.1276 129.88 60.8669 133.096 61.9784 135.62C63.4487 139.07 67.0277 141.417 70.7574 141.505C77.351 141.675 81.1672 134.91 77.3794 129.446C76.3356 127.964 74.8816 126.831 73.2667 126.215C72.727 126.017 72.3579 126.759 72.8292 127.073Z" fill="#371A45"/>
    <path d="M18.2052 102.439C13.7064 94.2049 14.9012 84.8747 20.8739 81.599C26.8466 78.3232 35.3354 82.3424 39.8342 90.576C44.333 98.8096 43.1382 108.14 37.1655 111.415C31.1928 114.691 22.704 110.672 18.2052 102.439Z" fill="#FF9D33"/>
    <path d="M19.5159 104.474C15.1487 97.8282 14.999 90.2046 19.1813 87.4457C23.3637 84.6868 30.2944 87.8375 34.6615 94.4828C39.0286 101.128 39.1784 108.752 34.996 111.511C30.8137 114.27 23.883 111.119 19.5159 104.474Z" fill="#FFD243"/>
    <path d="M69.2283 114.188C74.0774 119.18 84.3122 118.295 88.0292 112.305C88.5453 111.396 88.8757 110.362 88.8624 109.341C88.8594 109.123 88.6815 108.949 88.4643 108.952C88.296 108.954 88.1539 109.062 88.0994 109.212C87.438 110.865 86.2025 112.039 84.7479 112.885C81.803 114.583 78.2215 115.137 74.8482 114.788C73.1316 114.601 71.4477 114.15 69.7801 113.403C69.3021 113.184 68.8592 113.81 69.2283 114.188Z" fill="#371A45"/>
    <path d="M31.4908 47.8049C32.2133 45.4988 32.5823 42.803 32.4886 39.915C32.2066 31.2473 27.8585 24.1261 22.7777 24.0097C17.6963 23.8933 13.8056 30.8248 14.0882 39.4925C14.3708 48.1601 18.7182 55.2814 23.7991 55.3978L31.4908 47.8049Z" fill="#FFD243"/>
    <path d="M21.1162 23.7351C16.2968 25.6119 14.3473 31.1339 13.4487 35.8194C12.3094 42.2065 13.5413 50.0388 18.8884 54.2878C20.2613 55.3311 22.0553 56.0349 23.7901 55.7821C24.0043 55.7524 24.1543 55.5548 24.1247 55.3402C24.1011 55.168 23.9692 55.0377 23.8076 55.0074C20.876 54.3411 19.0414 51.778 17.7587 49.2125C16.2787 46.1887 15.5193 42.8163 15.0909 39.4785C15.0195 36.8397 15.4775 34.1408 16.2563 31.6213C17.173 28.8049 18.7123 25.9241 21.4799 24.6262C22.022 24.3716 21.6953 23.5362 21.1162 23.7351Z" fill="#371A45"/>
    <path d="M17.9722 37.1149C17.7556 39.7059 18.1319 42.278 18.9276 44.4119C19.8619 46.9138 21.3703 48.8215 23.1746 49.4623C26.5177 50.6535 29.6102 47.0593 30.0804 41.4336C30.5318 36.0643 28.4297 30.7848 25.3281 29.2765C25.1811 29.2032 25.0298 29.1395 24.8779 29.0862C21.5349 27.8949 18.4424 31.4892 17.9722 37.1149Z" fill="#FF9D33"/>
    <path d="M19.6986 45.0124C18.4771 40.6326 19.4617 36.5292 21.8978 35.8473C24.3338 35.1654 27.2988 38.1631 28.5203 42.5429C29.7417 46.9228 28.7571 51.0261 26.3211 51.7081C23.8851 52.39 20.9201 49.3923 19.6986 45.0124Z" fill="#FFD243"/>
    <path d="M29.7229 45.2224C31.5067 40.7995 31.1164 35.1404 28.3258 31.1903C24.8841 26.5388 19.7228 28.1283 17.8344 33.1902C16.1032 37.6253 16.6654 43.3929 19.3156 47.3557C20.2377 48.6585 21.5241 49.9091 23.1433 50.2692C23.5051 50.3534 23.9202 50.3819 24.2863 50.3716C24.7661 50.3753 24.8224 49.6793 24.3522 49.6035C22.6538 49.3629 21.4672 47.9583 20.6933 46.5076C19.1607 43.4638 18.8412 39.8495 19.4705 36.5262C19.9122 34.4524 20.8543 31.785 22.983 31.0873C26.2679 30.3665 28.3905 35.8036 28.7947 38.4122C28.8601 38.7304 28.9563 39.3742 28.9865 39.698C29.2044 41.4275 29.1372 43.1964 28.8062 44.9345C28.6888 45.4989 29.499 45.751 29.7229 45.2224Z" fill="#371A45"/>
    <path d="M65.8164 95.8045C63.396 96.589 61.7297 99.0751 62.0159 101.648C62.2289 104.121 63.7234 106.313 65.4394 107.939C69.7705 111.967 77.2305 114.199 82.7173 111.369C83.7629 110.787 84.7135 109.94 85.2696 108.859C85.4269 108.46 86.0319 107.445 85.393 107.269C85.2115 107.226 85.0287 107.318 84.9513 107.479C84.3293 108.674 83.2474 109.46 82.0324 109.9C78.2295 111.186 73.9286 110.095 70.4464 108.309C67.4089 106.685 63.4323 103.428 64.0804 99.634C64.2958 98.4713 65.1254 97.4322 66.2508 96.6617C66.7149 96.3465 66.3379 95.6172 65.8164 95.8045Z" fill="#371A45"/>
    <path d="M90.4802 158.5L90.5025 158.474C90.6411 158.472 90.7791 158.47 90.917 158.468C91.0471 158.466 91.1802 158.463 91.3133 158.459L91.5094 158.455C91.68 158.45 91.8458 158.446 92.0128 158.439C92.1647 158.437 92.3371 158.432 92.5096 158.427L92.5961 158.422C92.7322 158.417 92.8684 158.411 93.0057 158.405C93.0941 158.405 93.183 158.401 93.2774 158.393C93.4553 158.387 93.6368 158.38 93.8166 158.371C93.9382 158.365 94.0356 158.36 94.133 158.352C94.2976 158.346 94.4604 158.338 94.6261 158.325L95.1362 158.295C95.4236 158.276 95.6959 158.258 95.97 158.238L97.1632 158.142C97.3193 158.129 97.4754 158.115 97.6309 158.101C97.6896 158.097 97.7495 158.091 97.8113 158.082C98.1846 158.05 98.5591 158.013 98.9355 157.972C99.1848 157.946 99.4341 157.917 99.6834 157.889L100.48 157.793C100.727 157.762 100.972 157.731 101.217 157.698L101.611 157.643C101.783 157.621 101.952 157.599 102.119 157.572C102.207 157.563 102.292 157.551 102.376 157.537L102.751 157.481C102.922 157.457 103.075 157.433 103.225 157.408C103.312 157.397 103.396 157.383 103.482 157.369C103.525 157.363 103.582 157.355 103.648 157.341C103.717 157.331 103.786 157.321 103.852 157.311C103.947 157.297 104.053 157.278 104.158 157.258C104.291 157.237 104.421 157.217 104.549 157.192C104.574 157.189 104.597 157.185 104.62 157.18C104.686 157.17 104.752 157.158 104.817 157.147L104.9 157.132C105.085 157.103 105.281 157.067 105.476 157.031L105.703 156.989C105.741 156.983 105.778 156.975 105.815 156.966C105.95 156.941 106.084 156.916 106.218 156.891L106.491 156.84C106.59 156.82 106.689 156.8 106.787 156.78C106.851 156.769 106.912 156.757 106.975 156.743C107.138 156.713 107.301 156.68 107.463 156.647L107.883 156.557C108.082 156.517 108.297 156.471 108.512 156.424L108.517 156.428L109.303 156.248C109.405 156.224 109.507 156.201 109.609 156.177L109.614 156.182L110.717 155.911C111.268 155.779 111.824 155.636 112.375 155.49C112.746 155.392 113.12 155.289 113.491 155.185C113.7 155.127 113.904 155.07 114.107 155.009C114.187 154.988 114.268 154.965 114.348 154.94C114.418 154.921 114.487 154.901 114.557 154.878C114.748 154.823 114.938 154.766 115.127 154.709C115.399 154.628 115.674 154.544 115.946 154.458C116.179 154.387 116.42 154.31 116.661 154.232C116.723 154.215 116.786 154.195 116.846 154.174C117.149 154.075 117.453 153.976 117.756 153.873L117.953 153.807C118.188 153.728 118.421 153.65 118.656 153.567C118.808 153.516 118.974 153.457 119.141 153.396C119.287 153.346 119.438 153.293 119.589 153.238C119.637 153.223 119.685 153.205 119.733 153.184C120.024 153.081 120.315 152.975 120.601 152.865C121.372 152.581 122.179 152.266 123.056 151.909C123.8 151.606 124.446 151.333 125.027 151.076L125.264 150.973C125.485 150.876 125.706 150.779 125.926 150.68C125.979 150.657 126.051 150.626 126.121 150.592L127.28 150.057C127.489 149.958 127.691 149.864 127.891 149.768C128.055 149.693 128.234 149.604 128.414 149.514C128.69 149.383 128.983 149.236 129.276 149.089C129.387 149.038 129.492 148.984 129.599 148.927C129.771 148.842 129.967 148.742 130.162 148.642L130.377 148.532C130.394 148.524 130.422 148.51 130.458 148.489C130.47 148.482 130.483 148.475 130.496 148.468C130.745 148.34 130.992 148.211 131.239 148.078C131.316 148.039 131.394 147.998 131.47 147.955C131.535 147.923 131.59 147.892 131.63 147.868L131.783 147.785C132.038 147.646 132.292 147.508 132.547 147.366C132.63 147.323 132.738 147.264 132.843 147.203C133.121 147.05 133.415 146.882 133.709 146.713L133.749 146.691C133.781 146.673 133.813 146.655 133.846 146.635L133.894 146.608C134.06 146.513 134.225 146.42 134.388 146.322C134.49 146.263 134.589 146.205 134.689 146.144L134.729 146.121C134.806 146.077 134.881 146.033 134.955 145.987L135.037 145.939C135.138 145.879 135.238 145.82 135.337 145.758C135.586 145.609 135.849 145.449 136.11 145.288C136.21 145.23 136.307 145.17 136.405 145.106C136.641 144.963 136.873 144.815 137.106 144.666C137.302 144.544 137.503 144.413 137.707 144.281L138.256 143.926C138.313 143.89 138.391 143.839 138.471 143.784C138.584 143.71 138.719 143.62 138.854 143.529L139.119 143.354C139.153 143.332 139.194 143.303 139.234 143.275C139.514 143.087 139.778 142.909 140.038 142.729L140.28 142.559C140.423 142.461 140.579 142.352 140.734 142.243L140.953 142.088C141.122 141.968 141.289 141.849 141.457 141.727C141.518 141.685 141.6 141.624 141.681 141.564L141.721 141.535C141.885 141.419 142.066 141.287 142.249 141.153L142.363 141.069C142.445 141.008 142.527 140.947 142.608 140.883C142.837 140.714 143.069 140.542 143.298 140.367L143.433 140.266C143.632 140.115 143.819 139.971 144.005 139.827L144.013 139.82C144.042 139.799 144.068 139.779 144.094 139.758L144.167 139.701C144.23 139.652 144.294 139.602 144.356 139.551C144.498 139.444 144.636 139.334 144.774 139.223C144.903 139.122 145.023 139.028 145.142 138.93C145.188 138.893 145.233 138.855 145.279 138.821C145.315 138.794 145.338 138.775 145.361 138.756L145.39 138.732C145.706 138.479 146.02 138.222 146.331 137.96C146.422 137.887 146.537 137.792 146.649 137.698L146.7 137.656C146.869 137.514 147.037 137.373 147.203 137.229C147.252 137.191 147.291 137.157 147.321 137.128C147.587 136.904 147.848 136.676 148.111 136.447C148.155 136.409 148.199 136.37 148.244 136.329C148.323 136.265 148.399 136.197 148.475 136.126L148.805 135.835C148.933 135.722 149.063 135.607 149.189 135.488C149.29 135.402 149.388 135.312 149.485 135.223C149.642 135.079 149.781 134.952 149.914 134.825C149.989 134.76 150.064 134.692 150.134 134.623L150.415 134.362C150.536 134.249 150.657 134.135 150.777 134.02L150.965 133.841C150.996 133.814 151.025 133.788 151.054 133.758C151.18 133.638 151.305 133.518 151.429 133.398L151.498 133.352L151.578 133.252L151.812 133.024C151.866 132.975 151.931 132.91 151.996 132.847C153.186 131.677 154.345 130.47 155.457 129.246C155.989 128.665 156.56 128.02 157.199 127.277C157.453 126.977 157.7 126.685 157.946 126.392C158.214 126.073 158.482 125.746 158.747 125.419C158.979 125.133 159.208 124.847 159.436 124.56C161.702 121.7 163.81 118.677 165.717 115.553C166.109 114.914 166.52 114.218 166.974 113.429C167.592 112.348 168.189 111.252 168.752 110.169C168.942 109.802 169.129 109.434 169.314 109.065C169.715 108.262 170.069 107.532 170.396 106.831C170.433 106.752 170.472 106.662 170.511 106.57C170.554 106.469 170.592 106.37 170.625 106.272C170.944 105.387 171.061 104.474 170.97 103.559C170.85 102.362 170.381 101.223 169.614 100.263C169.043 99.5533 168.318 98.9623 167.517 98.5507C167.121 98.3494 166.708 98.1924 166.283 98.0808L166.27 98.0705L165.986 98.0093C165.701 97.9493 165.434 97.9129 165.171 97.8966C165.036 97.885 164.895 97.8796 164.742 97.8796C163.866 97.8796 162.999 98.0699 162.164 98.4452L161.2 98.8744C160.8 99.0508 160.396 99.2217 159.991 99.3891L159.201 99.717C158.98 99.808 158.751 99.8977 158.522 99.988L158.231 100.103C151.97 102.56 145.411 104.283 138.738 105.225C138.381 105.274 138.025 105.324 137.669 105.368C137.302 105.415 136.944 105.46 136.583 105.501C136.239 105.542 135.901 105.577 135.563 105.613L135.491 105.621C133.302 105.846 131.081 105.991 128.892 106.05C128.485 106.062 128.082 106.068 127.678 106.075C127.261 106.081 126.841 106.084 126.423 106.084L126.399 106.082L126.348 106.084C125.914 106.082 125.492 106.08 125.065 106.073C124.695 106.066 124.329 106.057 123.962 106.049L123.84 106.046C123.129 106.022 122.46 105.994 121.807 105.957C121.27 105.93 120.741 105.898 120.211 105.858C120.012 105.844 119.819 105.831 119.628 105.815C119.309 105.79 118.994 105.764 118.682 105.733L118.607 105.726C118.476 105.715 118.346 105.704 118.214 105.691L117.916 105.662C117.732 105.643 117.548 105.625 117.364 105.605C112.46 105.089 107.576 104.144 102.843 102.795C82.6136 97.0412 65.1129 84.0888 53.5639 66.3242C46.4724 55.4147 42.0087 43.3541 40.2982 30.4786L40.2715 30.2768C40.2552 30.1555 40.2389 30.0343 40.2237 29.9124C40.1874 29.6226 40.1535 29.3329 40.1197 29.0431C40.0561 28.4914 39.9938 27.9368 39.9412 27.3803C39.9 26.9632 39.8631 26.5455 39.8298 26.1272C39.7978 25.7447 39.7681 25.3706 39.7439 24.9936L39.7403 24.9475C39.7342 24.8905 39.7318 24.8335 39.7288 24.7766C39.7082 24.4704 39.6913 24.1952 39.6755 23.9175C39.6628 23.7223 39.6531 23.5356 39.6453 23.3507C39.6259 23.0137 39.6138 22.6966 39.6011 22.379L39.5939 22.1995C39.5836 21.9516 39.5763 21.6909 39.5684 21.4296L39.5606 21.1611C39.5606 21.1374 39.5594 21.1132 39.5587 21.0889L39.5582 21.0538C39.5418 20.3797 39.5327 19.6662 39.5321 18.8732C39.5309 18.5756 39.5315 18.284 39.5364 17.9918C39.5382 17.6978 39.5424 17.4165 39.5509 17.1346C39.583 15.4505 39.6658 13.7561 39.7971 12.086C39.8201 11.7914 39.8437 11.501 39.871 11.21C39.9109 10.7208 39.9581 10.2455 40.0071 9.77209C40.0349 9.4993 40.0634 9.23135 40.0955 8.9634C40.1445 8.51177 40.1977 8.0759 40.2552 7.63942C40.2752 7.47756 40.2909 7.33025 40.2994 7.18112C40.4785 4.34221 38.7752 1.79429 36.0614 0.848588C35.8073 0.759475 35.5513 0.687335 35.302 0.6352L35.1012 0.598221C35.0764 0.593977 35.0461 0.589734 35.0158 0.58549C33.8226 0.38362 32.6016 0.54063 31.5016 1.04197L31.4767 1.05288C31.4072 1.08501 31.3606 1.10926 31.314 1.13351L31.2371 1.1717C31.179 1.19959 31.1204 1.22808 31.0629 1.26021L30.9655 1.31659C30.9285 1.3378 30.891 1.35902 30.8535 1.38145C30.8075 1.40631 30.7646 1.43298 30.7228 1.46147C30.6405 1.513 30.5716 1.55786 30.505 1.60515C30.4584 1.63667 30.4118 1.67062 30.3658 1.70578C30.1946 1.83005 30.0264 1.96645 29.8654 2.11194C29.6137 2.33867 29.3578 2.56964 29.1055 2.80061C28.5554 3.30498 28.0623 3.76631 27.5976 4.21127C26.8044 4.97389 26.0819 5.69104 25.3885 6.40517C24.9879 6.818 24.5928 7.22962 24.2019 7.64912C23.8389 8.03771 23.4752 8.43235 23.1182 8.82761C22.4938 9.51688 21.8718 10.2261 21.2709 10.933C19.5053 13.0147 17.8202 15.1947 16.2627 17.4135C16.0273 17.7475 15.7926 18.0851 15.562 18.4222C15.1088 19.0854 14.6562 19.7692 14.2151 20.4561C13.9096 20.9283 13.6082 21.406 13.3093 21.8885C12.6099 23.0252 11.9382 24.1679 11.3138 25.287C11.1825 25.5192 11.0512 25.7586 10.9217 25.9993C10.3439 27.0541 9.75452 28.1877 9.17546 29.3602C8.9068 29.9058 8.64601 30.4507 8.39008 30.9994C7.31909 33.2896 6.33824 35.6448 5.4754 37.9981C5.36528 38.2934 5.25577 38.5959 5.15048 38.8984C4.71725 40.1156 4.31306 41.3354 3.95122 42.5175C3.85623 42.8224 3.76244 43.1292 3.67288 43.4401C3.64807 43.5183 3.61601 43.6269 3.58455 43.7354L3.54523 43.8712C3.48412 44.0827 3.43086 44.2682 3.37943 44.4513C3.00247 45.7801 2.65092 47.1411 2.33568 48.4942C2.28787 48.6918 2.24188 48.8979 2.19589 49.104C2.10091 49.5169 2.01317 49.9163 1.92967 50.3146L1.78566 51.0197C1.47343 52.5534 1.19873 54.1229 0.968796 55.6845C0.919785 56.0064 0.872589 56.3307 0.829636 56.6587L0.730408 57.4007C0.714676 57.525 0.698944 57.6486 0.684418 57.7723C0.652344 58.016 0.622101 58.2797 0.591843 58.544L0.570068 58.7356C0.531952 59.0575 0.498062 59.3861 0.464783 59.7152C0.430893 60.0432 0.40004 60.3724 0.370392 60.6997C0.339523 61.0216 0.312897 61.3502 0.285675 61.6782C0.258438 62.011 0.235443 62.3401 0.212463 62.6742C0.188858 63.01 0.167084 63.3465 0.147125 63.6847L0.136826 63.8805C0.12291 64.14 0.109604 64.3983 0.0975037 64.6601C0.0817719 65.0124 0.06604 65.3646 0.0545349 65.7156C0.0321503 66.3575 0.0170288 67.0068 0.00733948 67.653C-0.00112915 68.3235 -0.0017395 68.991 0.00250244 69.662C0.00854492 70.3592 0.0224609 71.0387 0.0430298 71.685C0.0720825 72.6088 0.110199 73.4576 0.15921 74.279C0.206406 75.0737 0.268723 75.9145 0.349197 76.8512C2.19287 97.7383 11.4288 117.437 26.3572 132.323C41.2185 147.142 60.8096 156.31 81.522 158.139L81.8324 158.165C82.0581 158.184 82.285 158.203 82.5113 158.22C82.8417 158.245 83.1714 158.27 83.5012 158.29L83.6773 158.301C83.949 158.318 84.2188 158.335 84.4899 158.35L84.8481 158.367C85.0623 158.378 85.2759 158.389 85.4913 158.398C85.7424 158.41 86.0032 158.419 86.2658 158.428L86.4449 158.434C86.4395 158.434 86.4703 158.435 86.5012 158.435C86.8176 158.447 87.1553 158.456 87.4923 158.462C87.5135 158.463 87.5625 158.464 87.6115 158.464L87.6871 158.465C87.9461 158.47 88.1821 158.474 88.4156 158.475L88.5832 158.477C88.7424 158.479 88.9021 158.482 89.0612 158.481C89.3251 158.482 89.5955 158.482 89.869 158.479L90.4802 158.5ZM89.4225 156.023L89.3928 156.056C89.2833 156.056 89.1738 156.056 89.0643 156.056C88.9094 156.056 88.7593 156.054 88.6105 156.053L88.4338 156.051C88.2045 156.05 87.9776 156.046 87.7537 156.042C87.7319 156.041 87.6829 156.041 87.6339 156.04L87.5582 156.039C87.2091 156.033 86.8878 156.024 86.5683 156.012L86.3457 156.005C86.0952 155.996 85.8465 155.988 85.599 155.976C85.3818 155.967 85.1754 155.956 84.9691 155.946L84.6127 155.928C84.3556 155.914 84.0912 155.898 83.8243 155.881L83.6495 155.87C83.3318 155.85 83.0117 155.826 82.6916 155.802C82.472 155.786 82.2529 155.767 82.0339 155.749L81.7259 155.724C39.6888 152.012 6.4756 118.752 2.75862 76.6408C2.67996 75.7284 2.61945 74.9082 2.57286 74.1353C2.52505 73.3369 2.48816 72.5112 2.46033 71.6098C2.44035 70.9812 2.42764 70.3204 2.42099 69.6444C2.41675 68.9928 2.41736 68.3405 2.42583 67.6876C2.43491 67.0602 2.45003 66.4267 2.47182 65.7992C2.48331 65.4555 2.49844 65.1124 2.51418 64.7699C2.52567 64.5146 2.53899 64.2631 2.55229 64.0103L2.56258 63.8199C2.58133 63.498 2.60251 63.1713 2.6255 62.8421C2.64729 62.5178 2.66968 62.2007 2.69569 61.8825C2.72232 61.5618 2.74834 61.2441 2.77859 60.9252C2.80763 60.6015 2.83788 60.282 2.87054 59.9644C2.90323 59.6479 2.9353 59.3315 2.97221 59.0181L2.9946 58.8205C3.02364 58.5689 3.05208 58.3185 3.08475 58.0694C3.09988 57.9372 3.1144 57.8238 3.12892 57.7099L3.22513 56.9866C3.26749 56.6617 3.31287 56.3538 3.36006 56.0434C3.58394 54.5206 3.85139 52.9947 4.15514 51.5034L4.29793 50.8057C4.37659 50.431 4.4613 50.0473 4.54964 49.6623L4.5563 49.632C4.59926 49.4399 4.64162 49.2477 4.6882 49.0549C4.9968 47.7297 5.33867 46.4058 5.70595 45.1109C5.75677 44.929 5.80881 44.749 5.86086 44.5683L5.90683 44.4107C5.93285 44.3204 5.95886 44.23 5.98669 44.1415C6.08047 43.8178 6.17003 43.5268 6.2608 43.2334C6.61356 42.081 7.00626 40.8958 7.42981 39.7058C7.53206 39.413 7.63614 39.1257 7.74263 38.8408C8.58429 36.5462 9.5379 34.2566 10.5798 32.0281C10.8297 31.494 11.0833 30.9636 11.3434 30.435C11.9068 29.2953 12.4804 28.1914 13.0473 27.1572C13.1732 26.9226 13.2966 26.6983 13.4219 26.4764C14.033 25.3828 14.6859 24.2698 15.3666 23.164C15.6552 22.6966 15.9481 22.2335 16.247 21.7715C16.6778 21.1011 17.1177 20.436 17.5576 19.7929C17.7821 19.4649 18.0108 19.1357 18.2395 18.8108L18.2407 18.809C19.7564 16.6508 21.3956 14.5297 23.1134 12.5049C23.6973 11.8181 24.3024 11.1282 24.9111 10.4559C25.2602 10.0691 25.6148 9.6848 25.9699 9.3047C26.3505 8.89611 26.7342 8.49661 27.1226 8.09651C27.7961 7.403 28.4986 6.70524 29.27 5.96384C29.7202 5.53222 30.2006 5.08301 30.7373 4.59137C30.9836 4.36586 31.2347 4.13974 31.4834 3.91544C31.5851 3.8239 31.6873 3.74085 31.7902 3.66628L31.9088 3.58081C31.9433 3.55534 31.9784 3.53473 32.0141 3.5123L32.4721 3.26436C33.151 2.95216 33.8916 2.85698 34.6304 2.98186L34.8174 3.01339C34.9602 3.0443 35.1096 3.08674 35.2615 3.14009C36.658 3.62688 38.0079 5.01996 37.8809 7.03806C37.8748 7.14293 37.8639 7.23872 37.8518 7.33632C37.7937 7.78007 37.7375 8.23473 37.6885 8.6906C37.6564 8.95855 37.6268 9.23984 37.5977 9.52536C37.5475 10.0146 37.4985 10.5068 37.4585 10.9985C37.4313 11.287 37.4065 11.5901 37.3829 11.8975C37.248 13.6143 37.1627 15.3578 37.13 17.0776C37.1215 17.365 37.1173 17.6638 37.1149 17.9645C37.11 18.2622 37.1088 18.5701 37.1106 18.8805C37.1112 19.6886 37.1203 20.4209 37.1372 21.1144C37.1372 21.1156 37.1378 21.1477 37.1391 21.1799L37.1481 21.5012C37.156 21.7728 37.1639 22.0437 37.1748 22.3153L37.1814 22.4881C37.1935 22.8076 37.2068 23.1404 37.2262 23.4744C37.234 23.6575 37.2449 23.8612 37.2576 24.0624C37.2728 24.3407 37.2903 24.6274 37.3103 24.916C37.3139 24.993 37.3188 25.0809 37.3272 25.1694C37.3521 25.5568 37.3823 25.9411 37.415 26.3273C37.4489 26.7546 37.4876 27.1875 37.5293 27.6155C37.5838 28.1841 37.6479 28.7539 37.7127 29.3232C37.7471 29.6226 37.7822 29.9203 37.8198 30.2167C37.8355 30.3447 37.853 30.4726 37.87 30.6011L37.896 30.7987C39.655 44.0367 44.2433 56.4344 51.5332 67.6494C63.4018 85.905 81.3883 99.2157 102.179 105.129C107.045 106.515 112.066 107.487 117.104 108.018C117.29 108.039 117.483 108.057 117.677 108.076L117.974 108.106C118.121 108.12 118.259 108.132 118.397 108.143L118.458 108.149C118.772 108.18 119.103 108.208 119.432 108.233C119.627 108.249 119.829 108.263 120.033 108.278C120.576 108.319 121.124 108.352 121.676 108.38C122.343 108.417 123.029 108.446 123.77 108.471L123.904 108.474C124.275 108.483 124.647 108.491 125.02 108.497C125.452 108.505 125.887 108.499 126.319 108.51L126.342 108.511L126.393 108.509C126.832 108.509 127.273 108.507 127.714 108.5C128.128 108.493 128.54 108.487 128.955 108.475C131.204 108.413 133.487 108.265 135.739 108.033L135.814 108.025C136.161 107.988 136.508 107.952 136.855 107.911C137.222 107.871 137.593 107.823 137.964 107.775C138.329 107.731 138.699 107.679 139.064 107.628C145.932 106.659 152.675 104.887 159.115 102.361L159.404 102.247C159.643 102.152 159.884 102.058 160.122 101.96L160.915 101.631C161.333 101.459 161.755 101.28 162.174 101.096L163.14 100.665C163.749 100.391 164.363 100.26 164.968 100.316L165.012 100.319C165.134 100.326 165.263 100.342 165.402 100.368L165.488 100.387C165.809 100.454 166.12 100.564 166.414 100.714C166.912 100.969 167.367 101.34 167.725 101.785C168.197 102.375 168.486 103.074 168.559 103.802C168.614 104.355 168.541 104.914 168.343 105.459L168.333 105.488C168.317 105.536 168.297 105.584 168.278 105.63C168.257 105.68 168.233 105.738 168.205 105.796C167.883 106.488 167.538 107.198 167.148 107.98C166.967 108.339 166.785 108.698 166.601 109.053C166.054 110.106 165.472 111.173 164.872 112.224C164.431 112.991 164.031 113.667 163.65 114.288C161.793 117.331 159.743 120.272 157.554 123.033C157.317 123.331 157.093 123.612 156.868 123.889C156.612 124.203 156.352 124.521 156.088 124.834C155.844 125.127 155.6 125.415 155.356 125.702C154.739 126.419 154.184 127.046 153.666 127.613C152.582 128.807 151.455 129.979 150.313 131.102C150.244 131.169 150.196 131.217 150.147 131.263L149.772 131.628C149.64 131.756 149.507 131.884 149.374 132.011L149.209 132.166L149.09 132.28C148.983 132.384 148.871 132.488 148.759 132.593L148.443 132.887C148.397 132.933 148.345 132.977 148.296 133.021L148.266 133.049C148.135 133.172 148.001 133.295 147.866 133.419C147.766 133.51 147.684 133.586 147.6 133.657L147.546 133.706C147.433 133.812 147.316 133.916 147.201 134.017L146.824 134.351C146.785 134.389 146.745 134.424 146.703 134.457L146.602 134.545C146.574 134.571 146.547 134.595 146.519 134.619C146.266 134.84 146.016 135.057 145.762 135.272L145.754 135.276L145.659 135.358C145.488 135.507 145.316 135.652 145.143 135.796L145.094 135.837C144.994 135.921 144.892 136.006 144.79 136.088C144.475 136.353 144.179 136.594 143.881 136.834C143.859 136.851 143.839 136.868 143.818 136.885C143.753 136.934 143.678 136.994 143.603 137.055C143.499 137.141 143.393 137.224 143.287 137.307L143.253 137.333C143.128 137.433 143.004 137.533 142.875 137.63L142.83 137.666C142.78 137.707 142.728 137.748 142.676 137.788L142.57 137.872C142.554 137.883 142.531 137.9 142.507 137.92C142.332 138.055 142.157 138.191 141.981 138.324L141.843 138.428C141.604 138.609 141.376 138.778 141.15 138.945L141.121 138.968C141.054 139.021 140.986 139.071 140.918 139.122L140.803 139.208C140.642 139.326 140.472 139.45 140.299 139.572L140.238 139.617C140.176 139.663 140.112 139.71 140.049 139.755C139.868 139.886 139.709 139.999 139.549 140.113L139.34 140.26C139.194 140.363 139.046 140.466 138.898 140.568L138.648 140.743C138.402 140.914 138.149 141.084 137.896 141.254L137.51 141.514C137.378 141.601 137.248 141.688 137.116 141.774C137.047 141.822 137.004 141.851 136.958 141.88L136.388 142.249C136.193 142.375 136.002 142.499 135.809 142.62C135.577 142.767 135.354 142.91 135.128 143.047L135.091 143.071C135.021 143.117 134.951 143.159 134.879 143.201L134.846 143.221C134.591 143.379 134.335 143.535 134.076 143.689C133.973 143.753 133.887 143.804 133.799 143.856L133.695 143.917C133.624 143.961 133.569 143.993 133.514 144.025L133.451 144.062C133.346 144.125 133.261 144.175 133.172 144.225L133.145 144.241C132.998 144.331 132.847 144.416 132.696 144.502L132.492 144.619C132.22 144.774 131.938 144.936 131.65 145.095C131.55 145.152 131.468 145.196 131.388 145.238C131.118 145.389 130.873 145.522 130.626 145.655L130.416 145.77C130.41 145.774 130.414 145.773 130.419 145.77L130.286 145.839C130.235 145.869 130.182 145.896 130.13 145.922L130.099 145.938C129.857 146.069 129.613 146.196 129.368 146.322L129.056 146.484C128.867 146.581 128.68 146.676 128.489 146.772C128.392 146.822 128.323 146.859 128.251 146.892L128.207 146.913C127.915 147.059 127.632 147.201 127.347 147.338C127.173 147.425 127.018 147.502 126.862 147.574C126.575 147.711 126.304 147.838 126.033 147.965L125.083 148.403C125.025 148.431 124.988 148.447 124.951 148.462C124.717 148.567 124.502 148.661 124.288 148.755L124.046 148.861C123.484 149.11 122.861 149.373 122.138 149.667C121.287 150.015 120.504 150.32 119.743 150.6C119.447 150.714 119.163 150.817 118.877 150.917L118.786 150.953C118.637 151.007 118.486 151.06 118.334 151.113C118.159 151.176 118.013 151.228 117.864 151.278C117.624 151.362 117.402 151.436 117.178 151.512L116.975 151.579C116.675 151.682 116.377 151.779 116.079 151.876L116.045 151.887C116.034 151.891 116.023 151.895 116.011 151.898L115.941 151.918C115.705 151.995 115.468 152.071 115.227 152.144C114.955 152.231 114.693 152.31 114.429 152.388C114.237 152.446 114.051 152.502 113.862 152.557L113.827 152.568C113.788 152.58 113.75 152.592 113.711 152.602L113.642 152.621C113.585 152.639 113.525 152.656 113.467 152.671L113.427 152.682C113.232 152.741 113.035 152.796 112.839 152.851C112.473 152.953 112.113 153.053 111.752 153.147C111.232 153.285 110.711 153.419 110.19 153.545L110.136 153.502L109.548 153.702C109.267 153.769 109.008 153.829 108.751 153.889L108.421 153.963C108.305 153.987 108.19 154.013 108.075 154.039L108.02 154.051C107.808 154.098 107.592 154.144 107.378 154.187L106.953 154.278C106.817 154.306 106.662 154.338 106.506 154.366L106.314 154.403C106.216 154.424 106.116 154.444 106.015 154.464L105.764 154.512C105.627 154.537 105.49 154.563 105.352 154.587L105.039 154.649C104.856 154.683 104.676 154.715 104.496 154.744L104.385 154.764C104.333 154.773 104.281 154.783 104.228 154.791L104.121 154.808C104.001 154.831 103.881 154.85 103.757 154.869L103.714 154.877C103.637 154.892 103.557 154.906 103.479 154.917C103.406 154.929 103.339 154.939 103.274 154.947L103.083 154.979C103.019 154.991 102.957 155 102.892 155.008L102.838 155.016C102.701 155.04 102.563 155.061 102.422 155.081C102.389 155.085 102.344 155.091 102.3 155.099L101.957 155.151C101.917 155.158 101.877 155.163 101.836 155.167L101.756 155.177C101.603 155.203 101.448 155.222 101.289 155.243L100.898 155.297C100.652 155.329 100.412 155.36 100.17 155.39L99.405 155.482C99.1618 155.51 98.9179 155.537 98.6741 155.563C98.299 155.604 97.9268 155.641 97.5553 155.673L97.4343 155.685C97.0961 155.717 96.756 155.746 96.4178 155.773L95.7885 155.822C95.5144 155.842 95.2488 155.86 94.9831 155.878L94.4585 155.908C94.2927 155.921 94.153 155.928 94.0108 155.933L93.9491 155.936C93.871 155.943 93.796 155.947 93.7179 155.95C93.5146 155.96 93.3349 155.967 93.1588 155.973L93.1062 155.976C93.0608 155.98 93.0172 155.981 92.9773 155.982H92.941L92.9047 155.984C92.7649 155.991 92.6264 155.996 92.4878 156.002L92.3916 156.006C92.2403 156.01 92.0891 156.015 91.9366 156.018C91.7563 156.025 91.6008 156.029 91.4453 156.033L91.2462 156.038C91.124 156.041 91.0005 156.044 90.8777 156.045C90.6024 156.05 90.3313 156.054 90.0578 156.056H90.0106L89.4225 156.023ZM105.257 154.606H105.255C105.256 154.607 105.256 154.607 105.257 154.606ZM109.518 153.712L109.51 153.715C109.512 153.713 109.515 153.712 109.518 153.712ZM109.586 153.691C109.585 153.691 109.584 153.692 109.582 153.692C109.584 153.692 109.585 153.692 109.586 153.691ZM129.304 146.359L129.274 146.374C129.286 146.368 129.296 146.363 129.304 146.359ZM126.417 108.507C126.414 108.507 126.41 108.507 126.407 108.507H126.417ZM126.332 106.084H126.322C126.325 106.084 126.329 106.084 126.332 106.084Z" fill="#371A45"/>
    <path d="M20.6323 75.82C16.0821 76.9384 12.9841 81.008 11.7298 85.3679C9.51157 92.7595 11.2251 100.902 15.1575 107.41C18.7275 113.242 24.6161 118.348 31.6834 118.9C35.5492 119.221 39.5675 117.654 42.055 114.675C43.0237 113.53 43.7891 112.226 44.3301 110.837C43.5368 112.081 42.6135 113.221 41.5413 114.17C33.0115 121.458 22.1407 114.197 17.3721 106.054C14.4647 101.258 12.7475 95.6293 12.8855 89.9921C12.9986 84.3634 15.1799 78.2794 20.6323 75.82Z" fill="#371A45"/>
    <path d="M28.4632 112.739C33.5561 114.868 39.0308 112.836 41.5903 107.942C43.9876 103.397 43.8279 97.9305 42.2837 93.1499C40.1908 86.8386 35.3792 80.8164 28.6647 79.2312C23.1203 77.9405 17.9699 81.0195 16.1293 86.3342C15.5502 87.9328 15.2519 89.5999 15.1902 91.2573C15.0728 94.5757 15.8092 97.8432 17.1525 100.776C17.3649 101.215 18.0165 100.951 17.8725 100.492C16.0779 94.894 15.9139 87.8425 20.3309 83.4959C24.9809 79.196 31.6695 81.9955 35.384 86.259C40.2071 91.6713 42.7871 100.131 39.7345 106.993C38.2333 110.389 34.7287 112.565 31.0033 112.209C30.2536 112.166 29.5033 112.024 28.7639 111.825C28.1842 111.67 27.9101 112.52 28.4632 112.739Z" fill="#371A45"/>
    <path d="M86.9795 118.658C74.5869 131.791 59.0601 109.621 59.0601 109.621L64.6558 100.485L81.2954 106.433L86.9795 118.658Z" fill="white"/>
    <g opacity="0.25">
        <path d="M86.98 118.481C74.588 131.615 59.0587 109.443 59.0587 109.443L60.3052 107.409C64.4227 112.398 75.783 124.131 85.5641 115.438L86.98 118.481Z" fill="#371A45"/>
    </g>
    <path d="M143.059 75.138C143.059 75.1532 143.056 75.1653 143.056 75.1774C143.049 75.2623 143.04 75.3502 143.028 75.435C143.022 75.4835 143.016 75.529 143.013 75.5745C142.984 75.8455 142.941 76.1134 142.892 76.3813C142.873 76.4893 142.855 76.5905 142.838 76.6748C142.81 76.8142 142.786 76.9203 142.771 76.987C142.765 77.0051 142.762 77.0233 142.756 77.0415C142.75 77.0688 142.747 77.084 142.747 77.084C142.747 77.084 142.747 77.087 142.744 77.0961C141.933 80.503 139.803 83.722 137.425 86.3166C137.425 86.3197 137.419 86.3257 137.413 86.3318C135.468 88.4566 133.356 90.1661 131.671 91.2149C131.638 91.2361 131.601 91.2573 131.568 91.2785C131.607 91.3331 131.644 91.3907 131.683 91.4482C133.638 94.3914 135.047 99.0078 135.047 99.0078C142.659 99.514 142.257 105.373 142.257 105.373C140.796 113.002 129.904 116.74 123.145 115.476C118.741 114.654 115.987 110.223 114.602 107.24C114.599 107.234 114.599 107.231 114.599 107.231V107.228C113.864 105.64 113.516 104.464 113.516 104.464C106.355 126.187 78.8236 122.044 67.7326 105.619C54.3392 114.778 40.3469 109.756 37.8116 95.0946C37.8086 95.0886 37.8086 95.0855 37.8086 95.0855C37.0673 90.8087 37.3033 85.7134 38.81 79.9119C38.81 79.9119 80.9414 60.513 91.3306 62.8955C92.1535 63.0834 92.8765 63.3168 93.5088 63.5865C99.6776 66.1963 97.336 72.1766 96.4223 74.0407C96.2438 74.4014 96.1198 74.6076 96.1198 74.6076C102.827 76.7657 105.144 80.4666 105.144 80.4666C105.19 80.3181 105.235 80.1726 105.284 80.0271C105.825 78.3267 106.421 76.7505 107.063 75.3017C109.326 70.1943 112.142 66.6267 115.022 64.5262C119.098 61.5497 123.297 61.5012 126.222 64.1503C126.304 64.1049 126.386 64.0624 126.467 64.02C131.136 61.5588 136.064 62.6499 139.458 65.969C139.894 66.4115 140.284 66.8601 140.635 67.3117C142.611 69.8579 143.264 72.5282 143.059 75.138Z" fill="white"/>
    <g opacity="0.25">
        <path d="M101.112 76.9057C107.435 82.5265 92.0277 99.9249 85.7046 94.3041C85.7046 94.3041 89.8173 96.5568 91.8843 97.0115C93.9518 97.4661 91.2338 101.645 84.8249 98.3755C78.4159 95.1055 78.1188 93.9301 78.1188 93.9301C78.1188 93.9301 85.2103 102.072 89.1524 102.295C93.0944 102.518 94.7076 102.266 95.4645 101.18C96.2215 100.094 98.2872 94.9176 98.2872 94.9176L106.306 81.5772L103.859 78.8086L101.112 76.9057Z" fill="#371A45"/>
    </g>
    <g opacity="0.25">
        <path d="M113.516 102.911V104.287C106.355 126.01 78.8236 121.867 67.7325 105.442C54.3392 114.601 40.3468 109.579 37.8115 94.9176C37.9961 95.3662 46.2886 115.286 67.1275 99.5703C82.9593 119.191 107.15 121.446 112.103 99.1338L113.516 102.911Z" fill="#371A45"/>
    </g>
    <path d="M93.1094 120.282C94.305 120.282 95.4946 120.203 96.6691 120.039C104.45 118.957 110.354 114.372 113.511 107.038C114.861 110.158 117.855 115.413 122.98 116.37C126.587 117.044 131.218 116.36 135.067 114.584C139.557 112.512 142.428 109.302 143.148 105.544C143.155 105.508 143.159 105.472 143.162 105.435C143.169 105.332 143.315 102.884 141.512 100.816C140.21 99.3218 138.265 98.4276 135.726 98.1536C135.309 96.8993 134.241 93.9046 132.821 91.5495C137.101 88.6505 143.088 82.4823 143.908 75.7551C144.38 71.8832 143.1 68.3756 140.104 65.33C136.26 61.5721 131.042 60.7325 126.34 63.0615C124.21 61.3944 121.535 60.8986 118.735 61.6685C113.072 63.2264 107.927 69.5165 104.79 78.6286C103.564 77.3725 101.246 75.4944 97.4048 74.0874C98.117 72.5276 99.1946 69.3904 97.9954 66.5673C97.0351 64.3055 94.8605 62.7718 91.5326 62.0085C80.9655 59.5837 40.1646 78.2879 38.4329 79.0851C38.1854 79.199 38.0021 79.4185 37.9337 79.6822C34.6572 92.2933 37.0993 102.923 44.4649 108.116C50.7171 112.524 59.475 112.028 67.4953 106.867C73.4263 115.105 83.4705 120.282 93.1094 120.282ZM113.516 103.554C113.125 103.554 112.777 103.805 112.654 104.178C110.025 112.154 104.26 117.147 96.4198 118.238C86.1546 119.666 74.6679 114.267 68.4834 105.109C68.3479 104.909 68.1385 104.771 67.9019 104.726C67.6653 104.681 67.4197 104.732 67.22 104.868C59.5265 110.131 51.41 110.789 45.5093 106.628C38.8667 101.945 36.6642 92.2199 39.5831 80.5582C43.8689 78.6104 81.6789 61.6151 91.1272 63.7811C93.853 64.4061 95.6005 65.581 96.3223 67.2729C97.6051 70.2798 95.3639 74.1013 95.3415 74.1395C95.1999 74.3778 95.1739 74.6682 95.2713 74.9276C95.3687 75.1871 95.5793 75.3883 95.8425 75.4726C102.161 77.5046 104.355 80.9158 104.377 80.9504C104.566 81.2517 104.912 81.4141 105.264 81.3687C105.616 81.3226 105.909 81.0753 106.013 80.7352C108.899 71.3746 113.835 64.9026 119.217 63.4222C121.651 62.7524 123.864 63.2373 125.614 64.8238C125.902 65.0845 126.323 65.133 126.662 64.9451C130.776 62.6651 135.436 63.3065 138.825 66.6188C141.399 69.2371 142.508 72.2409 142.107 75.5344C141.319 81.9967 134.933 88.145 131.094 90.5025C130.881 90.6329 130.732 90.845 130.68 91.0893C130.628 91.3337 130.679 91.5883 130.821 91.7938C132.732 94.5715 134.165 99.226 134.179 99.2721C134.289 99.6334 134.611 99.8892 134.987 99.914C141.265 100.331 141.379 104.558 141.354 105.262C139.937 112.363 129.614 115.761 123.314 114.582C117.189 113.437 114.414 104.297 114.386 104.205C114.273 103.824 113.926 103.56 113.53 103.554C113.525 103.554 113.52 103.554 113.516 103.554Z" fill="#371A45"/>
    <path d="M91.8843 60.8919C91.8843 66.263 90.3837 71.2855 87.7698 75.5684C82.7507 83.8039 73.6322 89.3083 63.2188 89.3083C47.387 89.3083 34.5533 76.5869 34.5533 60.8919C34.5533 45.197 47.387 32.4755 63.2188 32.4755C65.3698 32.4755 67.4695 32.7119 69.4844 33.1575C82.3029 35.9885 91.8843 47.3309 91.8843 60.8919Z" fill="white"/>
    <g opacity="0.25">
        <path d="M89.1523 72.8362C88.7348 73.7122 88.272 74.5669 87.7697 75.3914C82.7506 83.6268 73.6321 89.1313 63.2188 89.1313C47.387 89.1313 34.5533 76.4098 34.5533 60.7149C34.5533 54.8497 36.3443 49.3999 39.4151 44.8745C37.6543 48.5572 36.6711 52.6765 36.6711 57.023C36.6711 72.718 49.5047 85.4394 65.3365 85.4394C75.2628 85.4394 84.0122 80.4381 89.1523 72.8362Z" fill="#371A45"/>
    </g>
    <path d="M91.8843 60.8919C91.8843 66.263 90.3837 71.2855 87.7698 75.5684C73.1148 88.8082 55.1168 80.4212 55.1168 80.4212L46.3402 67.2905C40.7705 50.465 52.0007 34.2426 69.4844 33.1575C82.3029 35.9885 91.8843 47.3308 91.8843 60.8919Z" fill="#371A45"/>
    <g opacity="0.45">
        <path d="M91.8843 60.8919C91.8843 61.3466 91.8722 61.8012 91.851 62.2498C91.2308 49.301 81.8672 38.6195 69.4844 35.8855C67.4695 35.4399 65.3698 35.2035 63.2188 35.2035C62.1811 35.2035 61.1585 35.258 60.1511 35.3641C62.9798 34.1365 66.1171 33.3666 69.4844 33.1575C82.3029 35.9885 91.8843 47.3308 91.8843 60.8919Z" fill="white"/>
    </g>
    <path d="M68.1972 83.6444C73.9116 83.6444 81.3964 82.1416 88.1738 76.0194L87.3636 75.1192C73.8686 87.3096 57.2702 80.6891 55.5203 79.9386L46.8877 67.0208C44.3512 59.2818 45.3713 51.1773 49.6916 44.7744C54.0681 38.2873 61.2957 34.2742 69.5211 33.7631L69.4461 32.5531C60.8425 33.0872 53.2767 37.2943 48.6884 44.0955C44.1418 50.8342 43.0763 59.3576 45.764 67.4797L45.79 67.5579L54.7064 80.9007L54.8601 80.9722C55.0483 81.0601 59.535 83.1206 65.9046 83.565C66.6295 83.6153 67.3961 83.6444 68.1972 83.6444Z" fill="#371A45"/>
    <path d="M63.2186 90.2176C79.5255 90.2176 92.7917 77.0621 92.7917 60.8919C92.7917 44.7217 79.5255 31.5662 63.2186 31.5662C46.9118 31.5662 33.6455 44.7217 33.6455 60.8919C33.6455 77.0621 46.9118 90.2176 63.2186 90.2176ZM63.2186 33.3848C78.5247 33.3848 90.9765 45.7244 90.9765 60.8919C90.9765 76.0594 78.5247 88.399 63.2186 88.399C47.9126 88.399 35.4608 76.0594 35.4608 60.8919C35.4608 45.7244 47.9126 33.3848 63.2186 33.3848Z" fill="#371A45"/>
    <path d="M40.2872 81.8939C36.5569 77.7978 36.2443 71.9986 39.5889 68.9412C42.9335 65.8838 48.6689 66.7258 52.3992 70.8219C56.1295 74.918 56.4422 80.7171 53.0976 83.7745C49.7529 86.832 44.0176 85.99 40.2872 81.8939Z" fill="white"/>
    <g opacity="0.25">
        <path d="M53.0927 83.5996C49.7496 86.6579 44.0135 85.8153 40.2832 81.7203C39.1275 80.4503 38.2985 79.0196 37.8084 77.5556C37.8478 77.6041 37.8931 77.6556 37.9385 77.7041C41.6688 81.7991 47.4049 82.6417 50.748 79.5834C53.0563 77.4737 53.6221 74.0577 52.5239 70.7963C56.1301 74.8822 56.3994 80.5806 53.0927 83.5996Z" fill="#371A45"/>
    </g>
    <path d="M48.1516 86.376C50.2427 86.376 52.1414 85.6734 53.6033 84.3373C57.2507 81.0031 56.9591 74.7118 52.9541 70.3137C48.9491 65.9156 42.7222 65.0506 39.0748 68.3848C37.2862 70.0197 36.381 72.3949 36.5257 75.0725C36.6666 77.6932 37.803 80.2987 39.7247 82.4084C41.6464 84.518 44.1321 85.8899 46.7236 86.27C47.2064 86.3409 47.6839 86.376 48.1516 86.376ZM44.5417 67.8628C47.0449 67.8628 49.7689 69.0655 51.8359 71.3352C55.2794 75.1162 55.6146 80.4466 52.5832 83.2177C51.1364 84.5404 49.1324 85.0927 46.942 84.7702C44.6948 84.4404 42.528 83.2389 40.841 81.3863C39.1541 79.5343 38.1575 77.2628 38.0353 74.9901C37.9155 72.775 38.647 70.8266 40.0938 69.5032C41.3058 68.3969 42.8753 67.8628 44.5417 67.8628Z" fill="#371A45"/>
    <path d="M46.4115 85.2515C47.9484 85.2515 49.3407 84.7374 50.4129 83.7578C51.741 82.5441 52.403 80.7734 52.2777 78.7735C52.1561 76.8317 51.3005 74.8967 49.8689 73.3248C46.8738 70.0361 42.2437 69.365 39.5481 71.8286C38.22 73.0429 37.558 74.813 37.6833 76.8136C37.8049 78.7553 38.6605 80.6903 40.0921 82.2622C41.5237 83.8341 43.3692 84.8641 45.2879 85.1636C45.6691 85.2224 46.0442 85.2515 46.4115 85.2515ZM43.5628 71.7692C45.3472 71.7692 47.3119 72.6464 48.81 74.2917C50.0226 75.6229 50.7463 77.2464 50.8473 78.8632C50.9447 80.4212 50.4474 81.7827 49.4466 82.6975C48.4458 83.6129 47.0462 83.9857 45.5075 83.745C43.9101 83.4965 42.3623 82.6266 41.1504 81.2947C39.9378 79.9635 39.2141 78.34 39.1131 76.7232C39.0157 75.1653 39.513 73.8037 40.5138 72.8889C41.3404 72.1324 42.4144 71.7692 43.5628 71.7692Z" fill="#371A45"/>
    <path d="M35.2557 58.0621C35.3591 57.8754 37.8751 53.49 45.3889 53.9913L45.4688 52.7813C37.1441 52.2291 34.3099 57.2655 34.1938 57.4801L35.2557 58.0621Z" fill="#371A45"/>
    <g opacity="0.45">
        <path d="M66.874 46.5197C73.2273 43.034 69.5968 38.3861 62.0836 41.6197C55.68 44.4489 50.3511 53.9253 52.9064 60.8925C54.318 64.3025 57.0917 62.8882 57.6459 60.1602C59.3952 54.0877 62.3008 49.3453 66.874 46.5197Z" fill="white"/>
    </g>
    <path d="M54.3313 93.1347C54.5079 93.1347 54.6834 93.0832 54.8347 92.9826C54.8631 92.9632 57.7197 91.0688 60.4734 90.1734C60.9502 90.0182 61.211 89.5053 61.0567 89.0276C60.9018 88.5499 60.3893 88.2886 59.9131 88.4438C57.9853 89.0713 56.0709 90.1091 54.9176 90.7917C54.3464 88.7876 53.46 86.9829 53.4152 86.8919C53.1925 86.4421 52.6485 86.2578 52.1996 86.4803C51.7506 86.7028 51.5667 87.2484 51.7887 87.6982C51.8008 87.723 53.017 90.2019 53.4412 92.3982C53.4987 92.6971 53.702 92.9468 53.9821 93.0644C54.0941 93.1117 54.2127 93.1347 54.3313 93.1347Z" fill="#371A45"/>
    <path d="M53.426 92.2878C53.6995 94.1986 53.9246 96.1397 54.1049 98.0669C54.1273 98.3179 54.3487 98.5028 54.5992 98.4797C54.8255 98.4591 54.9986 98.2742 55.0125 98.0542C55.0736 97.0757 55.1232 96.0961 55.1601 95.1152C55.1971 94.1326 55.2255 93.1572 55.237 92.1636C55.243 91.6598 54.8401 91.2464 54.3372 91.2409C53.7824 91.2288 53.3395 91.7392 53.426 92.2878Z" fill="#371A45"/>
    <path d="M94.3812 109.465C94.8386 109.465 95.2319 109.12 95.2822 108.654C96.5825 96.6787 104.129 84.2397 113.09 79.0305C113.734 86.136 116.232 91.17 120.193 93.2863C123.568 95.0892 127.662 94.6648 132.031 92.0599C132.462 91.8029 132.603 91.2452 132.347 90.8135C132.09 90.3819 131.533 90.2401 131.103 90.4971C127.308 92.7595 123.831 93.1693 121.047 91.6816C117.41 89.7387 115.191 84.7071 114.8 77.5131C114.783 77.207 114.614 76.9306 114.35 76.7766C114.086 76.6226 113.762 76.6123 113.488 76.7493C103.5 81.7524 94.8973 95.3844 93.4778 108.457C93.4234 108.956 93.7834 109.404 94.282 109.459C94.3146 109.463 94.3479 109.465 94.3812 109.465Z" fill="#371A45"/>
    <path d="M106.546 83.9499C106.693 83.9499 106.842 83.9142 106.98 83.8384C107.42 83.5983 107.582 83.0461 107.342 82.6047L105.942 80.032C105.703 79.5906 105.151 79.4282 104.711 79.6688C104.271 79.9089 104.108 80.4618 104.349 80.9025L105.748 83.4753C105.913 83.7784 106.224 83.9499 106.546 83.9499Z" fill="#371A45"/>
    <path d="M114.798 77.6325L114.686 73.1647C114.669 72.6204 113.879 72.5628 113.781 73.095L112.989 77.4931C112.812 78.8116 114.771 78.965 114.798 77.6325Z" fill="#371A45"/>
    <path d="M112.365 77.718L108.426 77.5289C107.971 77.5101 107.879 78.1697 108.318 78.2788L112.149 79.2178C113.228 79.4324 113.462 77.8199 112.365 77.718Z" fill="#371A45"/>
    <path d="M120.47 71.5401C122.134 68.9643 124.264 66.6019 126.792 64.8596C127.754 64.1455 126.744 62.7021 125.745 63.3707C124.446 64.4401 123.298 65.6695 122.282 66.9977C121.287 68.2974 120.416 69.642 119.671 71.1073C119.558 71.3316 119.648 71.605 119.871 71.7183C120.088 71.828 120.35 71.7462 120.47 71.5401Z" fill="#371A45"/>
    <path d="M118.066 91.3428C118.313 91.3428 118.558 91.2427 118.737 91.0463C119.075 90.6753 119.049 90.1 118.679 89.7618C117.651 88.8215 117.461 86.8847 118.145 84.3082C120 77.3222 127.529 67.7003 134.095 66.229C136.554 65.678 138.627 66.3824 140.258 68.3223C140.581 68.706 141.154 68.7557 141.537 68.432C141.921 68.1089 141.97 67.5348 141.647 67.1505C139.575 64.6862 136.827 63.7533 133.7 64.454C126.418 66.0854 118.416 76.2146 116.391 83.8402C115.512 87.152 115.88 89.6635 117.455 91.1045C117.629 91.2646 117.848 91.3428 118.066 91.3428Z" fill="#371A45"/>
    <path d="M142.343 79.2257C142.573 79.2257 142.8 79.1214 142.948 78.9226C143.199 78.588 143.132 78.1127 142.797 77.8617L128.927 67.4354C128.593 67.1838 128.119 67.2517 127.868 67.587C127.618 67.9216 127.685 68.3969 128.019 68.6478L141.89 79.0742C142.025 79.176 142.185 79.2257 142.343 79.2257Z" fill="#371A45"/>
    <path d="M137.945 85.8226C138.18 85.8226 138.413 85.7128 138.56 85.5067C138.804 85.1666 138.726 84.6932 138.386 84.4495L123 73.3963C122.661 73.1526 122.188 73.2308 121.945 73.5709C121.702 73.911 121.78 74.3845 122.119 74.6282L137.505 85.6807C137.638 85.7765 137.792 85.8226 137.945 85.8226Z" fill="#371A45"/>
    <path d="M133.329 90.822C133.585 90.822 133.834 90.6929 133.976 90.4583C134.193 90.1006 134.08 89.6344 133.723 89.4168L118.778 80.3042C118.421 80.0865 117.956 80.1999 117.738 80.5576C117.521 80.9152 117.634 81.3814 117.991 81.599L132.937 90.7117C133.06 90.7862 133.196 90.822 133.329 90.822Z" fill="#371A45"/>
    <path d="M114.378 104.18C113.621 102.257 112.925 100.241 112.555 98.2076C112.516 97.9566 112.278 97.7862 112.028 97.8299C111.802 97.8693 111.645 98.0699 111.651 98.2924C111.685 99.3939 111.823 100.475 111.998 101.548C112.18 102.629 112.39 103.676 112.653 104.747C113.015 105.988 114.82 105.396 114.378 104.18Z" fill="#371A45"/>
    <path d="M134.958 98.1027C133.559 98.3834 132.262 98.8192 130.982 99.4206C130.562 99.6146 130.158 99.8443 129.761 100.08C129.545 100.209 129.474 100.488 129.602 100.705C129.72 100.904 129.966 100.979 130.172 100.891C131.739 100.28 133.469 99.9644 135.14 99.9135C136.445 99.8389 136.254 97.9141 134.958 98.1027Z" fill="#371A45"/>
    <path d="M91.9967 103.99C94.5605 103.99 96.1766 102.506 96.7436 101.542C96.9977 101.109 96.8537 100.552 96.4223 100.297C95.9927 100.043 95.4396 100.184 95.1837 100.612C95.1208 100.715 93.7593 102.847 90.4865 101.956C87.4629 101.134 80.3036 97.097 78.457 93.7379C78.0897 93.0699 77.9753 92.4982 78.1163 92.0381C79.2599 88.3147 81.3135 85.608 81.3341 85.5807C83.7931 82.2986 91.1841 74.1062 95.8638 75.4799C96.3442 75.6218 96.8489 75.3453 96.9904 74.8634C97.1314 74.3814 96.8561 73.8765 96.3751 73.7346C89.5335 71.7238 80.2788 83.9584 79.8886 84.481C79.8032 84.5913 77.6256 87.4521 76.3815 91.5034C76.0899 92.4522 76.2533 93.4991 76.8668 94.6157C79.0457 98.5786 86.7229 102.817 90.0103 103.712C90.7249 103.907 91.388 103.99 91.9967 103.99Z" fill="#371A45"/>
    <path d="M84.1695 101.333C81.5707 103.567 79.6194 106.54 78.0613 109.956C77.4441 111.308 76.8874 112.726 76.3792 114.2C74.7546 116.097 71.3661 114.572 72.0317 111.32C72.2314 110.268 72.6973 108.962 73.3417 107.565C74.9179 104.139 77.5591 100.169 79.9854 98.0984C83.9517 93.9277 87.9876 97.4164 84.1695 101.333Z" fill="white"/>
    <path d="M74.5952 115.938C75.5264 115.938 76.4243 115.542 77.0669 114.794L77.1795 114.663L77.2364 114.499C79.2579 108.663 81.6486 104.698 84.7605 102.021L84.8186 101.967C86.2822 100.466 86.8928 98.7986 86.4928 97.3916C86.2066 96.384 85.4436 95.6584 84.4005 95.4002C82.8152 95.0073 80.9794 95.7499 79.3602 97.4364C75.9724 100.352 71.9087 107.127 71.139 111.15C70.7475 113.063 71.5111 114.806 73.0867 115.582C73.575 115.822 74.09 115.938 74.5952 115.938ZM75.5851 113.72C75.0484 114.238 74.3453 114.175 73.8861 113.949C73.2416 113.632 72.6493 112.823 72.9191 111.504C73.5563 108.174 77.2115 101.661 80.5733 98.7901L80.6417 98.7259C81.9947 97.3043 83.246 96.9872 83.966 97.1661C84.2486 97.2358 84.6135 97.4183 84.7478 97.8899C84.9589 98.6337 84.5106 99.6703 83.5473 100.668C80.2303 103.534 77.6968 107.686 75.5851 113.72Z" fill="#371A45"/>
    <path d="M94.7886 98.7519C96.285 98.7519 97.4982 98.2803 98.1849 97.163C98.404 96.8066 98.2932 96.3398 97.9375 96.1203C97.5817 95.9015 97.1158 96.0118 96.8967 96.3683C95.8421 98.0839 91.5509 97.22 86.9148 94.3587C82.2787 91.498 79.5776 88.0468 80.6323 86.3318C80.8513 85.9753 80.7406 85.5085 80.3848 85.2891C80.029 85.0708 79.5631 85.1806 79.3441 85.537C77.5185 88.5069 81.4322 92.7559 86.1209 95.6493C89.0471 97.454 92.3066 98.7519 94.7886 98.7519Z" fill="#371A45"/>
    <path d="M78.2172 123.575C81.645 123.575 84.7732 122.099 87.5287 119.179C87.8155 118.875 87.8022 118.395 87.4985 118.108C87.1953 117.82 86.7161 117.834 86.4293 118.138C83.7645 120.962 80.7386 122.271 77.4367 122.031C68.3079 121.364 59.7642 109.308 59.6789 109.186C59.4393 108.844 58.9673 108.761 58.6254 109.001C58.2836 109.241 58.2007 109.714 58.4409 110.056C58.8058 110.577 67.4898 122.824 77.3271 123.542C77.6254 123.564 77.9225 123.575 78.2172 123.575Z" fill="#371A45"/>
    <g opacity="0.25">
        <path d="M44.4672 84.0657C49.3333 86.9259 52.4246 92.0302 53.0079 100.308C53.0079 100.308 54.7384 97.5595 54.5581 95.1928C54.3778 92.8262 52.8469 91.1379 61.8523 89.0985L48.7215 85.4382L44.4672 84.0657Z" fill="#371A45"/>
    </g>
    <g opacity="0.25">
        <path d="M142.257 105.196C140.796 112.825 129.904 116.563 123.145 115.299C118.741 114.477 115.987 110.046 114.602 107.063C114.599 107.057 114.599 107.054 114.599 107.054V107.051L112.542 100.31C121.079 123.483 149.618 103.58 132.506 99.34L130.76 96.0331C116.239 98.6913 115.733 86.4154 115.733 86.4154C115.733 86.4154 118.998 97.1637 131.671 91.0378C131.638 91.0591 131.601 91.0803 131.568 91.1015C133.583 94.0325 135.047 98.8308 135.047 98.8308C142.659 99.3369 142.257 105.196 142.257 105.196Z" fill="#371A45"/>
    </g>
    <g opacity="0.25">
        <path d="M96.4221 73.8637C89.9418 74.2911 87.0586 78.0102 87.0586 78.0102L88.5924 73.0787C98.4643 70.8144 93.5087 63.4095 93.5087 63.4095C99.6774 66.0193 97.3358 71.9996 96.4221 73.8637Z" fill="#371A45"/>
    </g>
    <g opacity="0.25">
        <path d="M121.173 69.3929C124.011 62.0425 115.981 64.0824 115.022 64.3491C119.097 61.3726 123.297 61.3241 126.222 63.9733C126.304 63.9278 126.386 63.8854 126.467 63.843L121.173 69.3929Z" fill="#371A45"/>
    </g>
    <g opacity="0.25">
        <path d="M143.058 74.961C143.058 74.9761 143.055 74.9882 143.055 75.0004C143.046 75.0883 143.037 75.1762 143.028 75.258C143.022 75.3065 143.016 75.352 143.013 75.3974C142.956 75.8612 142.889 76.2371 142.838 76.4977C142.81 76.6372 142.786 76.7432 142.771 76.8099C142.765 76.8281 142.762 76.8463 142.756 76.8645C142.75 76.8918 142.747 76.9069 142.747 76.9069C142.747 76.9069 142.747 76.91 142.744 76.919C142.641 77.1827 140.826 81.89 137.425 86.1396C137.425 86.1426 137.419 86.1487 137.413 86.1547C135.84 88.1219 133.925 89.9891 131.683 91.2712C129.468 92.5352 126.939 93.2293 124.104 92.8838C112.003 91.4046 114.236 76.7038 114.236 76.7038L106.911 81.9567L105.284 79.8501C105.825 78.1497 106.421 76.5735 107.062 75.1246C107.111 75.1398 107.162 75.155 107.214 75.1701C112.759 76.919 114.236 73.8364 114.236 73.8364C115.422 78.6498 117.494 79.8653 120.677 76.525L119.055 79.3621C116.311 97.7699 142.947 88.2432 140.635 67.1347C140.608 66.8922 140.575 66.6467 140.541 66.3982C143.164 68.8564 143.279 72.6695 143.058 74.961Z" fill="#371A45"/>
    </g>
    <g opacity="0.25">
        <path d="M78.0613 109.956C77.4441 111.308 76.8874 112.726 76.3792 114.2C74.7545 116.097 71.3661 114.572 72.0317 111.32C72.2314 110.268 72.6973 108.962 73.3417 107.565C73.9165 111.563 77.665 109.62 77.665 109.62L78.0613 109.956Z" fill="#371A45"/>
    </g>
    <path d="M99.9728 92.6043C100.316 92.6043 100.644 92.4079 100.798 92.0751C101.007 91.6192 100.808 91.0791 100.353 90.8687L92.6574 87.3175C92.4372 87.2163 92.3645 87.0307 92.3403 86.9295C92.3161 86.8283 92.2986 86.63 92.4492 86.4403C92.9351 85.8286 93.0937 85.0163 92.8746 84.2664C92.655 83.5165 92.0832 82.9188 91.3444 82.6672L84.8174 80.4448C84.343 80.2836 83.8275 80.5376 83.666 81.0134C83.5044 81.4893 83.7585 82.0052 84.2335 82.1671L90.7605 84.3901C91.0195 84.4786 91.1072 84.6914 91.1326 84.7793C91.158 84.8672 91.1998 85.0939 91.0291 85.3085C90.5693 85.8868 90.4035 86.6319 90.5741 87.3514C90.7448 88.071 91.2276 88.6609 91.898 88.97L99.594 92.5213C99.7162 92.5776 99.8457 92.6043 99.9728 92.6043Z" fill="#371A45"/>
    <path d="M96.2198 81.7413C94.8227 81.3038 93.9359 80.1614 94.239 79.1896C94.5421 78.2178 95.9204 77.7846 97.3175 78.222C98.7146 78.6595 99.6014 79.8019 99.2983 80.7737C98.9951 81.7455 97.6168 82.1787 96.2198 81.7413Z" fill="#22A7F0"/>
    <path d="M97.3086 82.5163C97.6734 82.5163 98.0268 82.4653 98.3529 82.3623C99.1177 82.1222 99.6738 81.6081 99.8783 80.9528C100.083 80.2975 99.9177 79.5579 99.4257 78.9238C98.9768 78.3455 98.293 77.8902 97.5004 77.6417C95.7584 77.0967 94.0726 77.6956 93.6642 79.0069C93.2552 80.3181 94.3001 81.7724 96.0421 82.318C96.4639 82.4502 96.8935 82.5163 97.3086 82.5163ZM96.2418 78.6601C96.5292 78.6601 96.8366 78.705 97.1398 78.7995C97.691 78.9717 98.1756 79.2888 98.4709 79.6682C98.6149 79.8538 98.8394 80.2205 98.7238 80.5915C98.6083 80.9625 98.215 81.1353 97.9911 81.2062C97.5331 81.3499 96.954 81.3335 96.4034 81.1614C95.3632 80.8358 94.6232 79.9986 94.8193 79.3694C94.9578 78.9232 95.543 78.6601 96.2418 78.6601Z" fill="#371A45"/>
</svg>