<svg xmlns="http://www.w3.org/2000/svg" width="304" height="318" viewBox="0 0 304 318" fill="none">
    <path d="M51.8578 225.351C37.6514 230.464 21.8405 231.215 7.31746 227.739C4.33111 227.022 2.64655 224.197 4.11947 221.503C9.43491 211.755 16.066 203.37 23.5597 197.02C27.6389 193.563 31.9731 190.712 36.4916 188.569C44.358 184.846 53.1564 182.218 61.9079 181.53C71.1105 180.81 80.2574 182.23 88.1991 186.772C85.4921 203.276 69.9384 218.842 51.8578 225.351Z" fill="#F91E1E"/>
    <path d="M6.12815 227.691C4.97185 227.165 4.07709 226.302 3.59843 225.222C3.04932 223.984 3.12813 222.605 3.82056 221.339C9.15154 211.561 15.9011 203.062 23.34 196.76C27.4826 193.248 31.8591 190.388 36.3472 188.26C44.7392 184.288 53.5698 181.843 61.8834 181.189C71.9476 180.402 80.8605 182.18 88.3709 186.476L88.5768 186.593L88.5386 186.828C85.9012 202.899 70.8652 218.872 51.9749 225.672C37.8713 230.749 21.9836 231.6 7.23961 228.071C6.84725 227.977 6.47606 227.849 6.12815 227.691ZM84.8602 185.446C78.1704 182.403 70.4776 181.201 61.9356 181.871C53.7038 182.518 44.9564 184.94 36.6385 188.877C32.2047 190.979 27.8782 193.807 23.7806 197.28C16.4063 203.529 9.71074 211.961 4.41963 221.666C3.83164 222.742 3.7616 223.907 4.22209 224.945C4.74967 226.135 5.93675 227.055 7.39737 227.407C22.0137 230.905 37.7624 230.061 51.7426 225.03C70.3182 218.343 85.118 202.71 87.8242 186.951C86.8603 186.407 85.8709 185.905 84.8602 185.446Z" fill="#371A45"/>
    <path d="M5.56029 228.934C4.10094 228.27 2.96549 227.166 2.34927 225.776C1.62374 224.14 1.72036 222.332 2.62161 220.684C11.1418 205.066 22.9107 193.113 35.7619 187.026C44.5433 182.868 53.7784 180.361 62.4699 179.779C72.5294 179.104 81.4733 180.958 89.0478 185.29L90.0768 185.879L89.8846 187.049C87.1711 203.586 71.7708 219.997 52.4356 226.957C38.0838 232.122 21.92 232.99 6.91985 229.399C6.44196 229.284 5.9877 229.128 5.56029 228.934ZM84.4332 186.761C71.547 180.901 54.188 182.078 37.2227 190.111C25.0192 195.892 13.7952 207.33 5.61748 222.32C5.23214 223.025 5.18114 223.741 5.47022 224.392C5.82648 225.196 6.66581 225.826 7.71531 226.079C22.0748 229.516 37.5458 228.687 51.2793 223.745C69.0369 217.353 83.2493 202.645 86.2989 187.676C85.6883 187.353 85.0661 187.049 84.4332 186.761Z" fill="#371A45"/>
    <path d="M80.7009 190.696C69.2322 184.157 54.4222 186.298 42.5295 191.84C33.0838 196.243 24.7527 204.846 18.7365 215.845C17.6602 217.814 18.9096 219.888 21.1176 220.422C31.8476 223.019 43.5214 222.519 53.9904 218.821C67.3277 214.112 78.7561 202.769 80.7009 190.696Z" fill="#FF9429"/>
    <path d="M74.7989 193.645C67.7806 189.66 58.758 190.889 51.5351 194.168C45.7943 196.778 40.7575 201.922 37.1302 208.516C36.4803 209.696 37.2515 210.945 38.6036 211.281C45.1594 212.891 52.2676 212.638 58.639 210.456C66.7483 207.684 73.6661 200.904 74.7989 193.645Z" fill="#F9E310"/>
    <g opacity="0.2">
        <path d="M51.8578 225.351C37.6514 230.464 21.8405 231.215 7.31746 227.739C4.33111 227.022 2.64655 224.197 4.11947 221.503C9.43491 211.754 16.066 203.37 23.5597 197.02C22.4546 198.786 21.447 200.615 20.5424 202.496C18.9886 205.735 17.741 209.525 19.1091 212.846C20.7642 216.866 25.5885 218.555 29.9288 218.849C40.4914 219.571 51.2613 214.422 57.3323 205.751C60.1291 201.756 61.8867 197.074 62.544 192.253C62.8584 189.928 62.9242 187.567 62.7226 185.228C62.6237 184.069 62.2324 182.795 61.9095 181.531C71.1121 180.81 80.259 182.23 88.2007 186.773C85.4921 203.276 69.9384 218.842 51.8578 225.351Z" fill="#371A45"/>
    </g>
    <path d="M156.16 231.892C149.012 245.425 130.863 249.083 119.785 250.031C119.155 250.085 118.545 250.134 117.963 250.168C115.739 250.315 114.594 247.541 116.289 246.1C124.982 238.705 139.663 222.327 128.276 202.984L161.59 193.642C161.59 193.642 164.386 203.471 161.646 216.661C160.665 221.405 158.967 226.582 156.16 231.892Z" fill="#F91E1E"/>
    <path d="M116.692 250.278C116.089 250.004 115.601 249.504 115.334 248.845C114.897 247.768 115.186 246.589 116.067 245.839C125.284 237.998 139.089 222.026 127.98 203.156L127.756 202.774L161.824 193.221L161.916 193.548C161.944 193.647 164.703 203.61 161.979 216.73C160.881 222.049 159.024 227.204 156.462 232.052C149.153 245.889 130.363 249.469 119.813 250.372C119.179 250.425 118.567 250.475 117.982 250.51C117.523 250.539 117.083 250.456 116.692 250.278ZM128.791 203.192C133.619 211.627 134.067 220.362 130.123 229.162C126.759 236.665 120.863 242.655 116.509 246.359C115.716 247.033 115.708 247.952 115.967 248.587C116.294 249.398 117.07 249.884 117.939 249.827C118.522 249.793 119.128 249.743 119.756 249.69C130.166 248.8 148.701 245.282 155.858 231.732C158.39 226.942 160.224 221.847 161.31 216.589C163.723 204.971 161.786 195.877 161.344 194.063L128.791 203.192Z" fill="#371A45"/>
    <g opacity="0.2">
        <path d="M161.645 216.659C155.819 220.216 148.947 221.959 143.899 227.203C139.7 231.566 136.928 237.142 132.766 241.54C129.142 245.376 124.672 248.115 119.785 250.029C119.155 250.083 118.545 250.132 117.962 250.166C115.739 250.313 114.594 247.539 116.289 246.098C124.982 238.703 139.663 222.325 128.276 202.982L161.589 193.64C161.588 193.641 164.384 203.47 161.645 216.659Z" fill="#371A45"/>
    </g>
    <path d="M129.696 129.911L101.91 150.513C93.5962 129.673 71.6572 131.24 60.4841 133.577C59.4096 133.799 58.5067 133.284 58.0372 132.504C57.5528 131.697 57.5421 130.61 58.2902 129.762C63.3241 124.069 72.0937 115.626 82.3887 112.071C86.7553 110.561 91.3955 109.93 96.1387 110.765C118.507 114.688 129.696 129.911 129.696 129.911Z" fill="#F91E1E"/>
    <path d="M58.9175 133.743C58.4444 133.528 58.0379 133.166 57.7452 132.68C57.1342 131.661 57.2469 130.427 58.0349 129.536C63.5019 123.352 72.1462 115.247 82.2769 111.748C87.0696 110.091 91.7529 109.647 96.1975 110.429C118.443 114.331 129.858 129.555 129.971 129.709L130.172 129.983L129.898 130.185L101.757 151.051L101.593 150.64C93.4831 130.312 72.3998 131.434 60.554 133.912C59.9745 134.032 59.4102 133.967 58.9175 133.743ZM109.866 115.364C105.874 113.549 101.276 112.013 96.0795 111.102C91.7502 110.341 87.1811 110.775 82.5 112.394C72.5092 115.844 63.9596 123.866 58.5461 129.989C57.9603 130.653 57.8754 131.57 58.3305 132.328C58.6792 132.907 59.4098 133.452 60.4156 133.243C66.0109 132.073 74.3593 131.083 82.3501 133.022C91.7223 135.295 98.352 140.997 102.061 149.976L129.212 129.845C127.996 128.319 121.498 120.653 109.866 115.364Z" fill="#371A45"/>
    <g opacity="0.6">
        <path d="M129.685 129.934L126.556 132.25C122.28 127.733 111.835 118.593 95.2229 115.678C90.4793 114.845 85.8384 115.475 81.4729 116.984C72.0164 120.254 63.8439 127.639 58.6803 133.235C58.4132 133.045 58.1903 132.802 58.0272 132.526C57.5428 131.719 57.5321 130.631 58.2802 129.784C63.3141 124.091 72.0838 115.648 82.3788 112.093C86.7454 110.583 91.3855 109.952 96.1288 110.787C118.497 114.71 129.685 129.934 129.685 129.934Z" fill="white"/>
    </g>
    <g opacity="0.2">
        <path d="M129.696 129.911L101.91 150.513C93.5963 129.673 71.6572 131.239 60.4842 133.577C59.4096 133.799 58.5068 133.284 58.0372 132.504C62.8224 129.467 68.3862 127.652 74.057 127.487C77.8464 127.368 82.4748 127.532 84.4291 124.283C86.1834 121.369 84.5137 117.698 83.193 114.57C82.8151 113.671 82.5516 112.843 82.3884 112.072C86.755 110.562 91.3952 109.931 96.1384 110.766C118.507 114.688 129.696 129.911 129.696 129.911Z" fill="#371A45"/>
    </g>
    <path d="M116.119 251.523C115.208 251.108 114.472 250.354 114.068 249.358C113.406 247.726 113.843 245.937 115.182 244.798C124.072 237.235 137.405 221.858 126.803 203.848L125.678 201.937L162.763 191.537L163.229 193.172C163.448 193.941 168.468 212.235 157.668 232.688C149.769 247.65 129.469 251.128 118.071 251.871C117.377 251.917 116.711 251.792 116.119 251.523ZM130.806 204.046C135.073 212.404 135.264 221.031 131.369 229.72C127.902 237.456 121.855 243.604 117.394 247.399C117.126 247.627 117.158 247.892 117.232 248.074C117.296 248.231 117.46 248.489 117.849 248.464C128.537 247.768 147.527 244.586 154.651 231.095C162.98 215.321 161.229 200.609 160.312 195.771L130.806 204.046Z" fill="#371A45"/>
    <path d="M58.3505 134.986C57.6145 134.651 56.9815 134.086 56.5439 133.333C55.6554 131.801 55.8385 129.955 57.0125 128.63C64.5788 120.076 79.7627 106.16 96.4332 109.084C119.215 113.078 130.599 128.255 131.071 128.9L132.078 130.27L101.147 153.205L100.325 151.146C92.5841 131.744 72.2601 132.857 60.8337 135.249C59.9635 135.431 59.103 135.328 58.3505 134.986ZM109.301 116.608C105.404 114.836 100.916 113.336 95.8432 112.447C80.811 109.811 66.6629 122.873 59.5691 130.894C59.3098 131.186 59.4125 131.474 59.4968 131.619C59.5963 131.791 59.7871 131.979 60.1354 131.907C65.8686 130.707 74.4329 129.696 82.6724 131.695C91.9267 133.94 98.6289 139.374 102.621 147.862L127.231 129.614C124.91 126.991 118.9 120.973 109.301 116.608Z" fill="#371A45"/>
    <path d="M297.835 99.4569C294.185 106.945 288.643 117.618 280.555 129.456C254.218 167.996 200.905 218.932 97.9835 212.826C97.2234 212.783 96.4655 212.734 95.7024 212.683C89.4996 212.271 83.1125 211.646 76.5439 210.802L63.8577 180.656C63.8577 180.656 66.2838 175.97 71.311 168.638C72.9866 166.204 74.9475 163.467 77.2058 160.517C77.5285 160.097 77.8563 159.667 78.1954 159.241C85.5163 149.812 95.7292 138.351 109.024 127.148C134.898 105.35 172.449 84.533 223.108 81.6086C235.567 80.8849 248.81 81.244 262.873 82.9409C272.445 84.0859 282.395 85.8585 292.732 88.3286C294.529 88.7611 295.996 89.7808 297.016 91.127C298.756 93.4184 299.212 96.635 297.835 99.4569Z" fill="white"/>
    <path d="M76.4611 210.984C76.4163 210.964 76.3797 210.927 76.3602 210.88L63.6739 180.734C63.651 180.68 63.6534 180.618 63.6809 180.566C63.7051 180.519 66.1701 175.786 71.147 168.526C73.058 165.75 75.0429 163.015 77.0476 160.397L77.2485 160.134C77.5073 159.797 77.7695 159.457 78.0387 159.117C87.1572 147.373 97.5385 136.566 108.895 126.996C123.583 114.623 139.664 104.57 156.691 97.1194C177.434 88.042 199.775 82.7573 223.095 81.411C235.969 80.6623 249.36 81.1112 262.896 82.745C272.618 83.9081 282.672 85.7222 292.777 88.1373C294.553 88.5652 296.073 89.5575 297.173 91.0083C299.053 93.4813 299.376 96.7521 298.014 99.544C294.575 106.598 289.041 117.385 280.719 129.568C263.776 154.362 242.703 174.04 218.086 188.056C184.213 207.342 143.8 215.743 97.9702 213.024C97.2101 212.981 96.4514 212.932 95.6872 212.881C89.4778 212.469 83.028 211.836 76.5174 211C76.4988 210.997 76.4792 210.992 76.4611 210.984ZM64.0762 180.666L76.6814 210.621C83.1453 211.449 89.5484 212.076 95.7144 212.485C96.4774 212.537 97.2346 212.584 97.9935 212.628C197.667 218.541 252.197 170.602 280.391 129.345C288.699 117.183 294.224 106.414 297.657 99.371C298.953 96.7147 298.646 93.6028 296.857 91.2494C295.812 89.872 294.37 88.9303 292.685 88.5238C282.595 86.112 272.557 84.3008 262.849 83.1399C249.337 81.5094 235.97 81.0616 223.12 81.8086C180.402 84.2746 142.058 99.5803 109.153 127.301C97.818 136.853 87.4553 147.641 78.3527 159.365C78.0831 159.703 77.8228 160.043 77.5654 160.377L77.3646 160.639C75.3643 163.252 73.3831 165.982 71.4765 168.752C66.8699 175.467 64.4242 180.009 64.0762 180.666Z" fill="#371A45"/>
    <g opacity="0.6">
        <path d="M278.76 115.993C272.423 103.103 266.406 95.4332 262.299 91.1546C260.491 89.2717 258.065 88.1036 255.464 87.8887C244.694 86.9992 234.427 86.8994 224.643 87.4673C173.984 90.3909 136.432 111.209 110.559 133.006C97.2637 144.21 87.0508 155.67 79.7299 165.1C79.3912 165.525 79.0634 165.955 78.7414 166.375C71.8645 175.365 67.7224 182.334 66.1371 185.15L63.7829 179.548C63.7829 179.548 68.0946 171.228 77.1318 159.41C77.4545 158.99 77.7823 158.56 78.1206 158.133C85.4415 148.704 95.6543 137.244 108.95 126.04C134.823 104.243 172.375 83.4256 223.033 80.5012C233.954 79.8675 245.481 80.0616 257.633 81.2694C259.088 81.4134 260.558 81.5698 262.031 81.7476C264.803 84.0798 267.124 86.6899 269.057 89.3997C277.847 101.695 278.76 115.993 278.76 115.993Z" fill="white"/>
    </g>
    <g opacity="0.6">
        <path d="M298.342 96.7221C297.332 95.5064 295.943 94.5929 294.266 94.1873C285.589 92.1149 277.187 90.5329 269.056 89.4001C267.123 86.6899 264.802 84.0802 262.03 81.748C262.283 81.7728 262.541 81.8011 262.797 81.8339C272.369 82.9789 282.319 84.7516 292.655 87.2216C294.453 87.6541 295.92 88.6747 296.94 90.0201C298.348 91.8794 298.922 94.3487 298.342 96.7221Z" fill="white"/>
        <path d="M268.863 89.7171L268.778 89.5976C266.735 86.7324 264.391 84.1789 261.811 82.0083L260.966 81.2977L262.064 81.4073C262.32 81.4327 262.582 81.4606 262.842 81.494C272.568 82.6577 282.626 84.4724 292.736 86.8885C294.543 87.3226 296.093 88.3343 297.213 89.8126C298.713 91.7935 299.26 94.4063 298.675 96.8019L298.514 97.4602L298.08 96.9391C297.073 95.7275 295.727 94.8906 294.186 94.5175C285.695 92.4894 277.223 90.8809 269.009 89.7369L268.863 89.7171ZM263.089 82.2124C265.347 84.2245 267.416 86.5312 269.248 89.0819C277.439 90.2286 285.882 91.8336 294.346 93.8549C295.804 94.2075 297.102 94.9401 298.14 95.9896C298.442 93.9783 297.912 91.866 296.669 90.2254C295.645 88.8743 294.231 87.9502 292.577 87.5534C282.608 85.1708 272.688 83.3738 263.089 82.2124Z" fill="#371A45"/>
    </g>
    <path d="M75.3519 212.371L61.974 180.581L62.3417 179.87C62.5205 179.525 66.8261 171.281 75.85 159.479C88.1145 143.43 109.227 120.709 140.154 103.608C176.782 83.3544 218.14 75.831 263.077 81.2458C272.856 82.4153 282.967 84.2397 293.128 86.6686C295.898 87.33 298.19 89.2062 299.421 91.8151C300.685 94.4947 300.665 97.5532 299.368 100.205C295.91 107.301 290.343 118.153 281.965 130.418C264.74 155.626 243.278 175.586 218.175 189.74C183.612 209.229 142.367 217.521 95.5884 214.385C89.3488 213.971 82.868 213.335 76.327 212.495L75.3519 212.371ZM65.7485 180.749L77.7349 209.234C83.8755 210.004 89.9532 210.591 95.8146 210.98C196.16 217.707 250.896 169.837 279.145 128.494C287.399 116.411 292.889 105.709 296.3 98.7094L296.301 98.7071C297.141 96.9905 297.152 95.0095 296.333 93.2729C295.547 91.6065 294.087 90.4089 292.334 89.9906C282.3 87.5926 272.32 85.7909 262.669 84.6368C162.818 72.605 104.46 127.664 78.5618 161.554C71.2013 171.181 66.973 178.528 65.7485 180.749Z" fill="#371A45"/>
    <path d="M102.689 213.068C96.4858 212.656 83.1125 211.646 76.5436 210.803L63.8574 180.657C63.8574 180.657 68.169 172.336 77.2062 160.518C76.535 179.223 87.8011 202.644 102.689 213.068Z" fill="#22A7F0"/>
    <g opacity="0.6">
        <path d="M99.2626 212.274C100.461 212.359 101.548 212.434 102.474 212.495C96.169 208.081 90.5192 201.331 86.145 193.6C89.5718 200.709 94.0894 207.242 99.2626 212.274Z" fill="white"/>
        <path d="M65.9321 184.45C65.9321 184.45 69.6052 177.367 77.2684 166.99C77.0086 164.594 76.9096 162.234 76.9916 159.945C67.9552 171.764 63.6428 180.084 63.6428 180.084L76.329 210.231C76.4833 210.25 76.6443 210.27 76.8064 210.29L65.9321 184.45Z" fill="white"/>
    </g>
    <path d="M75.3519 212.371L61.9739 180.581L62.3416 179.87C62.5204 179.525 66.826 171.281 75.8499 159.48L79.1037 155.224L78.9119 160.577C78.2607 178.735 89.3662 201.654 103.668 211.669L108.677 215.176L102.576 214.77C95.4706 214.298 82.6167 213.303 76.3262 212.495L75.3519 212.371ZM65.7484 180.749L77.7336 209.231C82.7028 209.823 90.8126 210.497 97.3547 210.982C91.6539 205.829 86.5141 198.783 82.576 190.642C78.547 182.313 76.1311 173.581 75.5877 165.548C70.0504 173.183 66.7974 178.848 65.7484 180.749Z" fill="#371A45"/>
    <path d="M297.835 99.457C294.185 106.946 288.643 117.618 280.555 129.456C280.601 121.455 279.842 113.424 277.471 105.755C275.653 99.8806 272.788 94.2394 269.007 89.3911C267.171 87.0333 265.123 84.8675 262.873 82.9425C272.445 84.0875 282.394 85.8602 292.731 88.3302C295.964 89.1022 298.128 91.7954 298.565 94.8321C298.782 96.3538 298.564 97.9619 297.835 99.457Z" fill="#F91E1E"/>
    <path d="M280.207 130.57L280.213 129.454C280.265 120.424 279.262 112.705 277.144 105.856C275.306 99.9174 272.399 94.297 268.737 89.6007C266.888 87.2279 264.84 85.0749 262.65 83.2011L261.794 82.4691L262.912 82.6024C272.64 83.7661 282.699 85.5807 292.81 87.9976C296.03 88.7658 298.42 91.4294 298.902 94.7833C299.138 96.4351 298.875 98.1022 298.142 99.6059C294.701 106.664 289.164 117.458 280.836 129.648L280.207 130.57ZM263.927 83.4144C265.839 85.1398 267.636 87.0757 269.276 89.1811C272.989 93.9413 275.935 99.6372 277.796 105.654C279.847 112.287 280.863 119.719 280.897 128.344C288.852 116.568 294.184 106.168 297.528 99.3069C298.201 97.9258 298.442 96.3949 298.227 94.8798C297.785 91.8053 295.594 89.3635 292.651 88.6617C282.945 86.3425 273.288 84.5784 263.927 83.4144Z" fill="#371A45"/>
    <g opacity="0.6">
        <path d="M298.343 96.7221C297.332 95.5063 295.943 94.5928 294.266 94.1872C285.573 92.1082 277.157 90.5266 269.007 89.3919C267.17 87.034 265.123 84.8682 262.872 82.9432C272.444 84.0882 282.394 85.8609 292.731 88.3309C295.964 89.1029 298.128 91.7961 298.564 94.8328C298.566 95.4604 298.492 96.0947 298.343 96.7221Z" fill="white"/>
    </g>
    <path d="M278.815 135.028L278.848 129.446C278.899 120.557 277.915 112.973 275.839 106.259C273.128 97.4966 268.129 89.6765 261.764 84.2402L257.475 80.5774L263.075 81.2466C272.855 82.4161 282.966 84.2412 293.127 86.6694C295.897 87.3307 298.189 89.207 299.42 91.8158C300.684 94.4954 300.665 97.552 299.369 100.204C295.91 107.299 290.344 118.151 281.963 130.418L278.815 135.028ZM267.774 85.3033C272.811 90.7677 276.76 97.6873 279.101 105.25C280.835 110.861 281.845 117.022 282.157 123.96C288.76 113.751 293.321 104.818 296.299 98.7082L296.301 98.7059C297.14 96.9893 297.152 95.0084 296.332 93.2717C295.546 91.6053 294.087 90.4077 292.333 89.9894C284.059 88.0126 275.821 86.4415 267.774 85.3033Z" fill="#371A45"/>
    <g opacity="0.3">
        <path d="M297.229 91.7008C288.111 103.556 263.422 133.452 231.48 154.409C232.177 153.394 232.8 152.32 233.357 151.186C239.915 137.824 234.414 121.916 220.974 115.522C219.471 114.809 217.938 114.242 216.395 113.829C220.804 105.967 222.905 96.9667 223.211 87.9836C223.274 86.1695 223.353 84.1706 223.321 82.1831C172.663 85.1067 135.111 105.925 109.237 127.722C108.388 128.439 107.55 129.161 106.722 129.873C106.442 130.12 106.168 130.369 105.89 130.61C105.351 131.086 104.815 131.557 104.291 132.027C103.944 132.337 103.612 132.64 103.271 132.953C102.828 133.36 102.372 133.767 101.935 134.176C101.567 134.516 101.208 134.855 100.846 135.197C100.445 135.57 100.044 135.941 99.6546 136.318C99.2724 136.678 98.9001 137.043 98.5234 137.406C98.1669 137.751 97.8088 138.102 97.4548 138.442C97.0681 138.826 96.6814 139.211 96.2968 139.591C95.9775 139.913 95.6518 140.232 95.3324 140.554C94.9302 140.958 94.5422 141.362 94.1476 141.764C93.8616 142.055 93.5733 142.35 93.2928 142.644C92.8838 143.065 92.4795 143.488 92.0816 143.914C91.8291 144.172 91.5801 144.44 91.3307 144.706C90.9116 145.15 90.5007 145.59 90.0927 146.038C89.8798 146.268 89.6637 146.503 89.4508 146.733C89.02 147.204 88.5965 147.671 88.1755 148.133C88.1625 148.147 88.1528 148.156 88.1397 148.17C90.5185 153.294 96.3439 168.163 93.9277 186.499C93.4163 190.387 89.2398 192.726 85.7231 190.978C85.7036 190.962 85.6812 190.953 85.6592 190.943C78.8398 187.528 73.5049 181.047 71.9728 173.574C71.6763 172.144 71.5275 170.679 71.5241 169.211C66.4968 176.544 64.0707 181.23 64.0707 181.23L72.3628 200.931C112.864 208.152 155.579 207.934 193.735 192.477C208.09 186.664 223.07 177.475 235.849 168.725C258.958 152.896 277.624 130.543 293.264 107.304C294.861 104.942 296.615 101.051 298.757 97.7655C299.1 95.5921 298.513 93.3933 297.229 91.7008ZM162.296 176.545C161.547 176.507 160.802 176.458 160.074 176.402C150.263 175.667 142.153 168.139 141.065 158.36C140.843 156.355 140.914 154.598 141.491 153.418C146.841 155.384 151.661 158.615 157.007 160.605C162.35 162.6 168.723 163.179 173.455 159.995C177.168 157.493 179.214 153.056 179.834 148.621C180.446 144.188 179.814 139.686 179.181 135.249C180.567 135.369 181.949 135.395 183.327 135.339C181.484 146.968 187.591 158.818 198.878 163.772C202.791 165.49 206.9 166.191 210.901 165.98C195.55 173.145 179.107 177.455 162.296 176.545Z" fill="#371A45"/>
    </g>
    <path d="M235.061 141.763C229.168 155.187 213.517 161.289 200.094 155.397C192.157 151.913 186.777 145.01 184.931 137.182C184.064 133.533 183.969 129.689 184.731 125.891C185.102 124.053 185.676 122.219 186.461 120.431C192.353 107.007 208.004 100.904 221.427 106.797C228.058 109.707 232.903 115.003 235.395 121.239C236.071 122.915 236.573 124.661 236.892 126.445C237.787 131.447 237.257 136.76 235.061 141.763Z" fill="#F91E1E"/>
    <path d="M199.622 155.561C191.993 152.092 186.527 145.441 184.598 137.26C183.699 133.48 183.632 129.632 184.395 125.824C184.777 123.934 185.367 122.073 186.147 120.295C192.104 106.723 207.992 100.529 221.564 106.485C228.052 109.324 233.082 114.531 235.711 121.114C236.394 122.805 236.905 124.579 237.229 126.386C238.167 131.633 237.526 136.998 235.374 141.901C229.417 155.473 213.529 161.667 199.958 155.71C199.844 155.661 199.733 155.611 199.622 155.561ZM221.612 107.254C221.504 107.205 221.398 107.158 221.289 107.11C208.062 101.304 192.578 107.342 186.772 120.568C186.011 122.303 185.436 124.116 185.065 125.959C184.32 129.669 184.386 133.419 185.263 137.103C187.17 145.193 192.64 151.759 200.231 155.084C213.457 160.89 228.941 154.851 234.748 141.626C236.845 136.847 237.471 131.618 236.556 126.506C236.24 124.746 235.743 123.017 235.077 121.368C232.558 115.06 227.783 110.06 221.612 107.254Z" fill="#371A45"/>
    <g opacity="0.6">
        <path d="M219.816 110.339C226.447 113.251 231.292 118.546 233.783 124.782C234.46 126.458 234.962 128.203 235.281 129.988C236.087 134.493 235.732 139.251 234.048 143.809C234.409 143.146 234.751 142.467 235.06 141.763C237.256 136.759 237.786 131.446 236.891 126.445C236.572 124.662 236.07 122.916 235.393 121.239C232.902 115.003 228.057 109.707 221.426 106.797C208.002 100.905 192.351 107.008 186.46 120.431C186.241 120.928 186.044 121.429 185.858 121.932C192.378 109.949 207.094 104.756 219.816 110.339Z" fill="white"/>
    </g>
    <g opacity="0.2">
        <path d="M235.061 141.763C229.168 155.187 213.517 161.289 200.095 155.397C192.157 151.913 186.777 145.01 184.931 137.182C189.939 140.542 195.53 143.01 201.443 144.113C209.802 145.676 218.821 144.367 225.98 139.771C230.893 136.626 234.818 131.866 236.893 126.446C237.787 131.446 237.257 136.76 235.061 141.763Z" fill="#371A45"/>
    </g>
    <path d="M199.063 156.806C185.041 150.431 178.688 133.891 184.897 119.745C191.157 105.484 207.851 98.9742 222.112 105.234C222.227 105.284 222.343 105.336 222.457 105.388C236.478 111.764 242.832 128.302 236.623 142.449C233.591 149.357 228.05 154.671 221.021 157.412C213.992 160.153 206.316 159.992 199.408 156.96C199.293 156.91 199.177 156.858 199.063 156.806ZM220.74 108.36C208.202 102.857 193.526 108.581 188.022 121.118C182.564 133.553 188.151 148.094 200.476 153.7C200.577 153.745 200.677 153.79 200.779 153.835C206.852 156.501 213.6 156.642 219.78 154.233C225.96 151.823 230.831 147.151 233.496 141.078C238.954 128.642 233.368 114.101 221.043 108.496C220.944 108.45 220.841 108.404 220.74 108.36Z" fill="#371A45"/>
    <path d="M203.062 148.025C212.411 152.276 223.436 148.144 227.687 138.795C231.938 129.446 227.806 118.421 218.457 114.17C209.109 109.919 198.084 114.051 193.832 123.4C189.581 132.749 193.713 143.774 203.062 148.025Z" fill="#22A7F0"/>
    <g opacity="0.2">
        <path d="M227.625 138.941C223.497 148.346 212.529 152.622 203.124 148.494C193.719 144.366 189.443 133.399 193.571 123.993C194.004 123.009 194.509 122.081 195.081 121.217C193.57 128.885 197.512 136.841 204.963 140.111C213.587 143.896 223.652 139.976 227.438 131.352C228.048 129.962 228.455 128.538 228.675 127.103C229.6 130.921 229.325 135.066 227.625 138.941Z" fill="#371A45"/>
    </g>
    <g opacity="0.6">
        <path d="M224.151 126.029C223.982 128.265 222.506 130.047 220.611 130.14C218.516 130.25 216.711 128.256 216.576 125.689C216.466 123.594 217.506 121.766 219.037 121.105C218.214 120.572 217.338 120.102 216.414 119.696C207.009 115.569 196.042 119.845 191.913 129.25L191.823 129.455C191.984 127.433 192.478 125.405 193.339 123.445C197.467 114.04 208.434 109.764 217.839 113.892C227.177 117.991 231.459 128.828 227.482 138.187C227.826 133.842 226.617 129.542 224.151 126.029Z" fill="white"/>
    </g>
    <path d="M202.352 149.577C192.273 144.995 187.706 133.105 192.169 122.937C196.669 112.687 208.67 108.008 218.919 112.507C219.002 112.543 219.085 112.581 219.167 112.618C229.246 117.201 233.813 129.089 229.35 139.257C227.17 144.222 223.187 148.042 218.135 150.012C213.083 151.982 207.565 151.866 202.599 149.687C202.518 149.651 202.434 149.614 202.352 149.577ZM217.548 115.634C209.021 111.891 199.039 115.783 195.296 124.311C191.584 132.769 195.384 142.658 203.767 146.47C203.835 146.501 203.904 146.532 203.973 146.562C208.103 148.375 212.693 148.471 216.896 146.832C221.099 145.194 224.411 142.016 226.225 137.885C229.937 129.427 226.138 119.538 217.755 115.726C217.686 115.694 217.617 115.664 217.548 115.634Z" fill="#371A45"/>
    <path d="M174.957 151.527C173.973 152.64 172.488 153.196 171.019 153.443C166.553 154.189 162.051 152.457 158.04 150.359C151.875 147.139 146.028 142.757 142.813 136.829C141.176 138.725 139.051 140.196 136.708 141.834C136.789 141.936 136.868 142.043 136.937 142.153C138.717 144.67 139.317 147.997 138.503 150.98C137.616 154.235 135.156 157.176 135.511 160.533C135.727 162.569 136.921 164.241 138.525 165.79C139.497 166.732 139.97 168.002 139.933 169.261C139.913 170.48 139.416 171.701 138.464 172.61C138.055 172.998 137.632 173.36 137.197 173.705C135.317 175.177 132.83 175.591 130.564 174.827C125.74 173.199 121.176 170.918 117.184 168.176C114.469 166.316 113.282 162.911 114.164 159.746C115.013 156.713 116.117 153.764 117.203 150.926C111.389 148.11 105.877 144.436 101.805 139.427C97.7319 134.417 95.2044 127.948 95.7947 121.519C96.6131 112.63 103.289 105.076 111.256 101.034C117.695 97.7667 135.306 92.5372 145.95 98.5498C148.482 99.971 150.62 102.032 152.121 104.916C154.433 109.351 153.247 114.832 154.318 119.718C155.97 127.236 162.179 133.559 169.664 135.353C172.215 135.964 175.555 136.987 176.327 138.778C176.507 139.194 176.544 139.652 176.404 140.153C175.723 142.574 172.218 141.808 171.236 141.384C173.063 142.364 174.739 143.78 175.592 145.672C176.445 147.566 176.333 149.972 174.957 151.527Z" fill="white"/>
    <path d="M125.201 173.074C122.298 171.754 119.52 170.194 116.992 168.457C114.175 166.53 112.906 162.993 113.835 159.655C114.66 156.708 115.733 153.817 116.772 151.098C110.152 147.855 105.168 144.106 101.54 139.644C97.1128 134.2 94.8953 127.583 95.455 121.489C96.2187 113.194 102.214 105.24 111.102 100.73C117.603 97.4307 135.445 92.2252 146.118 98.253C148.855 99.7901 150.977 101.979 152.423 104.758C153.865 107.524 153.981 110.707 154.094 113.787C154.165 115.74 154.239 117.761 154.652 119.645C156.283 127.07 162.348 133.251 169.744 135.021C172.298 135.634 175.792 136.675 176.641 138.645C176.859 139.147 176.889 139.686 176.733 140.246C176.527 140.98 176.077 141.517 175.398 141.84C174.708 142.169 173.864 142.226 173.088 142.159C174.38 143.133 175.338 144.278 175.904 145.533C176.876 147.689 176.598 150.189 175.213 151.753C174.297 152.791 172.905 153.472 171.077 153.78C166.217 154.592 161.473 152.542 157.883 150.663C150.717 146.919 145.628 142.465 142.749 137.417C141.2 139.099 139.251 140.475 137.19 141.916C137.202 141.933 137.214 141.952 137.226 141.971C139.071 144.58 139.675 147.987 138.833 151.072C138.502 152.283 137.959 153.454 137.433 154.587C136.509 156.577 135.635 158.457 135.851 160.5C136.031 162.199 136.957 163.804 138.762 165.547C139.765 166.518 140.315 167.876 140.275 169.273C140.252 170.617 139.678 171.926 138.699 172.859C138.302 173.236 137.881 173.601 137.409 173.974C135.44 175.516 132.84 175.955 130.456 175.152C128.678 174.552 126.917 173.854 125.201 173.074ZM144.447 98.1703C133.912 93.3795 117.545 98.2269 111.411 101.34C102.731 105.745 96.8785 113.489 96.1357 121.553C95.5919 127.469 97.756 133.907 102.071 139.214C105.686 143.66 110.684 147.391 117.353 150.621L117.635 150.758L117.523 151.051C116.454 153.839 115.34 156.815 114.494 159.84C113.643 162.896 114.803 166.133 117.378 167.896C121.35 170.625 125.948 172.91 130.674 174.507C132.841 175.236 135.2 174.837 136.987 173.439C137.44 173.08 137.847 172.729 138.228 172.366C139.076 171.558 139.573 170.425 139.592 169.259C139.628 168.048 139.152 166.876 138.287 166.039C136.36 164.177 135.37 162.44 135.173 160.572C134.937 158.342 135.891 156.287 136.814 154.299C137.328 153.193 137.859 152.049 138.174 150.892C138.964 148.002 138.397 144.809 136.659 142.352C136.586 142.239 136.515 142.141 136.441 142.049L136.214 141.764L136.643 141.465C138.968 139.84 140.976 138.436 142.554 136.608L142.877 136.235L143.113 136.669C145.879 141.769 150.955 146.274 158.198 150.058C161.693 151.886 166.304 153.885 170.963 153.106C172.632 152.826 173.89 152.218 174.701 151.301C175.91 149.934 176.143 147.729 175.28 145.813C174.361 143.772 172.486 142.442 171.074 141.685L171.372 141.071C172.037 141.358 173.901 141.796 175.103 141.224C175.604 140.985 175.921 140.605 176.075 140.061C176.189 139.651 176.17 139.276 176.014 138.915C175.202 137.032 170.974 136.019 169.585 135.685C161.939 133.853 155.67 127.466 153.985 119.791C153.559 117.847 153.485 115.795 153.412 113.811C153.297 110.67 153.188 107.702 151.819 105.074C150.434 102.414 148.404 100.318 145.784 98.8477C145.35 98.6037 144.902 98.3775 144.447 98.1703Z" fill="#371A45"/>
    <g opacity="0.2">
        <path d="M174.957 151.527C173.973 152.64 172.488 153.196 171.019 153.442C166.553 154.189 162.051 152.457 158.04 150.359C151.875 147.139 146.028 142.757 142.813 136.829C141.176 138.725 139.051 140.196 136.708 141.834C136.789 141.935 136.868 142.042 136.937 142.153C133.374 138.886 129.587 135.824 125.243 133.719C123.354 132.804 121.251 132.06 119.174 132.416C117.097 132.772 115.146 134.569 115.292 136.673C115.384 138.073 116.336 139.256 117.279 140.298C121.345 144.81 126.102 148.699 131.33 151.8C130.015 154.781 128.678 157.871 128.687 161.13C128.695 164.388 130.427 167.875 133.528 168.886C135.322 169.476 137.277 169.159 139.164 169.208C139.418 169.215 139.674 169.234 139.933 169.261C139.912 170.48 139.416 171.701 138.463 172.61C138.055 172.998 137.632 173.361 137.197 173.705C135.316 175.177 132.83 175.591 130.564 174.828C125.74 173.199 121.176 170.919 117.184 168.176C114.468 166.317 113.282 162.912 114.163 159.747C115.013 156.713 116.116 153.764 117.203 150.927C111.388 148.111 105.877 144.437 101.804 139.428C97.7314 134.418 95.2039 127.948 95.7942 121.52C96.6126 112.63 103.289 105.077 111.256 101.035C117.694 97.7675 135.305 92.5379 145.949 98.5505C145.901 100.345 145.481 102.174 144.861 103.829C143.414 107.696 141.1 111.315 140.628 115.413C139.833 122.26 144.297 128.517 148.805 133.724C153.241 138.853 158.142 143.87 164.394 146.488C165.633 147.006 167.106 147.408 168.263 146.728C169.532 145.972 169.812 144.147 169.275 142.769C168.732 141.389 167.59 140.353 166.482 139.371C169.493 139.61 172.548 139.478 175.514 138.933C175.801 138.881 176.075 138.828 176.327 138.781C176.508 139.196 176.545 139.655 176.404 140.155C175.724 142.577 172.219 141.81 171.236 141.386C173.064 142.366 174.74 143.782 175.593 145.675C176.445 147.566 176.333 149.972 174.957 151.527Z" fill="#0F0C4F"/>
        <path d="M125.201 173.074C122.298 171.754 119.52 170.194 116.992 168.457C114.175 166.53 112.906 162.993 113.835 159.655C114.66 156.708 115.733 153.817 116.772 151.098C110.152 147.855 105.168 144.106 101.54 139.644C97.1128 134.2 94.8953 127.583 95.455 121.489C96.2187 113.194 102.214 105.24 111.102 100.73C117.603 97.4307 135.445 92.2252 146.118 98.253L146.296 98.354L146.291 98.5597C146.245 100.271 145.861 102.134 145.181 103.949C144.71 105.207 144.141 106.454 143.592 107.66C142.456 110.152 141.281 112.729 140.967 115.451C140.184 122.21 144.62 128.368 149.063 133.5C153.427 138.546 158.327 143.573 164.526 146.173C166.123 146.841 167.257 146.923 168.09 146.433C169.23 145.752 169.427 144.098 168.956 142.891C168.429 141.552 167.274 140.528 166.254 139.625L165.492 138.949L166.508 139.029C169.562 139.271 172.571 139.125 175.452 138.594C175.739 138.542 176.012 138.491 176.262 138.443L176.531 138.392L176.639 138.643C176.858 139.146 176.888 139.685 176.731 140.245C176.525 140.98 176.075 141.516 175.396 141.84C174.706 142.168 173.863 142.225 173.086 142.158C174.378 143.132 175.336 144.277 175.903 145.532C176.874 147.689 176.596 150.188 175.211 151.752C174.295 152.79 172.903 153.472 171.075 153.779C166.216 154.591 161.471 152.541 157.881 150.663C150.715 146.919 145.626 142.464 142.747 137.416C141.198 139.098 139.249 140.474 137.189 141.915C137.201 141.933 137.212 141.951 137.225 141.97L138.633 144.172L136.706 142.405C133.743 139.689 129.746 136.281 125.094 134.027C123.479 133.243 121.347 132.39 119.231 132.752C117.385 133.069 115.498 134.71 115.632 136.65C115.719 137.966 116.658 139.105 117.532 140.07C121.582 144.563 126.283 148.411 131.504 151.507L131.764 151.662L131.642 151.939C130.413 154.725 129.018 157.883 129.028 161.13C129.036 163.988 130.474 167.533 133.634 168.563C134.856 168.965 136.146 168.926 137.512 168.886C138.056 168.87 138.619 168.853 139.172 168.867C139.415 168.873 139.676 168.891 139.967 168.922L140.278 168.956L140.273 169.268C140.251 170.617 139.677 171.926 138.697 172.859C138.3 173.236 137.879 173.601 137.407 173.974C135.438 175.516 132.838 175.955 130.454 175.152C128.678 174.552 126.917 173.854 125.201 173.074ZM144.446 98.1699C133.911 93.3792 117.545 98.2269 111.41 101.34C102.731 105.744 96.8777 113.489 96.1349 121.552C95.5911 127.469 97.7552 133.906 102.07 139.213C105.685 143.659 110.683 147.39 117.352 150.621L117.634 150.757L117.522 151.05C116.453 153.839 115.339 156.814 114.493 159.84C113.642 162.895 114.802 166.133 117.377 167.896C121.349 170.624 125.948 172.91 130.673 174.506C132.84 175.236 135.199 174.837 136.986 173.439C137.439 173.08 137.846 172.729 138.227 172.365C138.998 171.63 139.479 170.626 139.574 169.573C139.427 169.562 139.288 169.555 139.156 169.552C138.622 169.538 138.068 169.554 137.533 169.571C136.169 169.611 134.756 169.653 133.422 169.214C129.95 168.081 128.354 164.232 128.346 161.134C128.337 157.852 129.671 154.722 130.897 151.942C125.72 148.837 121.055 145 117.026 140.53C116.076 139.48 115.053 138.231 114.952 136.698C114.787 134.316 116.986 132.447 119.117 132.081C121.424 131.686 123.682 132.586 125.393 133.414C129.867 135.582 133.728 138.782 136.668 141.447C138.983 139.83 140.981 138.43 142.554 136.608L142.877 136.235L143.113 136.669C145.879 141.769 150.955 146.274 158.198 150.058C161.693 151.886 166.304 153.885 170.963 153.106C172.632 152.826 173.89 152.218 174.701 151.301C175.91 149.934 176.143 147.729 175.28 145.813C174.361 143.772 172.486 142.442 171.074 141.685L171.372 141.071C172.037 141.358 173.901 141.796 175.103 141.224C175.604 140.985 175.921 140.605 176.075 140.061C176.163 139.746 176.172 139.453 176.1 139.17C175.932 139.202 175.755 139.235 175.575 139.268C172.948 139.752 170.215 139.922 167.441 139.776C168.279 140.559 169.14 141.493 169.592 142.644C170.166 144.116 169.89 146.155 168.438 147.021C167.077 147.822 165.403 147.28 164.262 146.804C157.938 144.16 152.965 139.057 148.546 133.948C144.006 128.704 139.474 122.396 140.288 115.374C140.613 112.545 141.812 109.918 142.97 107.378C143.514 106.182 144.078 104.947 144.541 103.71C145.168 102.039 145.534 100.328 145.601 98.7484C145.226 98.5417 144.839 98.3485 144.446 98.1699Z" fill="#371A45"/>
    </g>
    <path d="M124.636 174.317C121.659 172.963 118.812 171.364 116.218 169.583C112.922 167.328 111.434 163.19 112.52 159.289C113.245 156.702 114.149 154.173 115.058 151.766C108.806 148.562 104.028 144.868 100.48 140.505C95.8302 134.787 93.5031 127.809 94.0954 121.364C94.902 112.605 101.182 104.233 110.484 99.5127C115.051 97.1955 123.629 94.5245 131.668 94.1375C142.366 93.6231 149.962 97.0784 153.635 104.127C155.219 107.166 155.342 110.506 155.46 113.737C155.532 115.717 155.601 117.588 155.987 119.353C157.508 126.277 163.164 132.039 170.063 133.693C174.311 134.712 176.657 135.936 177.671 137.663C178.205 138.571 178.335 139.592 178.049 140.614C177.735 141.729 177.022 142.579 175.986 143.073C176.46 143.673 176.85 144.307 177.149 144.972C178.338 147.61 177.971 150.698 176.236 152.658C175.108 153.936 173.448 154.766 171.303 155.127C166.042 156.006 161.029 153.848 157.25 151.873C150.556 148.376 145.602 144.251 142.488 139.59C141.425 140.551 140.255 141.421 139.033 142.289C140.542 145.045 140.976 148.409 140.151 151.432C139.791 152.754 139.222 153.978 138.672 155.162C137.83 156.977 137.033 158.69 137.21 160.357C137.356 161.738 138.128 163.036 139.712 164.565C140.97 165.782 141.658 167.422 141.65 169.182C141.643 170.938 140.91 172.638 139.641 173.849C139.214 174.256 138.761 174.648 138.257 175.046C135.918 176.877 132.841 177.399 130.02 176.448C128.199 175.831 126.395 175.117 124.636 174.317ZM143.857 99.3718C140.679 97.9264 136.663 97.3149 131.831 97.5469C124.294 97.9095 116.282 100.398 112.028 102.557C103.764 106.75 98.1948 114.077 97.4945 121.677C96.9838 127.241 99.0379 133.319 103.13 138.351C106.616 142.639 111.463 146.25 117.948 149.391C118.746 149.777 119.115 150.71 118.798 151.538C117.741 154.297 116.64 157.239 115.808 160.207C115.115 162.697 116.055 165.335 118.148 166.767C122.02 169.427 126.501 171.654 131.11 173.211C132.839 173.792 134.72 173.475 136.145 172.361C136.559 172.032 136.935 171.708 137.286 171.375C137.895 170.794 138.232 170.01 138.235 169.167C138.239 168.345 137.92 167.582 137.337 167.018C135.972 165.7 134.12 163.611 133.813 160.714C133.538 158.106 134.573 155.878 135.574 153.722C136.087 152.619 136.571 151.576 136.855 150.532C137.562 147.943 136.986 145.009 135.352 142.872C135.069 142.502 134.949 142.034 135.02 141.574C135.091 141.114 135.348 140.704 135.73 140.436L135.86 140.345C138.111 138.772 140.054 137.414 141.521 135.715C141.888 135.291 142.439 135.073 142.997 135.134C143.553 135.194 144.046 135.525 144.314 136.017C146.949 140.874 151.833 145.192 158.83 148.847C162.138 150.577 166.479 152.47 170.738 151.759C171.667 151.603 172.932 151.239 173.677 150.397C174.525 149.44 174.671 147.785 174.035 146.374C173.274 144.684 171.654 143.546 170.429 142.888C169.622 142.456 169.301 141.465 169.699 140.642C170.097 139.818 171.074 139.454 171.914 139.817C172.462 140.054 173.868 140.3 174.517 139.991C174.642 139.931 174.71 139.872 174.761 139.692C174.8 139.551 174.783 139.488 174.726 139.392C174.506 139.017 173.533 138.035 169.267 137.014C161.124 135.063 154.447 128.26 152.651 120.085C152.199 118.02 152.121 115.906 152.046 113.863C151.938 110.879 151.835 108.062 150.607 105.707C149.122 102.854 146.864 100.739 143.857 99.3718Z" fill="#371A45"/>
    <path d="M141.333 137.742C139.559 134.959 137.99 131.975 136.803 128.807C136.22 127.221 135.726 125.601 135.375 123.956C135.202 123.134 135.044 122.312 134.911 121.488C134.798 120.66 134.686 119.836 134.621 119.007C134.588 118.589 134.9 118.224 135.319 118.191C135.67 118.163 135.984 118.379 136.096 118.697L136.099 118.708C136.233 119.092 136.363 119.476 136.485 119.861L136.881 121.004C137.141 121.765 137.413 122.518 137.702 123.261C138.282 124.747 138.902 126.2 139.601 127.617C140.974 130.459 142.631 133.174 144.248 135.966L144.25 135.97C144.722 136.786 144.444 137.83 143.628 138.303C142.834 138.762 141.822 138.507 141.333 137.742Z" fill="#371A45"/>
    <path d="M142.588 137.609C142.26 137.46 142.014 137.15 141.963 136.767C141.885 136.176 142.301 135.632 142.893 135.553C148.517 134.806 153.74 131.015 156.196 125.897C156.454 125.359 157.09 125.126 157.638 125.39C158.176 125.648 158.403 126.293 158.144 126.832C155.381 132.591 149.506 136.855 143.177 137.696C142.97 137.723 142.767 137.69 142.588 137.609Z" fill="#371A45"/>
    <path d="M135.487 143.09C134.109 141.656 132.618 140.333 131.019 139.141C129.413 137.959 127.715 136.885 125.923 135.963C124.128 135.05 122.268 134.231 120.344 133.552C118.426 132.851 116.454 132.269 114.453 131.733L114.45 131.732C114.002 131.612 113.737 131.153 113.857 130.706C113.965 130.304 114.347 130.05 114.748 130.089C116.868 130.296 118.978 130.673 121.064 131.2C123.142 131.748 125.204 132.424 127.187 133.315C129.172 134.197 131.107 135.236 132.912 136.483C134.724 137.717 136.42 139.138 137.945 140.721C138.6 141.4 138.58 142.48 137.901 143.135C137.223 143.789 136.142 143.769 135.488 143.091L135.487 143.09Z" fill="#371A45"/>
    <path d="M116.262 152.425C115.446 152.053 115.051 151.106 115.377 150.258C115.715 149.378 116.703 148.94 117.584 149.278C121.893 150.937 132.421 153.87 137.089 145.309C137.54 144.482 138.568 144.178 139.405 144.628C140.233 145.079 140.538 146.116 140.087 146.944C135.951 154.527 127.081 156.591 116.358 152.465C116.325 152.453 116.294 152.439 116.262 152.425Z" fill="#371A45"/>
    <path d="M143.527 99.0779L143.514 99.1055C140.881 104.941 110.368 118.549 101.807 117.478C101.581 117.452 101.366 117.417 101.17 117.364C94.5087 115.68 86.752 104.519 91.178 96.526C93.1487 92.9547 97.586 89.522 102.854 86.6189C113.043 81.0037 126.341 77.3735 130.935 78.5647C136.837 80.0992 142.223 87.3815 143.691 93.8881C144.132 95.8643 144.139 97.6828 143.527 99.0779Z" fill="white"/>
    <path d="M99.4645 117.119C96.0672 115.574 92.6953 111.966 90.8833 107.783C89.092 103.649 89.091 99.5923 90.8804 96.3613C93.1946 92.1664 98.5799 88.5853 102.69 86.3205C112.656 80.828 126.159 76.9743 131.021 78.2346C137.244 79.8521 142.619 87.5817 144.024 93.8128C144.512 96.004 144.45 97.8212 143.839 99.2143L143.826 99.2419C141.065 105.359 110.404 118.897 101.764 117.817C101.498 117.786 101.274 117.745 101.081 117.694C100.546 117.559 100.004 117.365 99.4645 117.119ZM132.564 79.5089C132.002 79.2533 131.43 79.0472 130.85 78.8964C126.21 77.6938 112.685 81.5924 103.019 86.9194C97.2379 90.1057 93.2467 93.4848 91.4773 96.6926C89.7928 99.7348 89.8045 103.578 91.5091 107.512C93.5309 112.18 97.5391 116.095 101.254 117.033C101.419 117.078 101.612 117.112 101.846 117.139C110.06 118.166 140.592 104.748 143.202 98.9646L143.526 99.0777L143.213 98.9402C143.757 97.7008 143.807 95.9797 143.357 93.9627C142.129 88.5131 137.794 81.887 132.564 79.5089Z" fill="#371A45"/>
    <path d="M143.527 99.0779C140.971 104.901 110.382 118.549 101.808 117.479C101.78 117.466 101.755 117.463 101.728 117.45C98.2355 116.366 96.4165 113.442 96.8583 110.375C97.0941 108.71 98.1171 107.237 99.3849 106.137C100.654 105.037 102.166 104.254 103.664 103.486C112.795 98.8064 122.054 94.2416 131.903 91.3422C133.754 90.7953 135.651 90.3074 137.584 90.3569C139.514 90.4119 141.499 91.0646 142.788 92.5023C143.161 92.9169 143.464 93.386 143.692 93.8887C144.132 95.8642 144.139 97.6827 143.527 99.0779Z" fill="white"/>
    <path d="M100.575 117.377C97.7 116.07 96.0853 113.345 96.52 110.326C96.7444 108.74 97.6822 107.16 99.1611 105.878C100.483 104.731 102.091 103.908 103.508 103.181C112.779 98.4312 121.918 93.9258 131.807 91.0145C133.535 90.5039 135.55 89.9629 137.593 90.0152C139.826 90.0788 141.812 90.903 143.043 92.275C143.433 92.7088 143.756 93.2045 144.003 93.7488L144.025 93.8161C144.513 96.0069 144.451 97.8237 143.84 99.2165C141.15 105.345 110.479 118.907 101.765 117.819L101.671 117.793C101.641 117.784 101.617 117.776 101.591 117.764C101.237 117.653 100.898 117.524 100.575 117.377ZM140.644 91.3759C139.743 90.9661 138.694 90.7296 137.574 90.6982C135.631 90.6487 133.678 91.1738 132 91.6703C122.167 94.5656 113.059 99.0555 103.82 103.791C102.437 104.499 100.869 105.303 99.6086 106.395C98.2538 107.57 97.3971 109 97.1962 110.424C96.7613 113.438 98.6178 116.13 101.829 117.125C101.853 117.134 101.873 117.14 101.889 117.146C110.226 118.132 140.671 104.73 143.214 98.9424C143.755 97.7101 143.808 96.0016 143.366 93.9998C143.15 93.5322 142.871 93.106 142.535 92.7326C142.033 92.1722 141.389 91.7149 140.644 91.3759Z" fill="#371A45"/>
    <path d="M98.93 118.374C95.2297 116.691 91.5725 112.81 89.6298 108.326C87.6668 103.794 87.6864 99.3097 89.6854 95.699C93.5918 88.6337 105.175 83.3145 109.974 81.356C117.426 78.3139 126.93 75.7601 131.364 76.9123C138.18 78.6867 143.83 86.7433 145.357 93.5124C145.91 95.9972 145.82 98.0983 145.089 99.7629C143.052 104.404 129.669 110.627 125.616 112.423C117.321 116.099 106.655 119.803 101.596 119.171C101.271 119.133 100.984 119.08 100.728 119.011C100.132 118.862 99.5306 118.647 98.93 118.374ZM132.049 80.7687C131.543 80.5386 131.029 80.3532 130.506 80.2173C124.208 78.5816 98.0178 87.6865 92.6731 97.3531C90.6827 100.947 91.8756 104.92 92.763 106.969C94.5982 111.205 98.3085 114.88 101.59 115.71C101.708 115.741 101.841 115.764 102.008 115.784C105.562 116.228 114.489 113.623 124.233 109.303C134.782 104.629 141.137 100.276 141.964 98.3929C142.391 97.4214 142.411 95.9927 142.026 94.2605C140.874 89.1552 136.862 82.9572 132.049 80.7687Z" fill="#371A45"/>
    <path d="M100.014 118.622C96.561 117.052 94.6431 113.774 95.1685 110.131C95.4387 108.223 96.5388 106.345 98.2671 104.846C99.7137 103.591 101.399 102.728 102.885 101.966C112.215 97.1844 121.417 92.6488 131.42 89.7035C133.246 89.1633 135.385 88.5914 137.627 88.6485C140.236 88.7229 142.578 89.7119 144.058 91.3612C144.541 91.8979 144.94 92.5109 145.245 93.1822C145.293 93.2899 145.33 93.4016 145.356 93.516C145.909 95.9958 145.818 98.0976 145.088 99.7622C143.051 104.403 129.667 110.626 125.614 112.422C117.32 116.098 106.653 119.802 101.594 119.17C101.466 119.154 101.339 119.124 101.219 119.079C101.203 119.074 101.186 119.069 101.171 119.063C100.77 118.938 100.383 118.789 100.014 118.622ZM140.079 92.6162C139.345 92.2822 138.476 92.0894 137.536 92.0622C135.796 92.0176 133.966 92.5115 132.388 92.9783C122.668 95.8401 113.624 100.3 104.444 105.005C103.066 105.712 101.64 106.441 100.505 107.425C99.3994 108.384 98.7052 109.516 98.5502 110.613C98.2118 112.96 99.6345 114.989 102.179 115.802C105.822 116.15 114.631 113.558 124.233 109.303C134.782 104.628 141.138 100.275 141.964 98.3922C142.375 97.4553 142.411 96.093 142.066 94.4441C141.918 94.1504 141.734 93.8817 141.52 93.6431C141.142 93.2232 140.652 92.8768 140.079 92.6162Z" fill="#371A45"/>
    <g opacity="0.2">
        <path d="M143.514 99.1055C140.881 104.941 110.368 118.549 101.807 117.478C101.581 117.452 101.366 117.417 101.171 117.364C94.5088 115.68 86.7522 104.519 91.1781 96.526C93.1488 92.9547 97.5862 89.522 102.854 86.6189C101.714 88.8249 101.545 91.5434 103.05 93.4522C104.406 95.1764 106.698 95.819 108.864 96.1629C112.837 96.7973 116.925 96.7363 120.88 95.9969C121.406 99.4761 124.954 101.726 128.389 102.488C130.868 103.035 133.45 103.02 135.926 102.508C138.098 102.056 140.198 101.228 142.094 100.066C142.582 99.7718 143.053 99.4503 143.514 99.1055Z" fill="#0F0C4F"/>
        <path d="M99.4646 117.119C96.0674 115.574 92.6954 111.966 90.8834 107.783C89.0921 103.649 89.0911 99.5923 90.8805 96.3613C93.1947 92.1663 98.5801 88.5853 102.691 86.3205L103.674 85.778L103.159 86.7757C102.213 88.6046 101.759 91.2631 103.32 93.2407C104.67 94.9585 107.022 95.5246 108.92 95.8254C112.862 96.4555 116.866 96.4 120.819 95.6614L121.166 95.5959L121.219 95.9457C121.749 99.4604 125.452 101.486 128.464 102.155C130.831 102.677 133.389 102.685 135.858 102.174C138.013 101.726 140.051 100.918 141.917 99.7755C142.379 99.4953 142.847 99.1781 143.309 98.8318L144.37 98.0385L143.825 99.2458C141.064 105.36 110.404 118.898 101.764 117.817C101.498 117.786 101.274 117.745 101.081 117.694C100.546 117.559 100.005 117.365 99.4646 117.119ZM102.124 87.4222C96.8246 90.4591 93.1543 93.6526 91.477 96.6914C89.7925 99.7336 89.8042 103.577 91.5088 107.511C93.5306 112.179 97.5388 116.094 101.254 117.032C101.419 117.077 101.611 117.111 101.846 117.138C109.407 118.084 135.88 106.789 142.076 100.476C140.198 101.596 138.153 102.393 135.996 102.842C133.432 103.371 130.776 103.364 128.315 102.821C125.19 102.127 121.365 100.035 120.605 96.3933C116.684 97.0877 112.717 97.1229 108.81 96.4993C106.791 96.1794 104.278 95.567 102.781 93.6626C101.492 92.0276 101.265 89.7045 102.124 87.4222Z" fill="#371A45"/>
    </g>
    <path d="M112.127 117.93C111.27 117.541 110.89 116.53 111.279 115.672C112.983 111.915 116.889 109.24 121 109.015C121.94 108.964 122.747 109.685 122.798 110.626C122.85 111.567 122.129 112.372 121.188 112.424C118.314 112.582 115.582 114.453 114.39 117.081C114 117.939 112.988 118.32 112.13 117.931C112.129 117.931 112.128 117.931 112.127 117.93Z" fill="#371A45"/>
    <path d="M145.169 140.897C144.962 141.099 144.745 141.285 144.512 141.448C144.392 141.531 144.268 141.61 144.142 141.684C142.804 142.465 141.145 142.612 139.644 141.944L139.534 141.897C138.223 141.279 136.938 140.612 135.683 139.894C133.05 138.403 130.542 136.705 128.185 134.826C125.716 132.868 123.412 130.707 121.302 128.389C118.274 125.055 115.643 121.38 113.498 117.458C113.283 117.066 113.076 116.676 112.874 116.282C112.465 115.495 112.079 114.698 111.713 113.893C111.347 113.084 110.998 112.271 110.673 111.449C110.594 111.247 110.523 111.041 110.474 110.836C110.47 110.835 110.475 110.831 110.475 110.831C110.399 110.557 110.352 110.281 110.33 110.004L110.331 109.999C110.319 109.863 110.311 109.727 110.309 109.588C110.308 109.518 110.31 109.447 110.314 109.377C110.319 109.241 110.328 109.101 110.34 108.967C110.542 107.154 111.689 105.495 113.464 104.741C114.146 104.452 114.852 104.328 115.543 104.351C115.648 104.354 115.754 104.358 115.86 104.37C116.408 104.424 116.935 104.569 117.432 104.792C117.49 104.82 117.551 104.85 117.612 104.878C117.669 104.911 117.73 104.939 117.787 104.972C117.903 105.037 118.018 105.11 118.129 105.182C118.333 105.317 118.528 105.466 118.711 105.633C118.807 105.718 118.893 105.804 118.978 105.894C119.068 105.985 119.148 106.077 119.228 106.174C119.3 106.265 119.372 106.36 119.441 106.454C119.453 106.469 119.465 106.485 119.472 106.504C119.537 106.592 119.597 106.688 119.656 106.788C119.662 106.794 119.667 106.804 119.672 106.817C119.731 106.912 119.781 107.014 119.831 107.114C119.845 107.135 119.854 107.15 119.857 107.167C119.912 107.278 119.963 107.392 120.009 107.509C120.667 109.173 121.445 110.804 122.323 112.394C126.051 119.147 131.641 125.123 138.257 129.44C138.97 131.007 139.757 132.543 140.611 134.04C141.357 135.353 142.151 136.638 142.997 137.887C143.688 138.916 144.412 139.919 145.169 140.897Z" fill="white"/>
    <path d="M139.403 142.208C138.072 141.582 136.769 140.905 135.516 140.188C132.891 138.703 130.354 136.988 127.975 135.092C125.514 133.14 123.185 130.96 121.053 128.617C117.989 125.245 115.348 121.545 113.202 117.622C112.986 117.227 112.778 116.834 112.574 116.439C112.181 115.682 111.788 114.874 111.405 114.035C111.008 113.156 110.666 112.352 110.358 111.575C110.294 111.411 110.241 111.257 110.196 111.11L110.164 111.101L110.136 110.879C110.064 110.606 110.015 110.321 109.992 110.032L109.988 109.96C109.979 109.84 109.973 109.72 109.97 109.598C109.969 109.525 109.971 109.455 109.974 109.384C109.98 109.225 109.989 109.079 110.002 108.939C110.225 106.933 111.5 105.21 113.329 104.433C114.04 104.132 114.788 103.991 115.551 104.015C115.666 104.019 115.781 104.024 115.897 104.037C116.466 104.093 117.031 104.244 117.569 104.486L117.952 104.681C118.073 104.749 118.195 104.826 118.311 104.902C118.541 105.053 118.75 105.216 118.936 105.386C119.035 105.474 119.129 105.567 119.221 105.664C119.314 105.758 119.401 105.858 119.487 105.962C119.566 106.06 119.64 106.159 119.712 106.257C119.724 106.272 119.742 106.297 119.761 106.331C119.817 106.409 119.869 106.49 119.92 106.576L119.948 106.602L119.972 106.666C120.027 106.756 120.074 106.851 120.122 106.947C120.139 106.973 120.157 107.006 120.171 107.046C120.226 107.157 120.275 107.272 120.321 107.389C120.956 108.996 121.729 110.627 122.616 112.234C126.289 118.887 131.908 124.898 138.438 129.16L138.52 129.214L138.56 129.303C139.266 130.854 140.054 132.393 140.901 133.876C141.653 135.199 142.451 136.485 143.274 137.7C143.961 138.718 144.688 139.724 145.436 140.691L145.619 140.929L145.405 141.139C145.176 141.364 144.94 141.561 144.705 141.725C144.577 141.815 144.446 141.898 144.313 141.976C142.841 142.835 141.044 142.939 139.507 142.254L139.403 142.208ZM110.868 110.996C110.902 111.101 110.941 111.211 110.986 111.325C111.289 112.092 111.626 112.886 112.019 113.754C112.397 114.581 112.785 115.379 113.172 116.128C113.374 116.518 113.58 116.907 113.793 117.296C115.914 121.173 118.524 124.829 121.551 128.162C123.659 130.479 125.961 132.632 128.394 134.563C130.747 136.437 133.254 138.132 135.849 139.6C137.088 140.309 138.375 140.979 139.678 141.591L139.775 141.633C141.141 142.242 142.668 142.153 143.971 141.392C144.089 141.323 144.206 141.249 144.32 141.17C144.45 141.078 144.582 140.974 144.714 140.859C144.023 139.956 143.351 139.022 142.714 138.077C141.882 136.848 141.074 135.547 140.315 134.21C139.474 132.738 138.691 131.211 137.986 129.671C131.401 125.353 125.734 119.28 122.024 112.559C121.123 110.926 120.338 109.269 119.692 107.635C119.65 107.526 119.604 107.422 119.553 107.319L119.525 107.265C119.478 107.17 119.434 107.08 119.383 106.997L119.358 106.955C119.307 106.868 119.255 106.784 119.198 106.706L119.155 106.629C119.101 106.565 119.032 106.474 118.962 106.388C118.891 106.301 118.817 106.215 118.734 106.131C118.652 106.045 118.573 105.965 118.484 105.888C118.32 105.738 118.138 105.597 117.94 105.465C117.837 105.399 117.729 105.329 117.619 105.268L117.281 105.096C116.822 104.89 116.327 104.757 115.824 104.708C115.72 104.696 115.625 104.694 115.529 104.69C114.865 104.669 114.213 104.792 113.593 105.055C111.988 105.735 110.87 107.25 110.673 109.007C110.662 109.128 110.653 109.26 110.649 109.391C110.646 109.468 110.644 109.527 110.645 109.585C110.647 109.715 110.654 109.844 110.666 109.972L110.671 110.045C110.689 110.231 110.719 110.414 110.761 110.592L110.777 110.66C110.784 110.688 110.791 110.715 110.799 110.742L110.868 110.996Z" fill="#371A45"/>
    <path d="M138.916 143.279L138.89 143.267C137.543 142.634 136.211 141.941 134.931 141.208C132.258 139.696 129.669 137.945 127.242 136.011C124.733 134.021 122.357 131.799 120.182 129.408C117.056 125.966 114.36 122.19 112.169 118.185C111.949 117.782 111.735 117.381 111.527 116.977C111.102 116.15 110.7 115.324 110.335 114.522C109.932 113.625 109.593 112.826 109.294 112.074L109.088 112.015L108.975 111.077C108.901 110.757 108.85 110.445 108.822 110.146L108.8 109.803C108.797 109.743 108.796 109.682 108.795 109.621C108.793 109.521 108.796 109.43 108.799 109.337C108.805 109.162 108.817 108.994 108.832 108.83C109.105 106.38 110.651 104.292 112.871 103.349C113.741 102.981 114.655 102.809 115.59 102.839C115.736 102.844 115.886 102.852 116.027 102.868C116.709 102.935 117.397 103.118 118.052 103.412L118.396 103.583C118.434 103.602 118.472 103.622 118.508 103.642C118.681 103.733 118.838 103.829 118.983 103.933C119.237 104.099 119.488 104.295 119.73 104.515C119.843 104.615 119.961 104.731 120.076 104.853C120.179 104.958 120.288 105.083 120.396 105.213C120.494 105.336 120.581 105.45 120.663 105.562C120.687 105.593 120.719 105.638 120.754 105.695C120.783 105.737 120.811 105.78 120.84 105.824L120.973 105.95L121.055 106.185C121.09 106.25 121.124 106.316 121.157 106.382C121.187 106.436 121.215 106.49 121.24 106.546C121.304 106.675 121.364 106.811 121.422 106.958C122.044 108.53 122.793 110.115 123.647 111.663C127.229 118.15 132.71 124.014 139.083 128.172L139.45 128.413L139.632 128.813C140.324 130.332 141.095 131.837 141.924 133.29C142.662 134.588 143.444 135.848 144.249 137.038L144.25 137.04C144.924 138.036 145.635 139.022 146.367 139.969L147.18 141.02L146.243 141.962C145.98 142.226 145.69 142.469 145.381 142.686C145.225 142.794 145.069 142.894 144.91 142.987C143.109 144.037 140.912 144.163 139.03 143.324L138.916 143.279ZM111.95 110.503C111.992 110.647 112.035 110.776 112.082 110.893C112.37 111.622 112.701 112.401 113.093 113.274C113.434 114.024 113.815 114.806 114.218 115.591C114.414 115.971 114.616 116.351 114.825 116.732C116.9 120.527 119.457 124.107 122.422 127.372C124.486 129.641 126.742 131.751 129.125 133.642C131.431 135.48 133.887 137.139 136.428 138.578C137.636 139.269 138.886 139.92 140.152 140.516L140.235 140.551C141.145 140.956 142.134 140.953 143.021 140.56C142.582 139.959 142.153 139.349 141.738 138.735C140.89 137.48 140.066 136.153 139.291 134.789C138.49 133.387 137.74 131.934 137.058 130.466C130.436 126.058 124.742 119.915 120.994 113.126C120.078 111.466 119.273 109.764 118.603 108.067C118.579 108.008 118.556 107.954 118.53 107.901L118.502 107.848L118.41 107.663C118.402 107.647 118.394 107.632 118.385 107.618L118.283 107.449C118.273 107.433 118.262 107.418 118.251 107.403L118.127 107.228C118.099 107.191 118.071 107.157 118.045 107.123C118.004 107.073 117.952 107.012 117.894 106.954C117.821 106.877 117.766 106.821 117.704 106.767C117.56 106.636 117.433 106.536 117.311 106.459L117.23 106.403C117.193 106.376 117.144 106.346 117.084 106.315L116.996 106.267C116.969 106.253 116.943 106.239 116.916 106.225L116.794 106.166C116.444 106.01 116.079 105.914 115.709 105.877C115.623 105.868 115.556 105.867 115.489 105.864C114.999 105.849 114.514 105.94 114.051 106.136C112.837 106.652 111.99 107.801 111.841 109.137C111.834 109.213 111.827 109.322 111.823 109.429C111.821 109.493 111.818 109.529 111.819 109.567C111.821 109.665 111.828 109.768 111.837 109.873L111.843 109.942C111.862 110.107 111.896 110.283 111.942 110.468L111.95 110.503ZM118.218 107.349C118.221 107.354 118.225 107.359 118.228 107.363C118.225 107.358 118.221 107.353 118.218 107.349Z" fill="#371A45"/>
    <path d="M116.257 122.872C115.835 122.681 115.637 122.187 115.816 121.755C117.263 118.254 120.263 115.545 123.842 114.511C124.301 114.378 124.78 114.643 124.912 115.101C125.045 115.559 124.781 116.04 124.322 116.172C121.291 117.049 118.643 119.441 117.414 122.416C117.232 122.857 116.726 123.067 116.285 122.885C116.275 122.881 116.265 122.876 116.257 122.872Z" fill="#371A45"/>
    <path d="M120.945 129.176C120.696 129.062 120.505 128.834 120.452 128.545C120.365 128.075 120.676 127.624 121.146 127.538C124.093 126.997 127.097 124.273 127.984 121.337C128.122 120.88 128.605 120.621 129.061 120.759C129.513 120.898 129.777 121.38 129.639 121.837C128.563 125.398 125.046 128.58 121.458 129.239C121.277 129.272 121.1 129.246 120.945 129.176Z" fill="#371A45"/>
    <path d="M127.824 135.616C127.599 135.514 127.419 135.316 127.348 135.059C127.221 134.598 127.491 134.122 127.95 133.995C129.37 133.603 131.119 132.382 132.019 131.156C132.926 129.92 133.406 128.395 133.371 126.863C133.36 126.386 133.738 125.99 134.215 125.979C134.692 125.968 135.088 126.345 135.099 126.823C135.143 128.735 134.544 130.638 133.413 132.181C132.275 133.731 130.217 135.164 128.411 135.663C128.208 135.718 128.002 135.697 127.824 135.616Z" fill="#371A45"/>
    <path d="M135.321 140.682C135.177 140.616 135.048 140.51 134.956 140.368C134.696 139.967 134.806 139.433 135.206 139.173L135.21 139.17C135.232 139.156 135.254 139.143 135.277 139.13C136.611 138.421 137.842 137.263 138.744 135.869C138.759 135.846 138.775 135.824 138.791 135.803C139.213 135.148 139.548 134.462 139.79 133.76C139.945 133.309 140.437 133.069 140.889 133.225C141.335 133.379 141.58 133.872 141.424 134.324C141.129 135.182 140.715 136.019 140.197 136.812C140.183 136.834 140.168 136.856 140.151 136.876C139.097 138.481 137.66 139.82 136.094 140.654C135.85 140.789 135.562 140.792 135.321 140.682Z" fill="#371A45"/>
    <g opacity="0.2">
        <path d="M145.169 140.897C144.962 141.099 144.745 141.285 144.512 141.448C144.392 141.531 144.268 141.61 144.142 141.684C142.804 142.465 141.145 142.612 139.644 141.944L139.534 141.897C138.223 141.279 136.938 140.612 135.683 139.894C133.05 138.403 130.542 136.705 128.185 134.826C125.716 132.868 123.412 130.707 121.302 128.389C118.274 125.055 115.643 121.38 113.498 117.458C113.283 117.066 113.076 116.676 112.874 116.282C112.465 115.495 112.079 114.698 111.713 113.893C111.347 113.084 110.998 112.271 110.673 111.449C110.594 111.247 110.523 111.041 110.474 110.836C110.47 110.835 110.475 110.831 110.475 110.831C110.399 110.557 110.352 110.281 110.33 110.004L110.331 109.999C110.319 109.863 110.311 109.727 110.309 109.588C110.308 109.518 110.31 109.447 110.314 109.377C110.319 109.241 110.328 109.101 110.34 108.967C110.542 107.154 111.689 105.495 113.464 104.741C114.146 104.452 114.852 104.328 115.543 104.351C115.648 104.354 115.754 104.358 115.86 104.37C116.408 104.424 116.935 104.569 117.432 104.792C117.49 104.82 117.551 104.85 117.612 104.878C117.669 104.911 117.73 104.939 117.787 104.972C117.903 105.037 118.018 105.11 118.129 105.182C117.89 105.638 117.638 106.07 117.537 106.422C117.103 107.876 117.014 109.44 117.208 110.94C117.532 113.368 118.526 115.637 119.723 117.761C119.845 117.987 119.976 118.21 120.103 118.428C121.722 121.185 123.639 123.752 125.792 126.091C127.806 128.285 130.033 130.277 132.422 132.04C134.64 133.68 137.001 135.121 139.474 136.339C140.624 136.904 141.802 137.425 142.996 137.889C143.688 138.916 144.412 139.919 145.169 140.897Z" fill="#0F0C4F"/>
        <path d="M139.403 142.208C138.072 141.582 136.769 140.905 135.516 140.188C132.891 138.703 130.354 136.988 127.975 135.092C125.514 133.14 123.185 130.96 121.053 128.617C117.989 125.245 115.348 121.545 113.202 117.622C112.986 117.227 112.778 116.834 112.574 116.439C112.181 115.682 111.788 114.874 111.405 114.035C111.008 113.156 110.666 112.352 110.358 111.575C110.294 111.411 110.241 111.257 110.196 111.11L110.164 111.101L110.136 110.879C110.064 110.606 110.015 110.321 109.992 110.032L109.988 109.96C109.979 109.84 109.973 109.72 109.97 109.598C109.969 109.525 109.971 109.455 109.974 109.384C109.98 109.225 109.989 109.079 110.002 108.939C110.225 106.933 111.5 105.21 113.329 104.433C114.04 104.132 114.788 103.991 115.551 104.015C115.666 104.019 115.781 104.024 115.897 104.037C116.466 104.093 117.031 104.244 117.569 104.486L117.952 104.681C118.073 104.749 118.195 104.826 118.311 104.902L118.569 105.069L118.284 105.607C118.102 105.946 117.931 106.267 117.861 106.516C117.456 107.871 117.346 109.385 117.541 110.898C117.816 112.959 118.603 115.088 120.016 117.597C120.139 117.824 120.268 118.044 120.393 118.259C121.978 120.957 123.878 123.516 126.038 125.863C128.021 128.023 130.235 130.009 132.62 131.768C134.824 133.398 137.179 134.834 139.621 136.036C140.792 136.611 141.969 137.129 143.116 137.574L143.215 137.613L143.274 137.7C143.961 138.717 144.688 139.724 145.436 140.691L145.619 140.929L145.405 141.139C145.176 141.364 144.94 141.561 144.705 141.725C144.577 141.815 144.446 141.898 144.313 141.976C142.841 142.835 141.044 142.939 139.507 142.254L139.403 142.208ZM110.868 110.996C110.902 111.101 110.941 111.211 110.986 111.325C111.289 112.092 111.626 112.886 112.019 113.754C112.397 114.581 112.785 115.379 113.172 116.128C113.374 116.518 113.58 116.907 113.793 117.296C115.914 121.173 118.524 124.829 121.551 128.162C123.659 130.479 125.961 132.632 128.394 134.563C130.747 136.437 133.254 138.132 135.849 139.6C137.088 140.309 138.375 140.979 139.678 141.591L139.775 141.633C141.141 142.242 142.668 142.153 143.971 141.392C144.089 141.323 144.206 141.249 144.32 141.17C144.45 141.078 144.582 140.974 144.714 140.859C144.044 139.984 143.392 139.079 142.773 138.165C141.639 137.721 140.478 137.209 139.323 136.642C136.845 135.422 134.454 133.964 132.219 132.311C129.799 130.527 127.553 128.511 125.541 126.32C123.347 123.937 121.418 121.339 119.81 118.6C119.68 118.378 119.548 118.151 119.424 117.923C117.97 115.342 117.158 113.136 116.872 110.985C116.665 109.377 116.782 107.767 117.213 106.326C117.3 106.016 117.486 105.669 117.682 105.302C117.662 105.29 117.641 105.279 117.62 105.267L117.282 105.095C116.822 104.889 116.328 104.756 115.825 104.707C115.721 104.695 115.625 104.692 115.53 104.688C114.865 104.667 114.214 104.79 113.594 105.053C111.988 105.734 110.87 107.249 110.674 109.005C110.662 109.126 110.653 109.259 110.649 109.389C110.646 109.467 110.644 109.525 110.645 109.584C110.647 109.713 110.655 109.842 110.667 109.971L110.672 110.043C110.69 110.229 110.72 110.413 110.761 110.59L110.778 110.659C110.785 110.687 110.792 110.713 110.799 110.741L110.868 110.996Z" fill="#371A45"/>
    </g>
    <path d="M146.952 108.298C147.389 108.984 147.844 109.659 148.32 110.321C149.63 112.139 151.092 113.865 152.698 115.474C155.574 118.358 158.913 120.872 162.682 122.899C163.352 123.258 164.027 123.6 164.707 123.917C166.098 124.576 167.512 125.149 168.938 125.645C175.946 128.078 183.284 128.566 190.28 127.314C202.618 125.107 213.866 117.493 220.263 105.599C224.712 97.3277 226.139 88.244 224.935 79.6079C224.801 78.6474 224.633 77.6923 224.434 76.7458C223.81 73.7663 222.867 70.8582 221.623 68.0765C220.38 65.2913 218.834 62.6286 217.001 60.1508C216.209 59.0779 215.361 58.0388 214.459 57.0381C214.125 56.6646 213.783 56.2953 213.432 55.9363C210.454 52.8436 206.947 50.1573 202.963 48.0145C182.286 36.8904 156.505 44.6331 145.38 65.3147C137.827 79.3519 138.97 95.7369 146.952 108.298Z" fill="white"/>
    <path d="M165.195 124.363C165.003 124.275 164.812 124.187 164.623 124.097C163.98 123.797 163.314 123.463 162.588 123.075C158.878 121.079 155.503 118.569 152.557 115.615C150.961 114.016 149.481 112.275 148.158 110.437C147.698 109.797 147.237 109.113 146.785 108.405C138.497 95.362 137.891 78.8147 145.205 65.2209C150.611 55.1725 159.605 47.8305 170.533 44.5481C181.46 41.2661 193.012 42.4345 203.059 47.8403C206.988 49.9538 210.527 52.6319 213.577 55.7998C213.905 56.1371 214.244 56.4992 214.609 56.9064C215.51 57.909 216.369 58.9609 217.163 60.0341C218.985 62.4977 220.547 65.1763 221.806 67.9962C223.055 70.7886 224.005 73.7192 224.631 76.706C224.832 77.6668 225.002 78.6341 225.134 79.5816C226.394 88.6142 224.771 97.6432 220.44 105.694C214.226 117.245 203.246 125.198 190.317 127.51C183.146 128.794 175.731 128.214 168.875 125.834C167.614 125.394 166.379 124.901 165.195 124.363ZM147.119 108.191C147.568 108.893 148.025 109.571 148.48 110.206C149.791 112.025 151.257 113.751 152.838 115.334C155.757 118.261 159.1 120.748 162.775 122.725C163.494 123.11 164.154 123.441 164.791 123.737C166.136 124.374 167.552 124.953 169.003 125.458C175.795 127.816 183.141 128.391 190.244 127.119C203.054 124.828 213.932 116.95 220.088 105.506C224.378 97.53 225.987 88.5847 224.738 79.6361C224.607 78.6978 224.439 77.7389 224.239 76.7874C223.62 73.8279 222.678 70.9243 221.441 68.1579C220.194 65.3643 218.646 62.7102 216.841 60.2696C216.055 59.2066 215.204 58.1641 214.312 57.1712C213.95 56.7681 213.616 56.4093 213.29 56.075C210.268 52.9367 206.762 50.2841 202.87 48.1894C192.91 42.8299 181.47 41.6755 170.646 44.927C159.82 48.179 150.909 55.4525 145.553 65.4077C138.309 78.8755 138.91 95.2697 147.119 108.191Z" fill="#371A45"/>
    <g opacity="0.35">
        <path d="M149.436 111.796C149.941 112.434 150.461 113.06 151.001 113.672C152.488 115.349 154.115 116.918 155.877 118.358C159.028 120.936 162.827 123.642 166.782 125.28C167.485 125.569 168.191 125.842 168.9 126.088C170.35 126.603 171.815 127.031 173.284 127.382C180.501 129.095 187.628 128.3 194.461 126.35C206.513 122.911 216.937 114.203 222.103 101.724C224.525 95.8757 225.544 89.7968 225.315 83.8633C219.728 90.854 212.133 95.7974 203.745 98.1917C196.912 100.142 189.562 100.396 182.344 98.6817C180.875 98.3319 179.41 97.9034 177.96 97.3884C177.251 97.1417 176.546 96.8694 175.842 96.5799C171.888 94.9422 168.312 92.7778 165.161 90.1991C163.4 88.7591 161.772 87.1904 160.285 85.5132C159.746 84.9019 159.226 84.276 158.721 83.6379C153.17 76.5877 149.955 67.9074 149.609 58.8968C147.167 61.9506 145.109 65.3958 143.54 69.1884C137.441 83.9172 140.229 100.103 149.436 111.796Z" fill="#293856"/>
        <path d="M165.825 125.081C162.727 123.673 159.422 121.516 155.751 118.512C154.004 117.083 152.355 115.499 150.852 113.804C150.327 113.209 149.798 112.576 149.28 111.92C139.72 99.7786 137.449 83.3767 143.357 69.1146C144.901 65.381 146.953 61.9028 149.455 58.7743C149.506 58.7094 149.594 58.6845 149.672 58.7098C149.752 58.7383 149.805 58.8083 149.809 58.8906C150.15 67.7752 153.371 76.5211 158.878 83.5164C159.391 84.1661 159.915 84.7946 160.435 85.3826C161.923 87.0614 163.555 88.6299 165.287 90.0466C168.486 92.6637 172.059 94.7996 175.919 96.3971C176.674 96.7083 177.364 96.9707 178.026 97.2017C179.428 97.6995 180.896 98.1326 182.391 98.4892C189.385 100.151 196.751 99.982 203.691 98.001C212.228 95.5641 219.652 90.6323 225.16 83.7397C225.212 83.6747 225.299 83.6491 225.378 83.6752C225.457 83.7036 225.511 83.7736 225.514 83.8559C225.751 90.0213 224.665 96.0582 222.287 101.8C217.269 113.919 207.147 122.936 194.516 126.54C186.682 128.776 179.722 129.115 173.238 127.575C171.73 127.215 170.248 126.778 168.834 126.276C168.166 126.043 167.47 125.778 166.706 125.464C166.414 125.343 166.12 125.216 165.825 125.081ZM149.593 111.674C150.106 112.323 150.63 112.951 151.15 113.541C152.638 115.22 154.271 116.788 156.002 118.205C159.992 121.471 163.542 123.728 166.857 125.097C167.613 125.408 168.303 125.671 168.965 125.901C170.367 126.399 171.835 126.832 173.329 127.189C179.746 128.713 186.64 128.376 194.406 126.159C206.921 122.588 216.95 113.654 221.92 101.648C224.208 96.1257 225.289 90.3258 225.134 84.4032C219.61 91.1439 212.244 95.9725 203.801 98.3831C196.795 100.382 189.36 100.552 182.299 98.8757C180.791 98.5157 179.309 98.0793 177.895 97.5769C177.227 97.3446 176.53 97.0789 175.767 96.7653C171.875 95.1551 168.265 92.9973 165.036 90.355C163.288 88.9254 161.639 87.3408 160.138 85.6463C159.613 85.0523 159.084 84.4186 158.565 83.762C153.117 76.8408 149.885 68.223 149.436 59.4391C147.107 62.4284 145.186 65.7319 143.724 69.2655C137.872 83.3948 140.121 99.6446 149.593 111.674Z" fill="#371A45"/>
    </g>
    <g opacity="0.35">
        <path d="M183.913 127.907C169.543 127.605 169.149 125.649 166.777 124.032C164.823 122.701 158.617 117.654 155.195 112.246C151.362 106.189 148.259 94.1881 152.248 84.553C152.878 83.0329 153.584 81.5697 154.364 80.1625L157.71 82.4972C157.029 83.9858 156.461 85.55 156.013 87.191C151.985 101.947 159.765 112.704 168.122 119.317C175.659 125.278 183.662 127.828 183.913 127.907Z" fill="#293856"/>
        <path d="M169.714 126.237C168.739 125.794 168.124 125.311 167.517 124.833C167.235 124.612 166.97 124.403 166.666 124.197C165.128 123.151 158.649 118.075 155.027 112.353C150.777 105.636 148.294 93.584 152.064 84.477C152.696 82.9565 153.411 81.4721 154.19 80.0665C154.218 80.0171 154.265 79.9825 154.319 79.9693C154.374 79.9572 154.432 79.9674 154.477 80.0002L157.823 82.3349C157.902 82.3896 157.93 82.4927 157.89 82.58C157.211 84.0655 156.643 85.6351 156.203 87.2437C152.05 102.463 160.459 113.002 168.246 119.161C175.697 125.054 183.638 127.613 183.972 127.718C184.069 127.748 184.125 127.842 184.108 127.939C184.092 128.037 184.007 128.107 183.908 128.106C175.4 127.927 171.761 127.168 169.714 126.237ZM154.432 80.4519C153.701 81.7872 153.028 83.1912 152.432 84.6291C148.713 93.6119 151.167 105.507 155.364 112.14C158.949 117.805 165.367 122.832 166.89 123.868C167.205 124.083 167.488 124.306 167.762 124.521C169.53 125.911 171.353 127.345 182.656 127.678C180.1 126.728 173.895 124.137 167.999 119.474C160.119 113.239 151.609 102.568 155.82 87.1398C156.252 85.5644 156.803 84.0264 157.461 82.5664L154.432 80.4519Z" fill="#371A45"/>
    </g>
    <path d="M164.629 125.415C161.158 123.837 157.925 121.829 154.997 119.433C153.201 117.964 151.507 116.336 149.962 114.593C149.421 113.981 148.878 113.33 148.347 112.657C148.347 112.657 148.346 112.656 148.345 112.656C138.519 100.177 136.186 83.318 142.257 68.6583C146.744 57.8218 155.182 49.3824 166.017 44.8938C176.851 40.4059 188.785 40.4051 199.621 44.8918C203.857 46.6484 207.753 49.0185 211.201 51.9418C211.568 52.2495 211.953 52.5867 212.371 52.9667C213.394 53.8956 214.383 54.8839 215.306 55.9012C217.424 58.2304 219.3 60.8085 220.88 63.5627C222.446 66.2896 223.722 69.1882 224.67 72.1766C224.976 73.1355 225.249 74.1079 225.483 75.0644C227.707 84.171 226.982 93.574 223.388 102.255C218.23 114.712 207.825 123.981 194.843 127.685C187.641 129.741 179.999 129.916 172.739 128.191C171.189 127.822 169.666 127.372 168.211 126.855C167.53 126.618 166.814 126.345 166.03 126.023C165.559 125.829 165.092 125.626 164.629 125.415ZM150.528 110.937C151.027 111.569 151.537 112.18 152.042 112.752C153.487 114.382 155.073 115.907 156.755 117.282C159.864 119.826 163.337 121.902 167.088 123.455C167.821 123.757 168.491 124.012 169.131 124.235C170.501 124.722 171.927 125.142 173.38 125.489C180.177 127.103 187.334 126.939 194.078 125.014C206.241 121.544 215.987 112.862 220.818 101.193C224.185 93.0603 224.864 84.2537 222.781 75.7244C222.563 74.8292 222.306 73.9192 222.02 73.0196C221.132 70.219 219.937 67.5032 218.469 64.9472C216.988 62.3666 215.232 59.9532 213.248 57.7711C212.383 56.8185 211.459 55.8949 210.5 55.0236C210.109 54.6673 209.753 54.3553 209.409 54.0677C206.174 51.325 202.523 49.1022 198.556 47.4595C188.406 43.2563 177.227 43.2568 167.079 47.4616C156.93 51.6664 149.025 59.5715 144.823 69.7223C139.137 83.4534 141.323 99.2462 150.528 110.937Z" fill="#371A45"/>
    <path d="M153.421 107.832C158.056 113.829 161.817 118.697 166.451 124.695C166.486 124.71 166.522 124.724 166.557 124.739C167.261 125.029 167.966 125.301 168.676 125.548C170.126 126.063 171.591 126.49 173.059 126.841C180.276 128.555 187.627 128.301 194.46 126.351C206.513 122.912 216.937 114.203 222.103 101.725C224.975 94.7876 225.875 87.5262 225.062 80.5668C223.96 78.8858 222.72 77.2838 221.354 75.7812C220.525 74.8695 219.648 73.9937 218.728 73.1565C218.385 72.8457 218.036 72.537 217.681 72.2413C214.654 69.6758 211.183 67.5339 207.322 65.9349C187.283 57.6346 164.312 67.1512 156.012 87.1927C153.207 93.9659 152.438 101.072 153.421 107.832Z" fill="#371A45"/>
    <g opacity="0.5">
        <path d="M212.738 74.7991C212.732 74.3663 213.437 75.3073 213.778 75.5714C214.071 75.7928 214.358 76.026 214.641 76.2609C215.398 76.8932 216.124 77.5567 216.812 78.2515C217.947 79.3954 218.984 80.6221 219.916 81.917C220.8 87.406 220.337 93.1921 218.299 98.7892C214.633 108.858 208.395 114.18 199.501 117.308C199.501 117.308 203.464 113.385 207.876 103.248C210.343 97.5796 212.95 90.4314 212.738 74.7991Z" fill="white"/>
    </g>
    <g opacity="0.35">
        <path d="M153.834 109.222C153.833 109.225 153.833 109.225 153.835 109.226C156.071 112.136 158.724 114.802 161.78 117.135C162.386 117.595 162.998 118.039 163.62 118.459C164.889 119.329 166.195 120.117 167.526 120.833C174.062 124.34 181.232 125.979 188.337 125.845C195.127 125.718 201.85 123.973 207.89 120.692C193.952 121.337 180.983 115.851 171.781 106.493C166.199 100.82 162.008 93.7296 159.824 85.7144C159.455 84.3489 159.138 82.9555 158.888 81.5406C153.686 90.0573 152.092 99.9354 153.834 109.222Z" fill="#111A28"/>
    </g>
    <path d="M165.789 125.875C163.536 124.851 162.773 123.238 162.096 121.809C161.591 120.743 161.156 119.824 160.117 119.023C159.758 118.747 159.562 118.31 159.595 117.858C159.615 117.566 159.73 117.294 159.915 117.078C159.863 117.077 159.809 117.076 159.755 117.076C159.37 117.073 158.986 116.904 158.733 116.613C158.653 116.52 158.586 116.418 158.533 116.307C154.315 107.455 149.954 98.3019 154.767 86.6771C158.92 76.6516 166.727 68.8427 176.75 64.6901C186.773 60.5375 197.814 60.537 207.839 64.6891C211.757 66.3112 215.361 68.5059 218.554 71.2126C218.867 71.472 219.215 71.7753 219.636 72.1576C220.595 73.0316 221.509 73.9452 222.354 74.8745C223.76 76.4224 225.051 78.0894 226.192 79.8278C226.307 80.0035 226.379 80.2025 226.403 80.4102C227.265 87.7861 226.21 95.3357 223.351 102.241C218.198 114.687 207.803 123.946 194.832 127.648C187.639 129.701 180.003 129.876 172.75 128.153C171.201 127.784 169.679 127.336 168.227 126.82C167.546 126.583 166.83 126.31 166.047 125.988C165.957 125.95 165.872 125.913 165.789 125.875ZM163.043 118.124C163.738 118.974 164.152 119.85 164.533 120.654C165.144 121.944 165.598 122.883 167.074 123.493C167.808 123.795 168.478 124.051 169.119 124.274C170.49 124.761 171.918 125.182 173.372 125.529C180.176 127.145 187.34 126.981 194.09 125.054C206.265 121.581 216.021 112.889 220.857 101.209C223.499 94.8269 224.5 87.8602 223.758 81.0406C222.739 79.5152 221.595 78.0528 220.355 76.688C219.567 75.8216 218.714 74.9681 217.819 74.1528C217.43 73.8003 217.112 73.5218 216.819 73.2792C213.828 70.7441 210.461 68.6959 206.805 67.1806C197.446 63.3039 187.138 63.3044 177.78 67.1809C168.422 71.0575 161.133 78.3478 157.256 87.7083C153.303 97.2563 155.96 104.564 160.616 114.411C162.487 114.548 163.488 115.101 163.751 116.123C163.964 116.944 163.573 117.612 163.043 118.124Z" fill="#371A45"/>
    <path d="M183.913 127.907C169.543 127.605 169.149 125.649 166.778 124.032C164.823 122.701 158.617 117.654 155.196 112.246C151.362 106.189 148.259 94.1883 152.248 84.5531C152.879 83.0331 153.584 81.5699 154.364 80.1627C164.703 61.5019 187.627 53.1811 207.8 61.5368C211.977 63.2642 215.739 65.5878 219.013 68.3597C219.398 68.686 219.771 69.019 220.146 69.355C221.143 70.2593 222.088 71.2097 222.988 72.1985C223.11 72.3287 223.229 72.4617 223.345 72.5971C223.638 73.5189 223.903 74.4525 224.13 75.3937C224.377 76.4055 224.591 77.4297 224.761 78.46C224.849 78.9808 224.177 79.2648 223.864 78.8441C223.084 77.7836 222.246 76.7604 221.353 75.779C220.526 74.8688 219.65 73.9917 218.73 73.1554C218.387 72.8426 218.038 72.535 217.681 72.2375C214.656 69.6755 211.183 67.5331 207.322 65.9311C188.854 58.2852 165.697 65.0145 157.711 82.4966C157.03 83.9852 156.461 85.5494 156.013 87.1904C151.986 101.946 159.766 112.703 168.123 119.317C175.66 125.278 183.662 127.828 183.913 127.907Z" fill="white"/>
    <path d="M169.714 126.237C168.739 125.794 168.124 125.311 167.517 124.833C167.235 124.612 166.97 124.403 166.666 124.196C165.128 123.151 158.649 118.075 155.027 112.353C150.777 105.636 148.294 93.584 152.064 84.477C152.696 82.9565 153.411 81.4721 154.19 80.0665C164.709 61.0793 187.789 53.0342 207.876 61.3536C211.988 63.0575 215.777 65.3607 219.141 68.209C219.528 68.536 219.902 68.8705 220.279 69.208C221.257 70.0964 222.218 71.0578 223.135 72.0657C223.256 72.1959 223.377 72.3315 223.495 72.468C223.513 72.4882 223.526 72.5114 223.534 72.537C223.839 73.4951 224.105 74.4407 224.323 75.3475C224.579 76.3975 224.793 77.4341 224.957 78.4284C225.012 78.7526 224.845 79.0586 224.541 79.1882C224.238 79.319 223.901 79.2285 223.704 78.9633C222.931 77.9126 222.091 76.8867 221.206 75.9132C220.377 75.0015 219.499 74.1234 218.596 73.3026C218.215 72.9545 217.874 72.6567 217.553 72.3903C214.482 69.7893 211.013 67.6779 207.246 66.1149C188.177 58.2204 165.574 65.7596 157.891 82.5796C157.212 84.0651 156.644 85.6346 156.205 87.2432C152.051 102.462 160.46 113.001 168.247 119.161C175.698 125.053 183.639 127.612 183.973 127.717C184.07 127.747 184.126 127.842 184.109 127.939C184.093 128.036 184.008 128.107 183.909 128.105C175.4 127.927 171.761 127.168 169.714 126.237ZM209.086 62.3116C208.636 62.1069 208.182 61.91 207.724 61.7206C187.824 53.4787 164.959 61.4486 154.539 80.2599C153.766 81.6528 153.057 83.1227 152.432 84.6298C148.712 93.6127 151.166 105.508 155.364 112.141C158.949 117.806 165.367 122.833 166.89 123.869C167.204 124.083 167.488 124.306 167.762 124.522C169.529 125.912 171.353 127.345 182.655 127.679C180.1 126.728 173.895 124.137 167.999 119.475C160.119 113.24 151.609 102.569 155.82 87.1405C156.266 85.5108 156.841 83.922 157.529 82.4169C165.299 65.4083 188.135 57.7761 207.397 65.7506C211.204 67.3318 214.707 69.4622 217.808 72.0883C218.131 72.357 218.477 72.6596 218.863 73.0118C219.775 73.8404 220.662 74.7275 221.5 75.6489C222.394 76.6329 223.243 77.6689 224.023 78.7294C224.127 78.8699 224.279 78.8705 224.385 78.8248C224.492 78.7791 224.595 78.6693 224.565 78.4954C224.403 77.5104 224.191 76.4834 223.937 75.4426C223.723 74.5569 223.464 73.6335 223.168 72.6979C223.061 72.5753 222.953 72.4539 222.842 72.3353C221.932 71.3345 220.981 70.3821 220.012 69.5038C219.64 69.17 219.268 68.8378 218.884 68.5129C215.927 66.0076 212.637 63.9263 209.086 62.3116Z" fill="#371A45"/>
    <g opacity="0.35">
        <path d="M183.912 127.907C169.543 127.605 169.149 125.649 166.777 124.032C164.822 122.701 158.617 117.654 155.195 112.246C151.362 106.189 148.259 94.1881 152.248 84.553C152.878 83.0329 153.584 81.5697 154.364 80.1626C155.116 78.8079 155.932 77.5055 156.815 76.2617C157.353 77.8606 157.97 79.3362 158.635 80.642C158.308 81.2465 157.999 81.8647 157.71 82.498C157.029 83.9866 156.46 85.5508 156.012 87.1918C151.985 101.948 159.765 112.705 168.122 119.318C175.659 125.278 183.662 127.828 183.912 127.907Z" fill="#293856"/>
        <path d="M169.714 126.237C168.738 125.794 168.124 125.311 167.517 124.833C167.235 124.612 166.969 124.403 166.665 124.197C165.128 123.151 158.649 118.075 155.027 112.353C150.777 105.636 148.294 93.584 152.064 84.477C152.696 82.9565 153.411 81.4721 154.19 80.0665C154.951 78.6968 155.78 77.3773 156.654 76.1466C156.698 76.0858 156.771 76.0544 156.845 76.0652C156.92 76.0764 156.98 76.1268 157.004 76.1983C157.531 77.7662 158.139 79.2309 158.812 80.5516C158.842 80.6097 158.841 80.6786 158.81 80.7359C158.477 81.353 158.168 81.9731 157.891 82.5804C157.211 84.0659 156.644 85.6354 156.204 87.244C152.05 102.463 160.46 113.002 168.246 119.162C175.698 125.054 183.639 127.613 183.973 127.718C184.07 127.748 184.125 127.843 184.109 127.94C184.093 128.037 184.008 128.107 183.909 128.106C175.4 127.927 171.761 127.168 169.714 126.237ZM156.755 76.6951C155.971 77.8222 155.227 79.0198 154.539 80.2591C153.767 81.652 153.057 83.122 152.432 84.6291C148.713 93.6119 151.167 105.507 155.364 112.14C158.949 117.805 165.367 122.832 166.89 123.868C167.205 124.083 167.488 124.305 167.762 124.521C169.53 125.911 171.353 127.345 182.656 127.678C180.1 126.728 173.895 124.137 167.999 119.474C160.119 113.239 151.609 102.568 155.82 87.1398C156.266 85.5101 156.841 83.9212 157.529 82.4161C157.796 81.8316 158.093 81.2344 158.412 80.6402C157.802 79.431 157.246 78.1064 156.755 76.6951Z" fill="#371A45"/>
    </g>
    <path d="M168.051 126.074C167.258 125.713 166.602 125.355 166.109 125.018C164.537 123.948 157.906 118.753 154.189 112.881C150.555 107.139 146.747 94.7335 151.148 84.0964C155.615 73.3089 164.015 64.9073 174.802 60.4379C185.589 55.9692 197.47 55.968 208.256 60.4349C212.464 62.1797 216.343 64.5392 219.783 67.4524C220.176 67.7847 220.559 68.1242 220.941 68.4673C221.943 69.3769 222.926 70.3603 223.869 71.3963C223.986 71.5227 224.104 71.6573 224.223 71.7919C224.332 71.9155 224.43 72.0787 224.48 72.2355C224.784 73.1917 225.057 74.1592 225.289 75.1114C225.542 76.1488 225.76 77.2092 225.937 78.2642C226.067 79.0403 225.651 79.7966 224.927 80.1035C224.202 80.4096 223.37 80.1814 222.905 79.5489C222.15 78.5257 221.333 77.5269 220.473 76.5811C219.681 75.7102 218.824 74.8541 217.927 74.0355C217.536 73.6811 217.216 73.4015 216.921 73.1574C213.919 70.6123 210.54 68.5563 206.867 67.034C196.309 62.6605 183.954 63.017 173.817 67.9872C165.383 72.1226 159.468 79.0542 157.162 87.5047C153.152 102.2 161.312 112.407 168.863 118.383C175.702 123.794 182.884 126.317 184.255 126.768C184.802 126.952 185.186 127.516 185.099 128.09C185.012 128.664 184.525 129.09 183.946 129.102C177.503 129.233 171.491 127.638 168.051 126.074ZM156.202 111.608C159.353 116.587 165.245 121.55 167.448 123.05C168.965 124.081 172.435 125.409 176.715 126.154C173.923 124.749 170.615 122.808 167.383 120.25C160.74 114.994 150.281 103.669 154.863 86.8783C157.352 77.7585 163.711 70.2897 172.767 65.8492C183.509 60.5823 196.596 60.2035 207.777 64.8346C211.676 66.45 215.269 68.637 218.45 71.3325C218.763 71.5915 219.108 71.893 219.528 72.2738C220.483 73.1444 221.393 74.0539 222.235 74.9802C222.502 75.2734 222.764 75.5714 223.022 75.873C223.007 75.8081 222.991 75.7418 222.975 75.6766C222.774 74.8559 222.543 74.0231 222.285 73.1972C222.227 73.1308 222.169 73.0676 222.112 73.0054C221.214 72.0196 220.285 71.0896 219.345 70.2358C218.985 69.9135 218.619 69.5884 218.243 69.2703C214.992 66.5161 211.327 64.2842 207.343 62.6352C197.145 58.4117 185.912 58.413 175.713 62.6379C165.514 66.8635 157.572 74.8075 153.348 85.0074C149.321 94.7388 152.961 106.488 156.202 111.608Z" fill="#371A45"/>
    <path d="M148.038 84.0663C154.287 86.908 161.657 84.1458 164.499 77.8966C167.34 71.6475 164.578 64.2779 158.329 61.4361C152.08 58.5944 144.71 61.3566 141.868 67.6057C139.027 73.8549 141.789 81.2245 148.038 84.0663Z" fill="white"/>
    <path d="M147.469 85.2884C144.282 83.8391 141.802 81.276 140.454 78.0244C139.046 74.6246 139.046 70.8787 140.454 67.4791C141.861 64.0784 144.51 61.4299 147.91 60.0217C151.31 58.6127 155.055 58.6128 158.456 60.0206C165.464 62.9179 168.822 71.0028 165.915 78.0221C164.507 81.4228 161.859 84.0713 158.459 85.4795C155.059 86.8885 151.314 86.8888 147.914 85.4802C147.763 85.4192 147.615 85.355 147.469 85.2884ZM157.776 62.6654C157.659 62.6124 157.542 62.5622 157.423 62.5128C154.689 61.3804 151.677 61.3804 148.942 62.5136C146.208 63.6469 144.078 65.7768 142.946 68.5118C141.814 71.2468 141.814 74.259 142.947 76.9929C144.08 79.7273 146.2 81.8513 148.945 82.9892C151.68 84.1216 154.692 84.1216 157.426 82.9884C160.16 81.8551 162.291 79.7252 163.423 76.9906C165.71 71.4639 163.179 65.1227 157.776 62.6654Z" fill="#371A45"/>
    <path d="M146.632 81.5308C151.657 83.8161 157.584 81.5948 159.869 76.5694C162.154 71.544 159.933 65.6175 154.908 63.3322C149.882 61.047 143.956 63.2683 141.671 68.2937C139.385 73.3191 141.607 79.2456 146.632 81.5308Z" fill="white"/>
    <path d="M146.542 81.7075C144.184 80.6351 142.349 78.7389 141.353 76.3335C140.311 73.8183 140.31 71.0472 141.352 68.5314C142.394 66.016 144.353 64.0562 146.868 63.0142C149.383 61.9714 152.154 61.9718 154.67 63.0132C157.185 64.0535 159.144 66.014 160.187 68.5296C161.229 71.0448 161.23 73.8158 160.188 76.3316C159.146 78.847 157.187 80.8069 154.672 81.8489C152.156 82.8916 149.386 82.8912 146.87 81.8498C146.759 81.8043 146.65 81.7565 146.542 81.7075ZM154.833 63.5168C154.729 63.4696 154.625 63.4239 154.518 63.3802C152.1 62.3785 149.438 62.3788 147.02 63.3805C144.602 64.3821 142.719 66.2656 141.719 68.6831C140.718 71.1007 140.717 73.7638 141.719 76.1818C142.72 78.5987 144.594 80.4795 147.021 81.4828C149.439 82.4845 152.102 82.4842 154.52 81.4826C156.938 80.4809 158.821 78.5974 159.821 76.1799C160.822 73.7624 160.823 71.0992 159.821 68.6812C158.863 66.3696 157.099 64.5474 154.833 63.5168Z" fill="#371A45"/>
    <g opacity="0.35">
        <path d="M153.692 81.6086C155.799 81.0941 157.582 79.9471 158.895 78.4193C153.86 79.1514 149.001 75.9465 147.766 70.9042C146.966 67.646 147.866 64.3696 149.9 62.0057C149.581 62.05 149.261 62.114 148.941 62.192C143.579 63.5049 140.295 68.9155 141.608 74.2781C142.921 79.6399 148.333 82.9199 153.692 81.6086Z" fill="#293856"/>
        <path d="M147.108 81.1802C144.358 79.9299 142.187 77.4788 141.415 74.3256C140.768 71.6809 141.189 68.9423 142.602 66.6144C144.015 64.2865 146.249 62.6474 148.894 62C149.247 61.915 149.566 61.8533 149.873 61.8103C149.955 61.7991 150.034 61.8391 150.075 61.9116C150.114 61.9836 150.105 62.0734 150.05 62.1361C147.989 64.5328 147.207 67.7928 147.96 70.8573C149.167 75.7854 153.856 78.9524 158.867 78.2235C158.949 78.2112 159.03 78.252 159.069 78.324C159.109 78.3965 159.1 78.4862 159.046 78.549C157.654 80.1694 155.819 81.2935 153.74 81.8024C151.435 82.3661 149.116 82.0936 147.108 81.1802ZM149.412 62.2904C149.276 62.3179 149.135 62.3487 148.988 62.3846C143.74 63.6694 140.516 68.9837 141.801 74.2301C143.085 79.4753 148.398 82.6998 153.645 81.4155C155.473 80.9688 157.104 80.0276 158.392 78.6791C153.382 79.1479 148.788 75.9046 147.574 70.9516C146.833 67.9362 147.521 64.7381 149.412 62.2904Z" fill="#371A45"/>
    </g>
    <path d="M146.176 82.5108C143.614 81.3457 141.62 79.2851 140.538 76.6716C139.405 73.9384 139.405 70.9274 140.536 68.1939C141.668 65.46 143.797 63.3314 146.53 62.1985C149.263 61.0657 152.274 61.0661 155.007 62.1978C157.739 63.3281 159.87 65.4579 161.003 68.1919C162.136 70.9251 162.135 73.9361 161.004 76.6695C159.872 79.4034 157.743 81.5321 155.01 82.6649C152.277 83.7977 149.266 83.7973 146.533 82.6656C146.412 82.6155 146.293 82.5642 146.176 82.5108ZM154.467 64.3194C154.373 64.2764 154.278 64.2351 154.181 64.1949C151.981 63.2838 149.558 63.2838 147.358 64.1954C145.158 65.1073 143.445 66.8209 142.534 69.0207C141.623 71.2206 141.623 73.6438 142.534 75.8441C143.446 78.0437 145.158 79.7576 147.359 80.6686C149.559 81.5796 151.982 81.5797 154.183 80.6681C156.382 79.7562 158.095 78.0426 159.006 75.8427C159.917 73.6429 159.917 71.2197 159.006 69.0193C158.134 66.9158 156.53 65.2572 154.467 64.3194Z" fill="#371A45"/>
    <g opacity="0.5">
        <path d="M183.316 83.6097C185.495 80.6759 185.22 76.7822 182.702 74.913C180.185 73.0438 176.378 73.9068 174.2 76.8407C172.021 79.7746 172.296 83.6682 174.814 85.5375C177.331 87.4067 181.138 86.5436 183.316 83.6097Z" fill="white"/>
    </g>
    <g opacity="0.5">
        <path d="M170.505 91.396C171.245 90.0565 170.914 88.4556 169.765 87.8203C168.615 87.185 167.083 87.7558 166.343 89.0953C165.602 90.4348 165.934 92.0357 167.083 92.671C168.233 93.3063 169.765 92.7355 170.505 91.396Z" fill="white"/>
    </g>
</svg>